M48
; DRILL file KiCad 10.0.6 date 2026-09-13T22:50:05
; FORMAT={-:-/ absolute / metric / decimal}
; #@! TF.CreationDate,2026-09-13T22:50:05+02:00
; #@! TF.GenerationSoftware,Kicad,Pcbnew,10.0.6
; #@! TF.FileFunction,Plated,1,2,PTH
FMAT,2
METRIC
; #@! TA.AperFunction,Plated,PTH,ViaDrill
T1C0.400
; #@! TA.AperFunction,Plated,PTH,ComponentDrill
T2C0.670
; #@! TA.AperFunction,Plated,PTH,ComponentDrill
T3C0.700
; #@! TA.AperFunction,Plated,PTH,ComponentDrill
T4C0.750
; #@! TA.AperFunction,Plated,PTH,ComponentDrill
T5C0.800
; #@! TA.AperFunction,Plated,PTH,ComponentDrill
T6C1.000
%
G90
G05
T1
X103.5Y-93.0
X111.75Y-89.0
X112.25Y-82.15
X112.8Y-79.65
X114.0Y-82.25
X114.5Y-106.2
X115.475Y-92.725
X115.775Y-86.249
X115.9Y-94.8
X116.8Y-85.6
X118.15Y-95.75
X118.8Y-78.2
X118.816Y-79.711
X120.7Y-79.5
X121.0Y-90.0
X122.5Y-102.75
X124.0Y-86.5
X125.5Y-79.4
X129.9Y-79.7
T2
X113.0Y-65.5
X113.826Y-63.785
X113.826Y-67.214
X115.54Y-62.96
X115.54Y-68.04
X117.255Y-63.785
X117.255Y-67.214
X118.08Y-65.5
T3
X100.25Y-95.94
X100.25Y-103.56
X101.75Y-110.69
X101.75Y-118.31
X102.5Y-95.94
X102.5Y-103.56
X104.5Y-110.69
X104.5Y-118.31
X104.75Y-79.94
X104.75Y-87.56
X104.75Y-95.94
X104.75Y-103.56
X110.25Y-80.19
X110.25Y-87.81
X110.25Y-93.69
X110.25Y-101.31
X111.831Y-105.212
X111.831Y-107.447
X113.411Y-103.632
X113.411Y-109.027
X114.0Y-84.265
X114.0Y-86.5
X115.58Y-82.685
X115.58Y-88.08
X115.646Y-103.632
X115.646Y-109.027
X117.226Y-105.212
X117.226Y-107.447
X117.815Y-82.685
X117.815Y-88.08
X119.395Y-84.265
X119.395Y-86.5
X126.5Y-91.44
X126.5Y-99.06
X128.0Y-79.94
X128.0Y-87.56
X129.0Y-109.69
X129.0Y-117.31
T4
X99.605Y-90.0
X99.8Y-82.315
X99.8Y-87.395
X101.98Y-107.5
X102.5Y-82.315
X102.5Y-87.395
X103.25Y-107.5
X104.52Y-107.5
X104.685Y-90.0
X110.685Y-112.75
X115.765Y-112.75
T5
X111.75Y-116.5
X113.25Y-99.0
X114.25Y-116.5
X115.75Y-99.0
X117.25Y-117.0
X119.75Y-117.0
X126.0Y-114.75
X126.0Y-117.25
X126.5Y-104.0
X126.532Y-107.0
X129.0Y-104.0
X129.032Y-107.0
X130.0Y-91.25
X130.0Y-93.75
X130.0Y-96.5
X130.0Y-99.0
X131.0Y-82.25
X131.0Y-84.75
T6
X108.0Y-52.5
X108.0Y-80.0
X108.0Y-85.0
X108.0Y-90.0
X108.0Y-100.0
X108.0Y-107.5
X108.0Y-115.0
X123.0Y-52.5
X123.0Y-80.0
X123.0Y-82.5
X123.0Y-97.5
X123.0Y-107.5
X123.0Y-115.0
M30
