%TF.GenerationSoftware,KiCad,Pcbnew,10.0.6*%
%TF.CreationDate,2026-09-13T22:50:03+02:00*%
%TF.ProjectId,Datron 1281 Referenz,44617472-6f6e-4203-9132-383120526566,1*%
%TF.SameCoordinates,Original*%
%TF.FileFunction,Copper,L2,Bot*%
%TF.FilePolarity,Positive*%
%FSLAX46Y46*%
G04 Gerber Fmt 4.6, Leading zero omitted, Abs format (unit mm)*
G04 Created by KiCad (PCBNEW 10.0.6) date 2026-09-13 22:50:03*
%MOMM*%
%LPD*%
G01*
G04 APERTURE LIST*
G04 Aperture macros list*
%AMHorizOval*
0 Thick line with rounded ends*
0 $1 width*
0 $2 $3 position (X,Y) of the first rounded end (center of the circle)*
0 $4 $5 position (X,Y) of the second rounded end (center of the circle)*
0 Add line between two ends*
20,1,$1,$2,$3,$4,$5,0*
0 Add two circle primitives to create the rounded ends*
1,1,$1,$2,$3*
1,1,$1,$4,$5*%
G04 Aperture macros list end*
%TA.AperFunction,ComponentPad*%
%ADD10O,1.400000X1.400000*%
%TD*%
%TA.AperFunction,ComponentPad*%
%ADD11C,1.400000*%
%TD*%
%TA.AperFunction,ComponentPad*%
%ADD12HorizOval,1.200000X0.184776X0.076537X-0.184776X-0.076537X0*%
%TD*%
%TA.AperFunction,ComponentPad*%
%ADD13C,1.200000*%
%TD*%
%TA.AperFunction,ComponentPad*%
%ADD14R,1.228000X1.228000*%
%TD*%
%TA.AperFunction,ComponentPad*%
%ADD15C,1.228000*%
%TD*%
%TA.AperFunction,ComponentPad*%
%ADD16C,2.000000*%
%TD*%
%TA.AperFunction,ComponentPad*%
%ADD17C,1.600000*%
%TD*%
%TA.AperFunction,ComponentPad*%
%ADD18R,1.500000X1.500000*%
%TD*%
%TA.AperFunction,ComponentPad*%
%ADD19O,1.500000X1.500000*%
%TD*%
%TA.AperFunction,ComponentPad*%
%ADD20R,1.050000X1.500000*%
%TD*%
%TA.AperFunction,ComponentPad*%
%ADD21O,1.050000X1.500000*%
%TD*%
%TA.AperFunction,ComponentPad*%
%ADD22HorizOval,1.200000X0.076537X-0.184776X-0.076537X0.184776X0*%
%TD*%
%TA.AperFunction,ViaPad*%
%ADD23C,0.800000*%
%TD*%
%TA.AperFunction,Conductor*%
%ADD24C,0.750000*%
%TD*%
%TA.AperFunction,Conductor*%
%ADD25C,0.500000*%
%TD*%
%TA.AperFunction,Conductor*%
%ADD26C,0.400000*%
%TD*%
%TA.AperFunction,Conductor*%
%ADD27C,0.150000*%
%TD*%
%TA.AperFunction,Conductor*%
%ADD28C,0.300000*%
%TD*%
G04 APERTURE END LIST*
D10*
%TO.P,R11,2*%
%TO.N,Net-(J11-Pin_1)*%
X128000000Y-87560000D03*
D11*
%TO.P,R11,1*%
%TO.N,Net-(D1-A)*%
X128000000Y-79940000D03*
%TD*%
D12*
%TO.P,RN1,1*%
%TO.N,Net-(JP2-A)*%
X114000000Y-86500000D03*
D13*
%TO.P,RN1,2*%
%TO.N,Net-(R5-Pad1)*%
X115580293Y-88080293D03*
%TO.P,RN1,3*%
%TO.N,Net-(D3-A)*%
X117815164Y-88080293D03*
%TO.P,RN1,4*%
%TO.N,Net-(J12-Pin_1)*%
X119395457Y-86500000D03*
%TO.P,RN1,5*%
%TO.N,Net-(J5-Pin_1)*%
X119395456Y-84265129D03*
%TO.P,RN1,6*%
%TO.N,Net-(J11-Pin_1)*%
X117815164Y-82684836D03*
%TO.P,RN1,7*%
%TO.N,Net-(D2-K)*%
X115580293Y-82684836D03*
%TO.P,RN1,8*%
%TO.N,Net-(RN1-Pad8)*%
X114000000Y-84265129D03*
%TD*%
D14*
%TO.P,U1,1*%
%TO.N,Net-(J1-Pin_1)*%
X113000000Y-65500000D03*
D15*
%TO.P,U1,2*%
%TO.N,Net-(D1-K)*%
X113826000Y-67214000D03*
%TO.P,U1,3*%
%TO.N,Net-(RN1-Pad8)*%
X115540000Y-68040000D03*
%TO.P,U1,4*%
%TO.N,Net-(R5-Pad1)*%
X117255000Y-67214000D03*
%TO.P,U1,5*%
%TO.N,Net-(JP2-A)*%
X118080000Y-65500000D03*
%TO.P,U1,6*%
%TO.N,Net-(J5-Pin_1)*%
X117255000Y-63785000D03*
%TO.P,U1,7*%
%TO.N,Net-(J12-Pin_1)*%
X115540000Y-62960000D03*
%TO.P,U1,8*%
%TO.N,Net-(D1-A)*%
X113826000Y-63785000D03*
%TD*%
D11*
%TO.P,R6,1*%
%TO.N,Net-(D2-A)*%
X102500000Y-95940000D03*
D10*
%TO.P,R6,2*%
%TO.N,Net-(C6-Pad2)*%
X102500000Y-103560000D03*
%TD*%
D16*
%TO.P,J4,1,Pin_1_1*%
%TO.N,Net-(J4-Pin_1)*%
X108000000Y-100000000D03*
%TD*%
D17*
%TO.P,C8,1*%
%TO.N,Net-(J11-Pin_1)*%
X131000000Y-82250000D03*
%TO.P,C8,2*%
%TO.N,Net-(J12-Pin_1)*%
X131000000Y-84750000D03*
%TD*%
%TO.P,C4,1*%
%TO.N,-15V*%
X117250000Y-117000000D03*
%TO.P,C4,2*%
%TO.N,GND*%
X119750000Y-117000000D03*
%TD*%
D16*
%TO.P,J3,1,Pin_1_1*%
%TO.N,Net-(D1-K)*%
X108000000Y-52500000D03*
%TD*%
D11*
%TO.P,R2,1*%
%TO.N,Net-(J2-Pin_1)*%
X101750000Y-118310000D03*
D10*
%TO.P,R2,2*%
%TO.N,Net-(D1-K)*%
X101750000Y-110690000D03*
%TD*%
D16*
%TO.P,J6,1,Pin_1_1*%
%TO.N,+15V*%
X123000000Y-107500000D03*
%TD*%
%TO.P,J5,1,Pin_1_1*%
%TO.N,Net-(J5-Pin_1)*%
X108000000Y-80000000D03*
%TD*%
%TO.P,J1,1,Pin_1_1*%
%TO.N,Net-(J1-Pin_1)*%
X123000000Y-52500000D03*
%TD*%
D18*
%TO.P,D3,1,K_1*%
%TO.N,Net-(D2-A)*%
X102500000Y-87394670D03*
D19*
%TO.P,D3,2,A_2*%
%TO.N,Net-(D3-A)*%
X102500000Y-82314670D03*
%TD*%
D16*
%TO.P,J2,1,Pin_1_1*%
%TO.N,Net-(J2-Pin_1)*%
X108000000Y-115000000D03*
%TD*%
D17*
%TO.P,C7,1*%
%TO.N,+15V*%
X126000000Y-114750000D03*
%TO.P,C7,2*%
%TO.N,GND*%
X126000000Y-117250000D03*
%TD*%
%TO.P,C6,1*%
%TO.N,Net-(JP2-B)*%
X115750000Y-99000000D03*
%TO.P,C6,2*%
%TO.N,Net-(C6-Pad2)*%
X113250000Y-99000000D03*
%TD*%
D16*
%TO.P,J10,1,Pin_1_1*%
%TO.N,Net-(J10-Pin_1)*%
X123000000Y-115000000D03*
%TD*%
D18*
%TO.P,D2,1,K_1*%
%TO.N,Net-(D2-K)*%
X99605330Y-90000000D03*
D19*
%TO.P,D2,2,A_2*%
%TO.N,Net-(D2-A)*%
X104685330Y-90000000D03*
%TD*%
D17*
%TO.P,C5,1*%
%TO.N,Net-(JP1-B)*%
X126532000Y-107000000D03*
%TO.P,C5,2*%
%TO.N,Net-(C5-Pad2)*%
X129032000Y-107000000D03*
%TD*%
D11*
%TO.P,R7,1*%
%TO.N,Net-(D2-K)*%
X104750000Y-95940000D03*
D10*
%TO.P,R7,2*%
%TO.N,+15V*%
X104750000Y-103560000D03*
%TD*%
D17*
%TO.P,C3,1*%
%TO.N,Net-(D1-A)*%
X126500000Y-104000000D03*
%TO.P,C3,2*%
%TO.N,GND*%
X129000000Y-104000000D03*
%TD*%
D16*
%TO.P,J8,1,Pin_1_1*%
%TO.N,-15V*%
X108000000Y-107500000D03*
%TD*%
D11*
%TO.P,R9,1*%
%TO.N,Net-(J10-Pin_1)*%
X100250000Y-103560000D03*
D10*
%TO.P,R9,2*%
%TO.N,Net-(D2-K)*%
X100250000Y-95940000D03*
%TD*%
D18*
%TO.P,D1,1,K_1*%
%TO.N,Net-(D1-K)*%
X110685000Y-112750000D03*
D19*
%TO.P,D1,2,A_2*%
%TO.N,Net-(D1-A)*%
X115765000Y-112750000D03*
%TD*%
D16*
%TO.P,J13,1,Pin_1_1*%
%TO.N,Net-(J13-Pin_1)*%
X108000000Y-90000000D03*
%TD*%
D17*
%TO.P,C9,1*%
%TO.N,Net-(J10-Pin_1)*%
X130000000Y-99000000D03*
%TO.P,C9,2*%
%TO.N,GND*%
X130000000Y-96500000D03*
%TD*%
D18*
%TO.P,D4,1,K_1*%
%TO.N,Net-(D2-K)*%
X99800000Y-87394670D03*
D19*
%TO.P,D4,2,A_2*%
%TO.N,Net-(D3-A)*%
X99800000Y-82314670D03*
%TD*%
D16*
%TO.P,J11,1,Pin_1_1*%
%TO.N,Net-(J11-Pin_1)*%
X123000000Y-80000000D03*
%TD*%
D17*
%TO.P,C2,1*%
%TO.N,Net-(J5-Pin_1)*%
X130000000Y-91250000D03*
%TO.P,C2,2*%
%TO.N,GND*%
X130000000Y-93750000D03*
%TD*%
D16*
%TO.P,J7,1,Pin_1_1*%
%TO.N,GND*%
X123000000Y-97500000D03*
%TD*%
D17*
%TO.P,C1,1*%
%TO.N,Net-(Q1-G)*%
X111750000Y-116500000D03*
%TO.P,C1,2*%
%TO.N,Net-(U2B--)*%
X114250000Y-116500000D03*
%TD*%
D16*
%TO.P,J9,1,Pin_1_1*%
%TO.N,Net-(J10-Pin_1)*%
X108000000Y-85000000D03*
%TD*%
%TO.P,J12,1,Pin_1_1*%
%TO.N,Net-(J12-Pin_1)*%
X123000000Y-82500000D03*
%TD*%
D11*
%TO.P,R1,1*%
%TO.N,Net-(J4-Pin_1)*%
X104500000Y-118310000D03*
D10*
%TO.P,R1,2*%
%TO.N,Net-(Q1-S)*%
X104500000Y-110690000D03*
%TD*%
D11*
%TO.P,R4,1*%
%TO.N,GND*%
X129000000Y-117310000D03*
D10*
%TO.P,R4,2*%
%TO.N,Net-(C5-Pad2)*%
X129000000Y-109690000D03*
%TD*%
D11*
%TO.P,R10,1*%
%TO.N,Net-(J10-Pin_1)*%
X104750000Y-79940000D03*
D10*
%TO.P,R10,2*%
%TO.N,Net-(D3-A)*%
X104750000Y-87560000D03*
%TD*%
D11*
%TO.P,R3,1*%
%TO.N,Net-(J5-Pin_1)*%
X126500000Y-91440000D03*
D10*
%TO.P,R3,2*%
%TO.N,Net-(U2B--)*%
X126500000Y-99060000D03*
%TD*%
D11*
%TO.P,R8,1*%
%TO.N,-15V*%
X110250000Y-101310000D03*
D10*
%TO.P,R8,2*%
%TO.N,Net-(D3-A)*%
X110250000Y-93690000D03*
%TD*%
D11*
%TO.P,R5,1*%
%TO.N,Net-(R5-Pad1)*%
X110250000Y-80190000D03*
D10*
%TO.P,R5,2*%
%TO.N,Net-(JP1-A)*%
X110250000Y-87810000D03*
%TD*%
D20*
%TO.P,Q1,1,D_1*%
%TO.N,Net-(D1-K)*%
X101980000Y-107500000D03*
D21*
%TO.P,Q1,2,G_2*%
%TO.N,Net-(Q1-G)*%
X103250000Y-107500000D03*
%TO.P,Q1,3,S_3*%
%TO.N,Net-(Q1-S)*%
X104520000Y-107500000D03*
%TD*%
D22*
%TO.P,U2,1*%
%TO.N,Net-(C6-Pad2)*%
X113411000Y-103632000D03*
D13*
%TO.P,U2,2,-_2*%
%TO.N,Net-(JP2-B)*%
X115645871Y-103632000D03*
%TO.P,U2,3,+_3*%
%TO.N,Net-(JP1-B)*%
X117226163Y-105212292D03*
%TO.P,U2,4,V-_4*%
%TO.N,-15V*%
X117226164Y-107447164D03*
%TO.P,U2,5,+_5*%
%TO.N,Net-(D1-A)*%
X115645871Y-109027456D03*
%TO.P,U2,6,-_6*%
%TO.N,Net-(U2B--)*%
X113411000Y-109027457D03*
%TO.P,U2,7*%
%TO.N,Net-(Q1-G)*%
X111830708Y-107447163D03*
%TO.P,U2,8,V+_8*%
%TO.N,+15V*%
X111830708Y-105212292D03*
%TD*%
D23*
%TO.N,Net-(D1-A)*%
X122500000Y-102750000D03*
%TO.N,Net-(J5-Pin_1)*%
X121000000Y-90000000D03*
%TO.N,Net-(J12-Pin_1)*%
X124000000Y-86500000D03*
%TO.N,Net-(JP1-B)*%
X118150000Y-95750000D03*
%TO.N,Net-(D3-A)*%
X103500000Y-93000000D03*
%TO.N,Net-(RN1-Pad8)*%
X114000000Y-82250000D03*
%TO.N,Net-(R5-Pad1)*%
X112250000Y-82150000D03*
X112800000Y-79650000D03*
%TO.N,Net-(JP2-A)*%
X111750000Y-89000000D03*
X115775000Y-86249065D03*
X115475000Y-92725000D03*
X118800000Y-78200000D03*
X118815682Y-79710794D03*
%TO.N,Net-(J10-Pin_1)*%
X125500000Y-79400000D03*
X116800000Y-85600000D03*
X120700000Y-79500000D03*
X129900000Y-79700000D03*
X114500000Y-106200000D03*
%TO.N,Net-(JP1-A)*%
X115900000Y-94800000D03*
%TD*%
%TO.N,+15V*%
D24*
X110194597Y-103560000D02*
X111765248Y-105130651D01*
X104750000Y-103560000D02*
X110194597Y-103560000D01*
%TO.N,-15V*%
X108000000Y-112475000D02*
X108000000Y-107500000D01*
X115350000Y-118900000D02*
X111800000Y-118900000D01*
X109600000Y-116700000D02*
X109600000Y-114075000D01*
X109600000Y-114075000D02*
X108000000Y-112475000D01*
X117250000Y-117000000D02*
X115350000Y-118900000D01*
X111800000Y-118900000D02*
X109600000Y-116700000D01*
%TO.N,Net-(Q1-G)*%
D25*
X111765248Y-107365522D02*
X111885000Y-107485274D01*
X105666142Y-104750000D02*
X109149726Y-104750000D01*
X111885000Y-107485274D02*
X111885000Y-116365000D01*
X109149726Y-104750000D02*
X111765248Y-107365522D01*
X111885000Y-116365000D02*
X111750000Y-116500000D01*
X103250000Y-107166142D02*
X105666142Y-104750000D01*
X103250000Y-107500000D02*
X103250000Y-107166142D01*
%TO.N,Net-(U2B--)*%
X115712057Y-114500000D02*
X117000000Y-113212057D01*
X113345541Y-114500000D02*
X113345541Y-115595541D01*
X117000000Y-113212057D02*
X117000000Y-110900000D01*
X113345541Y-114500000D02*
X115712057Y-114500000D01*
X117000000Y-110900000D02*
X126500000Y-101400000D01*
X113345541Y-108945815D02*
X113345541Y-114500000D01*
X113345541Y-115595541D02*
X114250000Y-116500000D01*
X126500000Y-101400000D02*
X126500000Y-99060000D01*
%TO.N,Net-(D1-A)*%
D26*
X113826000Y-63785000D02*
X112500000Y-62459000D01*
D25*
X115580412Y-108945815D02*
X117817462Y-108945815D01*
D26*
X126500000Y-78440000D02*
X128000000Y-79940000D01*
X126500000Y-54500000D02*
X126500000Y-78440000D01*
X123000000Y-58500000D02*
X124000000Y-57500000D01*
D25*
X117817462Y-108945815D02*
X122500000Y-104263277D01*
D26*
X112500000Y-59000000D02*
X113000000Y-58500000D01*
X112500000Y-62459000D02*
X112500000Y-59000000D01*
X124000000Y-57500000D02*
X124000000Y-54500000D01*
X113000000Y-58500000D02*
X123000000Y-58500000D01*
D25*
X122500000Y-104263277D02*
X122500000Y-102750000D01*
D26*
X125000000Y-87900000D02*
X125000000Y-100250000D01*
X128000000Y-84900000D02*
X125000000Y-87900000D01*
X128000000Y-79940000D02*
X128000000Y-84900000D01*
X125000000Y-100250000D02*
X122500000Y-102750000D01*
X124000000Y-54500000D02*
X126500000Y-54500000D01*
%TO.N,Net-(J5-Pin_1)*%
D25*
X117000000Y-80500000D02*
X118500000Y-80500000D01*
D26*
X116700000Y-80500000D02*
X117000000Y-80500000D01*
X116700000Y-76500000D02*
X116700000Y-80500000D01*
X122500000Y-76500000D02*
X116700000Y-76500000D01*
D25*
X120000000Y-83660585D02*
X119395456Y-84265129D01*
X121000000Y-85869673D02*
X119395456Y-84265129D01*
D26*
X122500000Y-63000000D02*
X122500000Y-76500000D01*
D25*
X111660000Y-81340000D02*
X109340000Y-81340000D01*
X129810000Y-91440000D02*
X130000000Y-91250000D01*
X109340000Y-81340000D02*
X108000000Y-80000000D01*
X126500000Y-91440000D02*
X129810000Y-91440000D01*
D26*
X122000000Y-62500000D02*
X122500000Y-63000000D01*
X117255000Y-63785000D02*
X118540000Y-62500000D01*
D25*
X112500000Y-80500000D02*
X111660000Y-81340000D01*
X117000000Y-80500000D02*
X112500000Y-80500000D01*
D26*
X118540000Y-62500000D02*
X122000000Y-62500000D01*
D25*
X118500000Y-80500000D02*
X120000000Y-82000000D01*
X120000000Y-82000000D02*
X120000000Y-83660585D01*
X121000000Y-90000000D02*
X121000000Y-85869673D01*
%TO.N,Net-(JP2-B)*%
X115580412Y-99169588D02*
X115750000Y-99000000D01*
X115580412Y-103550358D02*
X115580412Y-99169588D01*
%TO.N,Net-(C6-Pad2)*%
X112450001Y-98200001D02*
X113250000Y-99000000D01*
X102500000Y-102570051D02*
X106870050Y-98200001D01*
X113345541Y-99095541D02*
X113250000Y-99000000D01*
X102500000Y-103560000D02*
X102500000Y-102570051D01*
X106870050Y-98200001D02*
X112450001Y-98200001D01*
X113345541Y-103550358D02*
X113345541Y-99095541D01*
%TO.N,Net-(J12-Pin_1)*%
X123000000Y-85500000D02*
X123000000Y-82500000D01*
X124000000Y-86500000D02*
X123000000Y-85500000D01*
%TO.N,Net-(JP1-B)*%
X118150000Y-95750000D02*
X117500000Y-96400000D01*
X117500000Y-96400000D02*
X117500000Y-104791355D01*
X117500000Y-104791355D02*
X117160704Y-105130651D01*
%TO.N,Net-(D1-K)*%
D26*
X102900000Y-78800000D02*
X104500000Y-77200000D01*
X110537692Y-107537692D02*
X108750000Y-105750000D01*
X101400000Y-78800000D02*
X102900000Y-78800000D01*
X110685000Y-112750000D02*
X110685000Y-107893325D01*
X101980000Y-107500000D02*
X101980000Y-110460000D01*
X108500000Y-68000000D02*
X108500000Y-58000000D01*
X104500000Y-77200000D02*
X104500000Y-57000000D01*
X108500000Y-58000000D02*
X107500000Y-57000000D01*
X107500000Y-57000000D02*
X104500000Y-57000000D01*
X112540000Y-68500000D02*
X109000000Y-68500000D01*
X113826000Y-67214000D02*
X112540000Y-68500000D01*
X101980000Y-110460000D02*
X101750000Y-110690000D01*
X108000000Y-54500000D02*
X108000000Y-52500000D01*
X110685000Y-107893325D02*
X110537692Y-107537692D01*
X106750000Y-105750000D02*
X106000000Y-106500000D01*
X102000000Y-107520000D02*
X101980000Y-107500000D01*
X108750000Y-105750000D02*
X106750000Y-105750000D01*
X98455330Y-81744670D02*
X101400000Y-78800000D01*
X98455330Y-103975330D02*
X98455330Y-81744670D01*
X106000000Y-110745635D02*
X104955635Y-111790000D01*
X106000000Y-106500000D02*
X106000000Y-110745635D01*
X109000000Y-68500000D02*
X108500000Y-68000000D01*
X102850000Y-111790000D02*
X101750000Y-110690000D01*
X104500000Y-57000000D02*
X104500000Y-54500000D01*
X101980000Y-107500000D02*
X98455330Y-103975330D01*
X104955635Y-111790000D02*
X102850000Y-111790000D01*
X104500000Y-54500000D02*
X108000000Y-54500000D01*
%TO.N,Net-(D2-K)*%
D25*
X100250000Y-95940000D02*
X100250000Y-96000000D01*
X100250000Y-96000000D02*
X101340000Y-97090000D01*
X101340000Y-97090000D02*
X103600000Y-97090000D01*
X103600000Y-97090000D02*
X104750000Y-95940000D01*
%TO.N,Net-(D2-A)*%
X102500000Y-95940000D02*
X102500000Y-92185330D01*
X102500000Y-90000000D02*
X104685330Y-90000000D01*
X102500000Y-92185330D02*
X102500000Y-90000000D01*
X102500000Y-92185330D02*
X102500000Y-87394670D01*
%TO.N,Net-(D3-A)*%
X103500000Y-93000000D02*
X106200000Y-93000000D01*
X106200000Y-93000000D02*
X106200000Y-89010000D01*
X106200000Y-89010000D02*
X104750000Y-87560000D01*
X104750000Y-84564670D02*
X104750000Y-87560000D01*
X106200000Y-93000000D02*
X109560000Y-93000000D01*
X109560000Y-93000000D02*
X110250000Y-93690000D01*
X102500000Y-82314670D02*
X104750000Y-84564670D01*
%TO.N,Net-(RN1-Pad8)*%
X114000000Y-82250000D02*
X114000000Y-84265129D01*
%TO.N,Net-(R5-Pad1)*%
D27*
X118250000Y-68950000D02*
X118250000Y-72050000D01*
X118250000Y-72050000D02*
X118050000Y-72250000D01*
D28*
X112250000Y-82150000D02*
X112200000Y-82200000D01*
D27*
X108000000Y-72250000D02*
X106000000Y-74250000D01*
D28*
X107250000Y-73750000D02*
X108250000Y-72750000D01*
D27*
X106000000Y-77300000D02*
X106700000Y-78000000D01*
D28*
X112200000Y-82200000D02*
X112200000Y-87200000D01*
X118750000Y-72250000D02*
X118750000Y-68709000D01*
X113080293Y-88080293D02*
X115580293Y-88080293D01*
X112800000Y-76500000D02*
X107250000Y-76500000D01*
D27*
X118050000Y-72250000D02*
X108000000Y-72250000D01*
D28*
X108250000Y-72750000D02*
X118250000Y-72750000D01*
X118750000Y-68709000D02*
X117255000Y-67214000D01*
D27*
X117255000Y-67955000D02*
X118250000Y-68950000D01*
X108060000Y-78000000D02*
X110250000Y-80190000D01*
X106700000Y-78000000D02*
X108060000Y-78000000D01*
D28*
X107250000Y-76500000D02*
X107250000Y-73750000D01*
X112200000Y-87200000D02*
X113080293Y-88080293D01*
D27*
X106000000Y-74250000D02*
X106000000Y-77300000D01*
X117255000Y-67214000D02*
X117255000Y-67955000D01*
D28*
X118250000Y-72750000D02*
X118750000Y-72250000D01*
X112800000Y-79650000D02*
X112800000Y-76500000D01*
%TO.N,Net-(JP2-A)*%
D26*
X115775000Y-86249065D02*
X114250935Y-86249065D01*
D25*
X115475000Y-92725000D02*
X111750000Y-89000000D01*
D26*
X114250935Y-86249065D02*
X114000000Y-86500000D01*
X118800000Y-78200000D02*
X118800000Y-79695112D01*
X118800000Y-79695112D02*
X118815682Y-79710794D01*
%TO.N,Net-(Q1-S)*%
X104500000Y-110690000D02*
X104500000Y-107520000D01*
X104500000Y-107520000D02*
X104520000Y-107500000D01*
%TO.N,Net-(C5-Pad2)*%
D25*
X129000000Y-109690000D02*
X129000000Y-107000000D01*
%TO.N,Net-(J10-Pin_1)*%
D27*
X116720815Y-108420815D02*
X114500000Y-106200000D01*
X122496877Y-98800000D02*
X121725000Y-98028123D01*
X121725000Y-98028123D02*
X121725000Y-96971877D01*
X116800000Y-88302566D02*
X116800000Y-86300000D01*
X129400000Y-92600000D02*
X129500000Y-92500000D01*
X116700000Y-115200000D02*
X117500000Y-115200000D01*
X118900000Y-82300000D02*
X118175000Y-81575000D01*
X116800000Y-86100000D02*
X116800000Y-86000000D01*
X116800000Y-85600000D02*
X119732894Y-85600000D01*
X121725000Y-86625000D02*
X121725000Y-80525000D01*
X127800000Y-107500000D02*
X127800000Y-92600000D01*
X117497434Y-89000000D02*
X116800000Y-88302566D01*
X114500000Y-106200000D02*
X117500000Y-106200000D01*
X113997434Y-85500000D02*
X116700000Y-85500000D01*
X113000000Y-92700000D02*
X108000000Y-87700000D01*
X123000000Y-96200000D02*
X123000000Y-87900000D01*
X131500000Y-91900000D02*
X131500000Y-90500000D01*
X113125000Y-84627566D02*
X113997434Y-85500000D01*
X121725000Y-80525000D02*
X120700000Y-79500000D01*
X127225000Y-108075000D02*
X127800000Y-107500000D01*
X122496877Y-96200000D02*
X123000000Y-96200000D01*
X126800000Y-88100000D02*
X126800000Y-87079720D01*
X123503123Y-98800000D02*
X122496877Y-98800000D01*
X123503123Y-96200000D02*
X124275000Y-96971877D01*
X125675000Y-108075000D02*
X127225000Y-108075000D01*
X116800000Y-85400000D02*
X118900000Y-83300000D01*
X113000000Y-96300000D02*
X113000000Y-92700000D01*
X129500000Y-92500000D02*
X130900000Y-92500000D01*
X112900000Y-117400000D02*
X113600000Y-118100000D01*
X121725000Y-96971877D02*
X122496877Y-96200000D01*
X113125000Y-82170405D02*
X113125000Y-84627566D01*
X108000000Y-85000000D02*
X108000000Y-83190000D01*
X115700000Y-117600000D02*
X115700000Y-116200000D01*
X122496877Y-106200000D02*
X123800000Y-106200000D01*
X114500000Y-97800000D02*
X113000000Y-96300000D01*
X115200000Y-118100000D02*
X115700000Y-117600000D01*
X118200000Y-106900000D02*
X118200000Y-107820815D01*
X118900000Y-83300000D02*
X118900000Y-82300000D01*
X127800000Y-92600000D02*
X129400000Y-92600000D01*
X118900000Y-113800000D02*
X118900000Y-109796877D01*
X118500000Y-89000000D02*
X117497434Y-89000000D01*
X112470541Y-108583378D02*
X112470541Y-115463003D01*
X113600000Y-118100000D02*
X115200000Y-118100000D01*
X114500000Y-106200000D02*
X114500000Y-97800000D01*
X118175000Y-81575000D02*
X113720405Y-81575000D01*
X107510000Y-96300000D02*
X113000000Y-96300000D01*
X100250000Y-103560000D02*
X107510000Y-96300000D01*
X125500000Y-86500000D02*
X124100000Y-87900000D01*
X117600000Y-108420815D02*
X116720815Y-108420815D01*
X108000000Y-83190000D02*
X104750000Y-79940000D01*
X116700000Y-85500000D02*
X116800000Y-85600000D01*
X120270457Y-87229543D02*
X118500000Y-89000000D01*
X123000000Y-100700000D02*
X123000000Y-98800000D01*
X108000000Y-87700000D02*
X108000000Y-85000000D01*
X123000000Y-96200000D02*
X123503123Y-96200000D01*
X131500000Y-90500000D02*
X130900000Y-89900000D01*
X120270457Y-86137563D02*
X120270457Y-87229543D01*
X118900000Y-109796877D02*
X122496877Y-106200000D01*
X117500000Y-106200000D02*
X123000000Y-100700000D01*
X126800000Y-87079720D02*
X129900000Y-83979720D01*
X115700000Y-116200000D02*
X116700000Y-115200000D01*
X114500000Y-106200000D02*
X114500000Y-106553919D01*
X130900000Y-89900000D02*
X128600000Y-89900000D01*
X116800000Y-85600000D02*
X116800000Y-85400000D01*
X124275000Y-96971877D02*
X124275000Y-98028123D01*
X123800000Y-106200000D02*
X125675000Y-108075000D01*
X112470541Y-115463003D02*
X112900000Y-115892462D01*
X114500000Y-106553919D02*
X112470541Y-108583378D01*
X117500000Y-106200000D02*
X118200000Y-106900000D01*
X124275000Y-98028123D02*
X123503123Y-98800000D01*
X112900000Y-115892462D02*
X112900000Y-117400000D01*
X116800000Y-86300000D02*
X116800000Y-86100000D01*
X129900000Y-83979720D02*
X129900000Y-79700000D01*
X119732894Y-85600000D02*
X120270457Y-86137563D01*
X130900000Y-92500000D02*
X131500000Y-91900000D01*
X118200000Y-107820815D02*
X117600000Y-108420815D01*
X117500000Y-115200000D02*
X118900000Y-113800000D01*
X113720405Y-81575000D02*
X113125000Y-82170405D01*
X125500000Y-79400000D02*
X125500000Y-86500000D01*
X123000000Y-87900000D02*
X121725000Y-86625000D01*
X128600000Y-89900000D02*
X126800000Y-88100000D01*
X124100000Y-87900000D02*
X123000000Y-87900000D01*
%TO.N,Net-(JP1-A)*%
D25*
X115900000Y-94800000D02*
X110250000Y-89150000D01*
X110250000Y-89150000D02*
X110250000Y-87810000D01*
%TO.N,Net-(J2-Pin_1)*%
X101750000Y-118310000D02*
X105060000Y-115000000D01*
X105060000Y-115000000D02*
X108000000Y-115000000D01*
%TD*%
%TA.AperFunction,Conductor*%
%TO.N,Net-(R5-Pad1)*%
G36*
X106443039Y-76019685D02*
G01*
X106488794Y-76072489D01*
X106500000Y-76124000D01*
X106500000Y-76876000D01*
X106480315Y-76943039D01*
X106427511Y-76988794D01*
X106376000Y-77000000D01*
X105624000Y-77000000D01*
X105556961Y-76980315D01*
X105511206Y-76927511D01*
X105500000Y-76876000D01*
X105500000Y-76124000D01*
X105519685Y-76056961D01*
X105572489Y-76011206D01*
X105624000Y-76000000D01*
X106376000Y-76000000D01*
X106443039Y-76019685D01*
G37*
%TD.AperFunction*%
%TD*%
%TA.AperFunction,Conductor*%
%TO.N,Net-(J5-Pin_1)*%
G36*
X125443039Y-76019685D02*
G01*
X125488794Y-76072489D01*
X125500000Y-76124000D01*
X125500000Y-76876000D01*
X125480315Y-76943039D01*
X125427511Y-76988794D01*
X125376000Y-77000000D01*
X116124000Y-77000000D01*
X116056961Y-76980315D01*
X116011206Y-76927511D01*
X116000000Y-76876000D01*
X116000000Y-76124000D01*
X116019685Y-76056961D01*
X116072489Y-76011206D01*
X116124000Y-76000000D01*
X125376000Y-76000000D01*
X125443039Y-76019685D01*
G37*
%TD.AperFunction*%
%TD*%
%TA.AperFunction,Conductor*%
%TO.N,Net-(D1-K)*%
G36*
X115393100Y-54005022D02*
G01*
X115406115Y-54008843D01*
X115464895Y-54046615D01*
X115493922Y-54110169D01*
X115494869Y-54136664D01*
X115494500Y-54141820D01*
X115494500Y-54862665D01*
X115494739Y-54867134D01*
X115478663Y-54935130D01*
X115452127Y-54967462D01*
X115451437Y-54968060D01*
X115396597Y-54995518D01*
X115389039Y-54997163D01*
X115362668Y-55000000D01*
X105000000Y-55000000D01*
X105000000Y-76076877D01*
X104998738Y-76094523D01*
X104994500Y-76123998D01*
X104994500Y-76874118D01*
X104974815Y-76941157D01*
X104951620Y-76967902D01*
X104951346Y-76968139D01*
X104896597Y-76995518D01*
X104889039Y-76997163D01*
X104862668Y-77000000D01*
X104141830Y-77000000D01*
X104106889Y-76994975D01*
X104091890Y-76990570D01*
X104033144Y-76952827D01*
X104031957Y-76951458D01*
X104004477Y-76896583D01*
X104002832Y-76889021D01*
X104000000Y-76862668D01*
X104000000Y-54141829D01*
X104005023Y-54106893D01*
X104009427Y-54091895D01*
X104047172Y-54033144D01*
X104048541Y-54031957D01*
X104103420Y-54004477D01*
X104110979Y-54002833D01*
X104137332Y-54000000D01*
X115358170Y-54000000D01*
X115393100Y-54005022D01*
G37*
%TD.AperFunction*%
%TD*%
%TA.AperFunction,Conductor*%
%TO.N,GND*%
G36*
X132443039Y-93019685D02*
G01*
X132488794Y-93072489D01*
X132500000Y-93124000D01*
X132500000Y-119376000D01*
X132480315Y-119443039D01*
X132427511Y-119488794D01*
X132376000Y-119500000D01*
X118624000Y-119500000D01*
X118556961Y-119480315D01*
X118511206Y-119427511D01*
X118500000Y-119376000D01*
X118500000Y-117381039D01*
X118506069Y-117342721D01*
X118518477Y-117304534D01*
X118550500Y-117102352D01*
X118550500Y-116897648D01*
X118518477Y-116695466D01*
X118506069Y-116657277D01*
X118500000Y-116618959D01*
X118500000Y-116124000D01*
X118519685Y-116056961D01*
X118572489Y-116011206D01*
X118624000Y-116000000D01*
X121826611Y-116000000D01*
X121893650Y-116019685D01*
X121914292Y-116036319D01*
X122022490Y-116144517D01*
X122213567Y-116283343D01*
X122282351Y-116318390D01*
X122424003Y-116390566D01*
X122424005Y-116390566D01*
X122424008Y-116390568D01*
X122544412Y-116429689D01*
X122648631Y-116463553D01*
X122881903Y-116500500D01*
X122881908Y-116500500D01*
X123118097Y-116500500D01*
X123351368Y-116463553D01*
X123575992Y-116390568D01*
X123786433Y-116283343D01*
X123977510Y-116144517D01*
X124085708Y-116036319D01*
X124147031Y-116002834D01*
X124173389Y-116000000D01*
X125618961Y-116000000D01*
X125657277Y-116006068D01*
X125695466Y-116018477D01*
X125897648Y-116050500D01*
X125897649Y-116050500D01*
X126102351Y-116050500D01*
X126102352Y-116050500D01*
X126304534Y-116018477D01*
X126342722Y-116006068D01*
X126381039Y-116000000D01*
X128000000Y-116000000D01*
X128000000Y-111124000D01*
X128019685Y-111056961D01*
X128072489Y-111011206D01*
X128124000Y-111000000D01*
X129000000Y-111000000D01*
X129004726Y-110995273D01*
X129019685Y-110944331D01*
X129072489Y-110898576D01*
X129104602Y-110888897D01*
X129281118Y-110860940D01*
X129460832Y-110802547D01*
X129629199Y-110716760D01*
X129782073Y-110605690D01*
X129915690Y-110472073D01*
X130026760Y-110319199D01*
X130112547Y-110150832D01*
X130170940Y-109971118D01*
X130200500Y-109784486D01*
X130200500Y-109595513D01*
X130170940Y-109408881D01*
X130143846Y-109325497D01*
X130112547Y-109229168D01*
X130112545Y-109229165D01*
X130112545Y-109229163D01*
X130026759Y-109060800D01*
X129996922Y-109019733D01*
X129915690Y-108907927D01*
X129786818Y-108779055D01*
X129753334Y-108717732D01*
X129750500Y-108691374D01*
X129750500Y-108148666D01*
X129770185Y-108081627D01*
X129801614Y-108048348D01*
X129879219Y-107991966D01*
X130023966Y-107847219D01*
X130023968Y-107847215D01*
X130023971Y-107847213D01*
X130127391Y-107704865D01*
X130144287Y-107681610D01*
X130237220Y-107499219D01*
X130300477Y-107304534D01*
X130332500Y-107102352D01*
X130332500Y-106897648D01*
X130300477Y-106695466D01*
X130237220Y-106500781D01*
X130237218Y-106500778D01*
X130237218Y-106500776D01*
X130197148Y-106422135D01*
X130144287Y-106318390D01*
X130113319Y-106275766D01*
X130023971Y-106152786D01*
X129879213Y-106008028D01*
X129713613Y-105887715D01*
X129713612Y-105887714D01*
X129713610Y-105887713D01*
X129632990Y-105846635D01*
X129531223Y-105794781D01*
X129336534Y-105731522D01*
X129161995Y-105703878D01*
X129134352Y-105699500D01*
X129124000Y-105699500D01*
X129056961Y-105679815D01*
X129011206Y-105627011D01*
X129000000Y-105575500D01*
X129000000Y-100124328D01*
X129019685Y-100057289D01*
X129072489Y-100011534D01*
X129141647Y-100001590D01*
X129196885Y-100024010D01*
X129306039Y-100103313D01*
X129318390Y-100112287D01*
X129434607Y-100171503D01*
X129500776Y-100205218D01*
X129500778Y-100205218D01*
X129500781Y-100205220D01*
X129605137Y-100239127D01*
X129695465Y-100268477D01*
X129796557Y-100284488D01*
X129897648Y-100300500D01*
X129897649Y-100300500D01*
X130102351Y-100300500D01*
X130102352Y-100300500D01*
X130304534Y-100268477D01*
X130499219Y-100205220D01*
X130681610Y-100112287D01*
X130833973Y-100001590D01*
X130847213Y-99991971D01*
X130847215Y-99991968D01*
X130847219Y-99991966D01*
X130991966Y-99847219D01*
X130991968Y-99847215D01*
X130991971Y-99847213D01*
X131044732Y-99774590D01*
X131112287Y-99681610D01*
X131205220Y-99499219D01*
X131268477Y-99304534D01*
X131300500Y-99102352D01*
X131300500Y-98897648D01*
X131268477Y-98695466D01*
X131205220Y-98500781D01*
X131205218Y-98500778D01*
X131205218Y-98500776D01*
X131144437Y-98381488D01*
X131112287Y-98318390D01*
X131062787Y-98250258D01*
X130991971Y-98152786D01*
X130847213Y-98008028D01*
X130681613Y-97887715D01*
X130681612Y-97887714D01*
X130681610Y-97887713D01*
X130624653Y-97858691D01*
X130499223Y-97794781D01*
X130304534Y-97731522D01*
X130129995Y-97703878D01*
X130102352Y-97699500D01*
X129897648Y-97699500D01*
X129873329Y-97703351D01*
X129695465Y-97731522D01*
X129500776Y-97794781D01*
X129318387Y-97887714D01*
X129196884Y-97975990D01*
X129131078Y-97999469D01*
X129063024Y-97983643D01*
X129014330Y-97933537D01*
X129000000Y-97875671D01*
X129000000Y-93299500D01*
X129019685Y-93232461D01*
X129072489Y-93186706D01*
X129124000Y-93175500D01*
X129475764Y-93175500D01*
X129475766Y-93175500D01*
X129622135Y-93136281D01*
X129698636Y-93092112D01*
X129760636Y-93075500D01*
X130975764Y-93075500D01*
X130975766Y-93075500D01*
X131122135Y-93036281D01*
X131128220Y-93032767D01*
X131156200Y-93016614D01*
X131218201Y-93000000D01*
X132376000Y-93000000D01*
X132443039Y-93019685D01*
G37*
%TD.AperFunction*%
%TD*%
%TA.AperFunction,Conductor*%
%TO.N,Net-(R5-Pad1)*%
G36*
X115393101Y-76005022D02*
G01*
X115405431Y-76008642D01*
X115464210Y-76046414D01*
X115493237Y-76109969D01*
X115494500Y-76127620D01*
X115494500Y-76874118D01*
X115474815Y-76941157D01*
X115451620Y-76967902D01*
X115451346Y-76968139D01*
X115396597Y-76995518D01*
X115389039Y-76997163D01*
X115362668Y-77000000D01*
X107141830Y-77000000D01*
X107106889Y-76994975D01*
X107091890Y-76990570D01*
X107033144Y-76952827D01*
X107031957Y-76951458D01*
X107004477Y-76896583D01*
X107002832Y-76889021D01*
X107000000Y-76862668D01*
X107000000Y-76141829D01*
X107005023Y-76106893D01*
X107009427Y-76091895D01*
X107047172Y-76033144D01*
X107048541Y-76031957D01*
X107103420Y-76004477D01*
X107110979Y-76002833D01*
X107137332Y-76000000D01*
X115358170Y-76000000D01*
X115393101Y-76005022D01*
G37*
%TD.AperFunction*%
%TD*%
%TA.AperFunction,Conductor*%
%TO.N,Net-(D1-A)*%
G36*
X122873120Y-54000096D02*
G01*
X122877958Y-54000286D01*
X122880959Y-54000462D01*
X122881889Y-54000499D01*
X122881902Y-54000500D01*
X122881908Y-54000500D01*
X123118086Y-54000500D01*
X123118098Y-54000500D01*
X123118110Y-54000499D01*
X123119037Y-54000462D01*
X123121992Y-54000287D01*
X123126924Y-54000094D01*
X123131746Y-54000000D01*
X126858170Y-54000000D01*
X126893106Y-54005023D01*
X126908104Y-54009427D01*
X126966855Y-54047172D01*
X126968042Y-54048541D01*
X126995518Y-54103402D01*
X126997163Y-54110960D01*
X127000000Y-54137331D01*
X127000000Y-76858170D01*
X126994975Y-76893114D01*
X126990570Y-76908112D01*
X126952827Y-76966855D01*
X126951458Y-76968042D01*
X126896597Y-76995518D01*
X126889039Y-76997163D01*
X126862668Y-77000000D01*
X126141830Y-77000000D01*
X126106890Y-76994976D01*
X126094560Y-76991355D01*
X126035784Y-76953578D01*
X126006761Y-76890021D01*
X126005500Y-76872379D01*
X126005500Y-76124010D01*
X126005500Y-76124000D01*
X126000710Y-76079446D01*
X126000000Y-76066193D01*
X126000000Y-55000000D01*
X116141830Y-55000000D01*
X116106889Y-54994975D01*
X116091890Y-54990570D01*
X116033144Y-54952827D01*
X116031957Y-54951458D01*
X116004477Y-54896583D01*
X116002832Y-54889021D01*
X116000000Y-54862668D01*
X116000000Y-54141829D01*
X116005023Y-54106893D01*
X116009427Y-54091895D01*
X116047172Y-54033144D01*
X116048541Y-54031957D01*
X116103420Y-54004477D01*
X116110979Y-54002833D01*
X116137332Y-54000000D01*
X122868254Y-54000000D01*
X122873120Y-54000096D01*
G37*
%TD.AperFunction*%
%TD*%
M02*
