%TF.GenerationSoftware,KiCad,Pcbnew,7.0.10*%
%TF.CreationDate,2025-01-02T12:32:12+01:00*%
%TF.ProjectId,Datron 1281 Referenz,44617472-6f6e-4203-9132-383120526566,1*%
%TF.SameCoordinates,Original*%
%TF.FileFunction,Soldermask,Top*%
%TF.FilePolarity,Negative*%
%FSLAX46Y46*%
G04 Gerber Fmt 4.6, Leading zero omitted, Abs format (unit mm)*
G04 Created by KiCad (PCBNEW 7.0.10) date 2025-01-02 12:32:12*
%MOMM*%
%LPD*%
G01*
G04 APERTURE LIST*
G04 Aperture macros list*
%AMHorizOval*
0 Thick line with rounded ends*
0 $1 width*
0 $2 $3 position (X,Y) of the first rounded end (center of the circle)*
0 $4 $5 position (X,Y) of the second rounded end (center of the circle)*
0 Add line between two ends*
20,1,$1,$2,$3,$4,$5,0*
0 Add two circle primitives to create the rounded ends*
1,1,$1,$2,$3*
1,1,$1,$4,$5*%
G04 Aperture macros list end*
%ADD10C,0.150000*%
%ADD11C,2.000000*%
%ADD12R,1.228000X1.228000*%
%ADD13C,1.228000*%
%ADD14C,1.600000*%
%ADD15C,1.400000*%
%ADD16O,1.400000X1.400000*%
%ADD17R,1.500000X1.500000*%
%ADD18O,1.500000X1.500000*%
%ADD19HorizOval,1.200000X0.184776X0.076537X-0.184776X-0.076537X0*%
%ADD20HorizOval,1.200000X0.000000X0.000000X0.000000X0.000000X0*%
%ADD21R,1.000000X1.500000*%
%ADD22R,1.050000X1.500000*%
%ADD23O,1.050000X1.500000*%
G04 APERTURE END LIST*
D10*
X130200000Y-79700000D02*
G75*
G03*
X129600000Y-79700000I-300000J0D01*
G01*
X129600000Y-79700000D02*
G75*
G03*
X130200000Y-79700000I300000J0D01*
G01*
X123042453Y-87841791D02*
X123060000Y-87890000D01*
X123060000Y-96190000D01*
X123055477Y-96215652D01*
X123022500Y-96254952D01*
X122971976Y-96263861D01*
X122927547Y-96238209D01*
X122910000Y-96190000D01*
X122910000Y-87890000D01*
X122914523Y-87864348D01*
X122947500Y-87825048D01*
X122998024Y-87816139D01*
X123042453Y-87841791D01*
X114504585Y-106125808D02*
X114506536Y-106125286D01*
X114509524Y-106126679D01*
X114525652Y-106129523D01*
X114538195Y-106140048D01*
X114553033Y-106146967D01*
X118953033Y-110546967D01*
X118955703Y-110550781D01*
X118957453Y-110551791D01*
X118958580Y-110554889D01*
X118967974Y-110568304D01*
X118969401Y-110584617D01*
X118975000Y-110600000D01*
X118975000Y-113800000D01*
X118974191Y-113804585D01*
X118974714Y-113806536D01*
X118973320Y-113809524D01*
X118970477Y-113825652D01*
X118959951Y-113838195D01*
X118953033Y-113853033D01*
X117553033Y-115253033D01*
X117549219Y-115255703D01*
X117548209Y-115257453D01*
X117545108Y-115258581D01*
X117531696Y-115267973D01*
X117515384Y-115269400D01*
X117500000Y-115275000D01*
X116731066Y-115275000D01*
X115775000Y-116231066D01*
X115775000Y-117600000D01*
X115774191Y-117604585D01*
X115774714Y-117606536D01*
X115773320Y-117609524D01*
X115770477Y-117625652D01*
X115759951Y-117638195D01*
X115753033Y-117653033D01*
X115253033Y-118153033D01*
X115249219Y-118155703D01*
X115248209Y-118157453D01*
X115245108Y-118158581D01*
X115231696Y-118167973D01*
X115215384Y-118169400D01*
X115200000Y-118175000D01*
X113550000Y-118175000D01*
X113545414Y-118174191D01*
X113543464Y-118174714D01*
X113540475Y-118173320D01*
X113524348Y-118170477D01*
X113511804Y-118159951D01*
X113496967Y-118153033D01*
X112846967Y-117503033D01*
X112844296Y-117499219D01*
X112842547Y-117498209D01*
X112841418Y-117495108D01*
X112832027Y-117481696D01*
X112830599Y-117465384D01*
X112825000Y-117450000D01*
X112825000Y-111031066D01*
X110580346Y-108786412D01*
X110577675Y-108782598D01*
X110575926Y-108781588D01*
X110574797Y-108778487D01*
X110565406Y-108765075D01*
X110563978Y-108748763D01*
X110558379Y-108733379D01*
X110558379Y-107088648D01*
X110559187Y-107084062D01*
X110558665Y-107082112D01*
X110560058Y-107079123D01*
X110562902Y-107062996D01*
X110573427Y-107050452D01*
X110580346Y-107035615D01*
X111468994Y-106146967D01*
X111472807Y-106144296D01*
X111473818Y-106142547D01*
X111476918Y-106141418D01*
X111490331Y-106132027D01*
X111506641Y-106130600D01*
X111522027Y-106125000D01*
X114500000Y-106125000D01*
X114504585Y-106125808D01*
X118184524Y-81596679D02*
X118200652Y-81599523D01*
X118213195Y-81610048D01*
X118228033Y-81616967D01*
X118845000Y-82305000D01*
X118845000Y-83275000D01*
X116800000Y-85325000D01*
X116875000Y-85695000D01*
X116872156Y-85711126D01*
X116872444Y-85714411D01*
X116871285Y-85716065D01*
X116870477Y-85720652D01*
X116855963Y-85737948D01*
X116843018Y-85756437D01*
X116839704Y-85757324D01*
X116837500Y-85759952D01*
X116815264Y-85763872D01*
X116793463Y-85769714D01*
X116790355Y-85768265D01*
X116786976Y-85768861D01*
X116767422Y-85757571D01*
X116746967Y-85748033D01*
X116668934Y-85440000D01*
X113997434Y-85440000D01*
X113181967Y-84615599D01*
X113150000Y-82225405D01*
X113117236Y-82237102D01*
X113707372Y-81646967D01*
X113671186Y-81614296D01*
X113672196Y-81612547D01*
X113675294Y-81611419D01*
X113688709Y-81602026D01*
X113705022Y-81600598D01*
X113700405Y-81615000D01*
X118155000Y-81615000D01*
X118179585Y-81595808D01*
X118181536Y-81595286D01*
X118184524Y-81596679D01*
X113106985Y-82240762D02*
X113050808Y-82260819D01*
X113050286Y-82258869D01*
X113051679Y-82255880D01*
X113054523Y-82239753D01*
X113065048Y-82227209D01*
X113106985Y-82240762D01*
X113111967Y-82242372D02*
X113106985Y-82240762D01*
X113117236Y-82237102D01*
X113111967Y-82242372D01*
X118838033Y-110616967D02*
X118860000Y-113720000D01*
X118899191Y-113704585D01*
X118899714Y-113706536D01*
X118898320Y-113709524D01*
X118895477Y-113725652D01*
X118884951Y-113738195D01*
X118878033Y-113753033D01*
X117478033Y-115153033D01*
X117474219Y-115155703D01*
X117473209Y-115157453D01*
X117470108Y-115158581D01*
X117456696Y-115167973D01*
X117440384Y-115169400D01*
X117445000Y-115155000D01*
X116676066Y-115155000D01*
X115650000Y-116181066D01*
X115650000Y-117550000D01*
X115699191Y-117504585D01*
X115699714Y-117506536D01*
X115698320Y-117509524D01*
X115695477Y-117525652D01*
X115684951Y-117538195D01*
X115678033Y-117553033D01*
X115178033Y-118053033D01*
X115174219Y-118055703D01*
X115173209Y-118057453D01*
X115170108Y-118058581D01*
X115156696Y-118067973D01*
X115140384Y-118069400D01*
X115125000Y-118075000D01*
X113550000Y-118053033D01*
X112921967Y-117403033D01*
X112950000Y-110950000D01*
X110690000Y-108700000D01*
X110700000Y-107100000D01*
X111540000Y-106260000D01*
X114459420Y-106257419D01*
X118838033Y-110616967D01*
X121972486Y-89950000D02*
X130850000Y-89950000D01*
X131450000Y-90550000D01*
X131444453Y-91878033D01*
X130891420Y-92450000D01*
X130538005Y-92449714D01*
X130485016Y-92450000D01*
X129450000Y-92450000D01*
X129350000Y-92550000D01*
X125600000Y-92550000D01*
X121250000Y-96850000D01*
X121250000Y-98400000D01*
X122172486Y-99350000D01*
X123810354Y-99350000D01*
X125450000Y-97750000D01*
X127350000Y-97750000D01*
X128044453Y-98421967D01*
X128066420Y-99900000D01*
X127750000Y-100200000D01*
X127750000Y-107500000D01*
X127200000Y-108000000D01*
X125700000Y-108000000D01*
X123800000Y-106150000D01*
X114553033Y-106146967D01*
X114550000Y-97800000D01*
X113050000Y-96300000D01*
X113050000Y-92750000D01*
X113950000Y-91850000D01*
X116950000Y-91850000D01*
X119950000Y-88850000D01*
X120900000Y-88850000D01*
X121972486Y-89950000D01*
X114853553Y-106200000D02*
G75*
G03*
X114146447Y-106200000I-353553J0D01*
G01*
X114146447Y-106200000D02*
G75*
G03*
X114853553Y-106200000I353553J0D01*
G01*
X121100000Y-79500000D02*
G75*
G03*
X120300000Y-79500000I-400000J0D01*
G01*
X120300000Y-79500000D02*
G75*
G03*
X121100000Y-79500000I400000J0D01*
G01*
X113750652Y-78829523D02*
X113789952Y-78862500D01*
X113798861Y-78913024D01*
X113773209Y-78957453D01*
X113725000Y-78960000D01*
X112616471Y-78965000D01*
X111865000Y-79716471D01*
X111860000Y-80590000D01*
X111874191Y-80604585D01*
X111874714Y-80606536D01*
X111873320Y-80609524D01*
X111870477Y-80625652D01*
X111859951Y-80638195D01*
X111853033Y-80653033D01*
X110753033Y-81753033D01*
X110749219Y-81755703D01*
X110748209Y-81757453D01*
X110745108Y-81758581D01*
X110731696Y-81767973D01*
X110715384Y-81769400D01*
X110700000Y-81775000D01*
X106510000Y-81775000D01*
X106505414Y-81774191D01*
X106503464Y-81774714D01*
X106500475Y-81773320D01*
X106484348Y-81770477D01*
X106471804Y-81759951D01*
X106456967Y-81753033D01*
X104696967Y-79993033D01*
X104682027Y-79971696D01*
X104677555Y-79920589D01*
X104706982Y-79878563D01*
X104756536Y-79865286D01*
X104793033Y-79906967D01*
X106541066Y-81655000D01*
X110698934Y-81645000D01*
X111745000Y-80578934D01*
X111725000Y-79695405D01*
X111725808Y-79690819D01*
X111725286Y-79688869D01*
X111726679Y-79685880D01*
X111729523Y-79669753D01*
X111740048Y-79657209D01*
X111746967Y-79642372D01*
X112542372Y-78846967D01*
X112546186Y-78844296D01*
X112547196Y-78842547D01*
X112550294Y-78841419D01*
X112563709Y-78832026D01*
X112580022Y-78830598D01*
X112595405Y-78825000D01*
X113725000Y-78825000D01*
X113750652Y-78829523D01*
X120738033Y-79436967D02*
X121763033Y-80461967D01*
X121765703Y-80465781D01*
X121767453Y-80466791D01*
X121768580Y-80469889D01*
X121777974Y-80483304D01*
X121779401Y-80499617D01*
X121785000Y-80515000D01*
X121785000Y-86583934D01*
X123038033Y-87836967D01*
X123052973Y-87858304D01*
X123057444Y-87909411D01*
X123028018Y-87951437D01*
X122978463Y-87964714D01*
X122931967Y-87943033D01*
X121656967Y-86668033D01*
X121654296Y-86664219D01*
X121652547Y-86663209D01*
X121651418Y-86660108D01*
X121642027Y-86646696D01*
X121640599Y-86630384D01*
X121635000Y-86615000D01*
X121635000Y-80546066D01*
X120631967Y-79543033D01*
X120617027Y-79521696D01*
X120612555Y-79470589D01*
X120641982Y-79428563D01*
X120691536Y-79415286D01*
X120738033Y-79436967D01*
X114754951Y-106200000D02*
G75*
G03*
X114245049Y-106200000I-254951J0D01*
G01*
X114245049Y-106200000D02*
G75*
G03*
X114754951Y-106200000I254951J0D01*
G01*
X125619023Y-79018768D02*
X125730530Y-79075584D01*
X125819023Y-79164077D01*
X125875839Y-79275584D01*
X125884274Y-79401983D01*
X127331482Y-80849191D01*
X128639350Y-80859191D01*
X129555877Y-79942663D01*
X129514993Y-79822798D01*
X129495416Y-79699191D01*
X129514993Y-79575584D01*
X129571809Y-79464077D01*
X129660302Y-79375584D01*
X129771809Y-79318768D01*
X129895416Y-79299191D01*
X130019023Y-79318768D01*
X130130530Y-79375584D01*
X130219023Y-79464077D01*
X130275839Y-79575584D01*
X130295416Y-79699191D01*
X130275839Y-79822798D01*
X130219023Y-79934305D01*
X130130530Y-80022798D01*
X130019023Y-80079614D01*
X129895416Y-80099191D01*
X129771809Y-80079614D01*
X129671943Y-80028729D01*
X128733449Y-80967224D01*
X128729635Y-80969894D01*
X128728625Y-80971644D01*
X128725524Y-80972772D01*
X128712112Y-80982164D01*
X128695800Y-80983591D01*
X128680416Y-80989191D01*
X127310416Y-80989191D01*
X127305832Y-80988382D01*
X127303880Y-80988906D01*
X127300888Y-80987511D01*
X127284764Y-80984668D01*
X127272221Y-80974143D01*
X127257383Y-80967224D01*
X125854613Y-79564454D01*
X125819023Y-79634305D01*
X125730530Y-79722798D01*
X125619023Y-79779614D01*
X125495416Y-79799191D01*
X125371809Y-79779614D01*
X125260302Y-79722798D01*
X125171809Y-79634305D01*
X125114993Y-79522798D01*
X125095416Y-79399191D01*
X125114993Y-79275584D01*
X125171809Y-79164077D01*
X125260302Y-79075584D01*
X125371809Y-79018768D01*
X125495416Y-78999191D01*
X125619023Y-79018768D01*
X129957453Y-79651791D02*
X129975000Y-79700000D01*
X129975000Y-83979720D01*
X129974191Y-83984306D01*
X129974714Y-83986257D01*
X129973320Y-83989245D01*
X129970477Y-84005372D01*
X129959951Y-84017915D01*
X129953033Y-84032753D01*
X126875000Y-87110786D01*
X126875000Y-88068934D01*
X128631066Y-89825000D01*
X130900000Y-89825000D01*
X130904585Y-89825808D01*
X130906536Y-89825286D01*
X130909524Y-89826679D01*
X130925652Y-89829523D01*
X130938195Y-89840048D01*
X130953033Y-89846967D01*
X131553033Y-90446967D01*
X131555703Y-90450780D01*
X131557453Y-90451791D01*
X131558581Y-90454891D01*
X131567973Y-90468304D01*
X131569399Y-90484614D01*
X131575000Y-90500000D01*
X131575000Y-91900000D01*
X131574191Y-91904586D01*
X131574714Y-91906537D01*
X131573320Y-91909525D01*
X131570477Y-91925652D01*
X131559951Y-91938195D01*
X131553033Y-91953033D01*
X130953033Y-92553033D01*
X130949219Y-92555703D01*
X130948209Y-92557453D01*
X130945108Y-92558581D01*
X130931696Y-92567973D01*
X130915384Y-92569400D01*
X130900000Y-92575000D01*
X129531066Y-92575000D01*
X129453033Y-92653033D01*
X129449219Y-92655703D01*
X129448209Y-92657453D01*
X129445108Y-92658581D01*
X129431696Y-92667973D01*
X129415384Y-92669400D01*
X129400000Y-92675000D01*
X127875000Y-92675000D01*
X127875000Y-107500000D01*
X127874191Y-107504585D01*
X127874714Y-107506536D01*
X127873320Y-107509524D01*
X127870477Y-107525652D01*
X127859951Y-107538195D01*
X127853033Y-107553033D01*
X127278033Y-108128033D01*
X127274219Y-108130703D01*
X127273209Y-108132453D01*
X127270108Y-108133581D01*
X127256696Y-108142973D01*
X127240384Y-108144400D01*
X127225000Y-108150000D01*
X125675000Y-108150000D01*
X125670413Y-108149191D01*
X125668463Y-108149714D01*
X125665474Y-108148320D01*
X125649348Y-108145477D01*
X125636804Y-108134951D01*
X125621967Y-108128033D01*
X123768934Y-106275000D01*
X122527943Y-106275000D01*
X118975000Y-109827943D01*
X118975000Y-113800000D01*
X118974191Y-113804585D01*
X118974714Y-113806536D01*
X118973320Y-113809524D01*
X118970477Y-113825652D01*
X118959951Y-113838195D01*
X118953033Y-113853033D01*
X117553033Y-115253033D01*
X117549219Y-115255703D01*
X117548209Y-115257453D01*
X117545108Y-115258581D01*
X117531696Y-115267973D01*
X117515384Y-115269400D01*
X117500000Y-115275000D01*
X116731066Y-115275000D01*
X115775000Y-116231066D01*
X115775000Y-117600000D01*
X115774191Y-117604585D01*
X115774714Y-117606536D01*
X115773320Y-117609524D01*
X115770477Y-117625652D01*
X115759951Y-117638195D01*
X115753033Y-117653033D01*
X115253033Y-118153033D01*
X115249219Y-118155703D01*
X115248209Y-118157453D01*
X115245108Y-118158581D01*
X115231696Y-118167973D01*
X115215384Y-118169400D01*
X115200000Y-118175000D01*
X113600000Y-118175000D01*
X113595413Y-118174191D01*
X113593463Y-118174714D01*
X113590474Y-118173320D01*
X113574348Y-118170477D01*
X113561804Y-118159951D01*
X113546967Y-118153033D01*
X112846967Y-117453033D01*
X112844296Y-117449219D01*
X112842547Y-117448209D01*
X112841418Y-117445108D01*
X112832027Y-117431696D01*
X112830599Y-117415384D01*
X112825000Y-117400000D01*
X112825000Y-115923528D01*
X112417508Y-115516036D01*
X112414837Y-115512222D01*
X112413088Y-115511212D01*
X112411959Y-115508111D01*
X112402568Y-115494699D01*
X112401140Y-115478387D01*
X112395541Y-115463003D01*
X112395541Y-108583378D01*
X112396349Y-108578792D01*
X112395827Y-108576842D01*
X112397220Y-108573853D01*
X112400064Y-108557726D01*
X112410589Y-108545182D01*
X112417508Y-108530345D01*
X114425000Y-106522853D01*
X114425000Y-106200000D01*
X114429523Y-106174348D01*
X114462500Y-106135048D01*
X114513024Y-106126139D01*
X114557453Y-106151791D01*
X114575000Y-106200000D01*
X114575000Y-106553919D01*
X114574191Y-106558505D01*
X114574714Y-106560456D01*
X114573320Y-106563444D01*
X114570477Y-106579571D01*
X114559951Y-106592114D01*
X114553033Y-106606952D01*
X112545541Y-108614444D01*
X112545541Y-115431937D01*
X112953033Y-115839429D01*
X112955703Y-115843243D01*
X112957453Y-115844253D01*
X112958580Y-115847351D01*
X112967974Y-115860766D01*
X112969401Y-115877079D01*
X112975000Y-115892462D01*
X112975000Y-117368934D01*
X113631066Y-118025000D01*
X115168934Y-118025000D01*
X115625000Y-117568934D01*
X115625000Y-116200000D01*
X115625808Y-116195414D01*
X115625286Y-116193464D01*
X115626679Y-116190475D01*
X115629523Y-116174348D01*
X115640048Y-116161804D01*
X115646967Y-116146967D01*
X116646967Y-115146967D01*
X116650781Y-115144296D01*
X116651791Y-115142547D01*
X116654889Y-115141419D01*
X116668304Y-115132026D01*
X116684617Y-115130598D01*
X116700000Y-115125000D01*
X117468934Y-115125000D01*
X118825000Y-113768934D01*
X118825000Y-109796877D01*
X118825808Y-109792291D01*
X118825286Y-109790341D01*
X118826679Y-109787352D01*
X118829523Y-109771225D01*
X118840048Y-109758681D01*
X118846967Y-109743844D01*
X122443844Y-106146967D01*
X122447657Y-106144296D01*
X122448668Y-106142547D01*
X122451768Y-106141418D01*
X122465181Y-106132027D01*
X122481491Y-106130600D01*
X122496877Y-106125000D01*
X123800000Y-106125000D01*
X123804585Y-106125808D01*
X123806536Y-106125286D01*
X123809524Y-106126679D01*
X123825652Y-106129523D01*
X123838195Y-106140048D01*
X123853033Y-106146967D01*
X125706066Y-108000000D01*
X127193934Y-108000000D01*
X127725000Y-107468934D01*
X127725000Y-92600000D01*
X127726717Y-92590258D01*
X127726139Y-92586976D01*
X127727805Y-92584090D01*
X127729523Y-92574348D01*
X127742048Y-92559420D01*
X127751791Y-92542547D01*
X127758149Y-92540232D01*
X127762500Y-92535048D01*
X127781691Y-92531663D01*
X127800000Y-92525000D01*
X129368934Y-92525000D01*
X129446967Y-92446967D01*
X129450780Y-92444296D01*
X129451791Y-92442547D01*
X129454891Y-92441418D01*
X129468304Y-92432027D01*
X129484614Y-92430600D01*
X129500000Y-92425000D01*
X130868934Y-92425000D01*
X131425000Y-91868934D01*
X131425000Y-90531066D01*
X130868934Y-89975000D01*
X128600000Y-89975000D01*
X128595413Y-89974191D01*
X128593463Y-89974714D01*
X128590474Y-89973320D01*
X128574348Y-89970477D01*
X128561804Y-89959951D01*
X128546967Y-89953033D01*
X126746967Y-88153033D01*
X126744296Y-88149219D01*
X126742547Y-88148209D01*
X126741418Y-88145108D01*
X126732027Y-88131696D01*
X126730599Y-88115384D01*
X126725000Y-88100000D01*
X126725000Y-87079720D01*
X126725808Y-87075134D01*
X126725286Y-87073184D01*
X126726679Y-87070195D01*
X126729523Y-87054068D01*
X126740048Y-87041524D01*
X126746967Y-87026687D01*
X129825000Y-83948654D01*
X129825000Y-79700000D01*
X129829523Y-79674348D01*
X129862500Y-79635048D01*
X129913024Y-79626139D01*
X129957453Y-79651791D01*
X117010000Y-85519468D02*
X117008971Y-85660169D01*
X120050000Y-88749468D01*
X120900000Y-88724468D01*
X120904585Y-88725276D01*
X120906536Y-88724754D01*
X120909524Y-88726147D01*
X120925652Y-88728991D01*
X120938195Y-88739516D01*
X120953033Y-88746435D01*
X122031066Y-89824468D01*
X130900000Y-89824468D01*
X130904585Y-89825276D01*
X130906536Y-89824754D01*
X130909524Y-89826147D01*
X130925652Y-89828991D01*
X130938195Y-89839516D01*
X130953033Y-89846435D01*
X131553033Y-90446435D01*
X131555703Y-90450248D01*
X131557453Y-90451259D01*
X131558581Y-90454359D01*
X131567973Y-90467772D01*
X131569399Y-90484082D01*
X131575000Y-90499468D01*
X131575000Y-91899468D01*
X131574191Y-91904054D01*
X131574714Y-91906005D01*
X131573320Y-91908993D01*
X131570477Y-91925120D01*
X131559951Y-91937663D01*
X131553033Y-91952501D01*
X130953033Y-92552501D01*
X130949219Y-92555171D01*
X130948209Y-92556921D01*
X130945108Y-92558049D01*
X130931696Y-92567441D01*
X130915384Y-92568868D01*
X130900000Y-92574468D01*
X130553122Y-92574468D01*
X130548535Y-92573659D01*
X130546585Y-92574182D01*
X130543596Y-92572788D01*
X130527470Y-92569945D01*
X130514926Y-92559419D01*
X130500089Y-92552501D01*
X130497056Y-92549468D01*
X129502944Y-92549468D01*
X129399911Y-92652501D01*
X129396097Y-92655171D01*
X129395087Y-92656921D01*
X129391986Y-92658049D01*
X129378574Y-92667441D01*
X129362262Y-92668868D01*
X129346878Y-92674468D01*
X125631066Y-92674468D01*
X121375000Y-96930534D01*
X121375000Y-98368402D01*
X122231066Y-99224468D01*
X123768934Y-99224468D01*
X125346967Y-97646435D01*
X125350781Y-97643764D01*
X125351791Y-97642015D01*
X125354889Y-97640887D01*
X125368304Y-97631494D01*
X125384617Y-97630066D01*
X125400000Y-97624468D01*
X127400000Y-97624468D01*
X127404585Y-97625276D01*
X127406536Y-97624754D01*
X127409524Y-97626147D01*
X127425652Y-97628991D01*
X127438195Y-97639516D01*
X127453033Y-97646435D01*
X128153033Y-98346435D01*
X128155703Y-98350248D01*
X128157453Y-98351259D01*
X128158581Y-98354359D01*
X128167973Y-98367772D01*
X128169399Y-98384082D01*
X128175000Y-98399468D01*
X128175000Y-98949468D01*
X129762500Y-98924468D01*
X130000000Y-98924468D01*
X130025652Y-98928991D01*
X130064952Y-98961968D01*
X130073861Y-99012492D01*
X130048209Y-99056921D01*
X130000000Y-99074468D01*
X128175000Y-99074468D01*
X128175000Y-99899468D01*
X128174191Y-99904054D01*
X128174714Y-99906005D01*
X128173320Y-99908993D01*
X128170477Y-99925120D01*
X128159951Y-99937663D01*
X128153033Y-99952501D01*
X127875000Y-100230534D01*
X127875000Y-107499468D01*
X127874191Y-107504053D01*
X127874714Y-107506004D01*
X127873320Y-107508992D01*
X127870477Y-107525120D01*
X127859951Y-107537663D01*
X127853033Y-107552501D01*
X127278033Y-108127501D01*
X127274219Y-108130171D01*
X127273209Y-108131921D01*
X127270108Y-108133049D01*
X127256696Y-108142441D01*
X127240384Y-108143868D01*
X127225000Y-108149468D01*
X125675000Y-108149468D01*
X125670413Y-108148659D01*
X125668463Y-108149182D01*
X125665474Y-108147788D01*
X125649348Y-108144945D01*
X125636804Y-108134419D01*
X125621967Y-108127501D01*
X123768934Y-106274468D01*
X121175000Y-106274468D01*
X121175000Y-108868402D01*
X123053033Y-110746435D01*
X123055703Y-110750249D01*
X123057453Y-110751259D01*
X123058580Y-110754357D01*
X123067974Y-110767772D01*
X123069401Y-110784085D01*
X123075000Y-110799468D01*
X123075000Y-114999468D01*
X123070477Y-115025120D01*
X123037500Y-115064420D01*
X122986976Y-115073329D01*
X122942547Y-115047677D01*
X122925000Y-114999468D01*
X122925000Y-110830534D01*
X121046967Y-108952501D01*
X121044296Y-108948687D01*
X121042547Y-108947677D01*
X121041418Y-108944576D01*
X121032027Y-108931164D01*
X121030599Y-108914852D01*
X121025000Y-108899468D01*
X121025000Y-106274468D01*
X121000000Y-106274468D01*
X114500000Y-106274468D01*
X114490258Y-106272750D01*
X114486976Y-106273329D01*
X114484090Y-106271662D01*
X114474348Y-106269945D01*
X114459420Y-106257419D01*
X114442547Y-106247677D01*
X114440232Y-106241318D01*
X114435048Y-106236968D01*
X114431663Y-106217776D01*
X114425000Y-106199468D01*
X114425000Y-97830534D01*
X112946967Y-96352501D01*
X112944296Y-96348687D01*
X112942547Y-96347677D01*
X112941418Y-96344576D01*
X112932027Y-96331164D01*
X112930599Y-96314852D01*
X112925000Y-96299468D01*
X112925000Y-92699468D01*
X112925808Y-92694882D01*
X112925286Y-92692932D01*
X112926679Y-92689943D01*
X112929523Y-92673816D01*
X112940048Y-92661272D01*
X112946967Y-92646435D01*
X113846967Y-91746435D01*
X113850780Y-91743764D01*
X113851791Y-91742015D01*
X113854891Y-91740886D01*
X113868304Y-91731495D01*
X113884614Y-91730068D01*
X113900000Y-91724468D01*
X116868934Y-91724468D01*
X119646967Y-88946435D01*
X119846967Y-88746435D01*
X119950000Y-88799468D01*
X119851791Y-88742015D01*
X119854889Y-88740887D01*
X116930000Y-85780000D01*
X116791978Y-85859928D01*
X116760000Y-85860000D01*
X116570000Y-85729468D01*
X116560000Y-85519468D01*
X116730000Y-85389468D01*
X116900000Y-85389468D01*
X117010000Y-85519468D01*
X124350000Y-97500000D02*
G75*
G03*
X121650000Y-97500000I-1350000J0D01*
G01*
X121650000Y-97500000D02*
G75*
G03*
X124350000Y-97500000I1350000J0D01*
G01*
X124453444Y-97500000D02*
G75*
G03*
X121546556Y-97500000I-1453444J0D01*
G01*
X121546556Y-97500000D02*
G75*
G03*
X124453444Y-97500000I1453444J0D01*
G01*
X124051190Y-97500000D02*
G75*
G03*
X121948810Y-97500000I-1051190J0D01*
G01*
X121948810Y-97500000D02*
G75*
G03*
X124051190Y-97500000I1051190J0D01*
G01*
X117553033Y-106146967D02*
X118253033Y-106846967D01*
X118255703Y-106850780D01*
X118257453Y-106851791D01*
X118258581Y-106854891D01*
X118267973Y-106868304D01*
X118269399Y-106884614D01*
X118275000Y-106900000D01*
X118275000Y-107820815D01*
X118274191Y-107825401D01*
X118274714Y-107827352D01*
X118273320Y-107830340D01*
X118270477Y-107846467D01*
X118259951Y-107859010D01*
X118253033Y-107873848D01*
X117653033Y-108473848D01*
X117649219Y-108476518D01*
X117648209Y-108478268D01*
X117645108Y-108479396D01*
X117631696Y-108488788D01*
X117615384Y-108490215D01*
X117600000Y-108495815D01*
X116720815Y-108495815D01*
X116716231Y-108495006D01*
X116714279Y-108495530D01*
X116711287Y-108494135D01*
X116695163Y-108491292D01*
X116682620Y-108480767D01*
X116667782Y-108473848D01*
X114446967Y-106253033D01*
X114432027Y-106231696D01*
X114427555Y-106180589D01*
X114456982Y-106138563D01*
X114506536Y-106125286D01*
X114553033Y-106146967D01*
X116751881Y-108345815D01*
X117568934Y-108345815D01*
X118125000Y-107789749D01*
X118125000Y-106931066D01*
X117446967Y-106253033D01*
X117432027Y-106231696D01*
X117427555Y-106180589D01*
X117456982Y-106138563D01*
X117506536Y-106125286D01*
X117553033Y-106146967D01*
X108057453Y-84938758D02*
X108075000Y-84986967D01*
X108075000Y-87655901D01*
X113053033Y-92633934D01*
X113055703Y-92637748D01*
X113057453Y-92638758D01*
X113058580Y-92641856D01*
X113067974Y-92655271D01*
X113069401Y-92671584D01*
X113075000Y-92686967D01*
X113075000Y-96286967D01*
X113070477Y-96312619D01*
X113037500Y-96351919D01*
X112986976Y-96360828D01*
X112942547Y-96335176D01*
X112925000Y-96286967D01*
X112925000Y-92718033D01*
X107946967Y-87740000D01*
X107944296Y-87736186D01*
X107942547Y-87735176D01*
X107941418Y-87732075D01*
X107932027Y-87718663D01*
X107930599Y-87702351D01*
X107925000Y-87686967D01*
X107925000Y-84986967D01*
X107929523Y-84961315D01*
X107962500Y-84922015D01*
X108013024Y-84913106D01*
X108057453Y-84938758D01*
X119737479Y-85525808D02*
X119739430Y-85525286D01*
X119742418Y-85526679D01*
X119758546Y-85529523D01*
X119771089Y-85540048D01*
X119785927Y-85546967D01*
X120323490Y-86084530D01*
X120326160Y-86088344D01*
X120327910Y-86089354D01*
X120329037Y-86092452D01*
X120338431Y-86105867D01*
X120339858Y-86122180D01*
X120345457Y-86137563D01*
X120345457Y-87229543D01*
X120344648Y-87234129D01*
X120345171Y-87236080D01*
X120343777Y-87239068D01*
X120340934Y-87255195D01*
X120330408Y-87267738D01*
X120323490Y-87282576D01*
X118553033Y-89053033D01*
X118549219Y-89055703D01*
X118548209Y-89057453D01*
X118545108Y-89058581D01*
X118531696Y-89067973D01*
X118515384Y-89069400D01*
X118500000Y-89075000D01*
X117497434Y-89075000D01*
X117492850Y-89074191D01*
X117490898Y-89074715D01*
X117487906Y-89073320D01*
X117471782Y-89070477D01*
X117459239Y-89059952D01*
X117444401Y-89053033D01*
X116746967Y-88355599D01*
X116744296Y-88351785D01*
X116742547Y-88350775D01*
X116741418Y-88347674D01*
X116732027Y-88334262D01*
X116730599Y-88317950D01*
X116725000Y-88302566D01*
X116725000Y-86300000D01*
X116725000Y-86100000D01*
X116725000Y-86000000D01*
X116729523Y-85974348D01*
X116762500Y-85935048D01*
X116813024Y-85926139D01*
X116857453Y-85951791D01*
X116875000Y-86000000D01*
X116875000Y-86100000D01*
X116875000Y-86300000D01*
X116875000Y-88271500D01*
X117528500Y-88925000D01*
X118468934Y-88925000D01*
X120195457Y-87198477D01*
X120195457Y-86168629D01*
X119701828Y-85675000D01*
X116800000Y-85675000D01*
X116774348Y-85670477D01*
X116735048Y-85637500D01*
X116726139Y-85586976D01*
X116751791Y-85542547D01*
X116800000Y-85525000D01*
X119732894Y-85525000D01*
X119737479Y-85525808D01*
X125557453Y-79351791D02*
X125575000Y-79400000D01*
X125575000Y-86500000D01*
X125574191Y-86504585D01*
X125574714Y-86506536D01*
X125573320Y-86509524D01*
X125570477Y-86525652D01*
X125559951Y-86538195D01*
X125553033Y-86553033D01*
X124153033Y-87953033D01*
X124149219Y-87955703D01*
X124148209Y-87957453D01*
X124145108Y-87958581D01*
X124131696Y-87967973D01*
X124115384Y-87969400D01*
X124100000Y-87975000D01*
X123000000Y-87975000D01*
X122974348Y-87970477D01*
X122935048Y-87937500D01*
X122926139Y-87886976D01*
X122951791Y-87842547D01*
X123000000Y-87825000D01*
X124068934Y-87825000D01*
X125425000Y-86468934D01*
X125425000Y-79400000D01*
X125429523Y-79374348D01*
X125462500Y-79335048D01*
X125513024Y-79326139D01*
X125557453Y-79351791D01*
X118179585Y-81500808D02*
X118181536Y-81500286D01*
X118184524Y-81501679D01*
X118200652Y-81504523D01*
X118213195Y-81515048D01*
X118228033Y-81521967D01*
X118953033Y-82246967D01*
X118955703Y-82250781D01*
X118957453Y-82251791D01*
X118958580Y-82254889D01*
X118967974Y-82268304D01*
X118969401Y-82284617D01*
X118975000Y-82300000D01*
X118975000Y-83300000D01*
X118974191Y-83304586D01*
X118974714Y-83306537D01*
X118973320Y-83309525D01*
X118970477Y-83325652D01*
X118959951Y-83338195D01*
X118953033Y-83353033D01*
X116875000Y-85431066D01*
X116875000Y-85600000D01*
X116872156Y-85616126D01*
X116872444Y-85619411D01*
X116871285Y-85621065D01*
X116870477Y-85625652D01*
X116855963Y-85642948D01*
X116843018Y-85661437D01*
X116839704Y-85662324D01*
X116837500Y-85664952D01*
X116815264Y-85668872D01*
X116793463Y-85674714D01*
X116790355Y-85673265D01*
X116786976Y-85673861D01*
X116767422Y-85662571D01*
X116746967Y-85653033D01*
X116668934Y-85575000D01*
X113997434Y-85575000D01*
X113992848Y-85574191D01*
X113990898Y-85574714D01*
X113987909Y-85573320D01*
X113971782Y-85570477D01*
X113959238Y-85559951D01*
X113944401Y-85553033D01*
X113071967Y-84680599D01*
X113069296Y-84676785D01*
X113067547Y-84675775D01*
X113066418Y-84672674D01*
X113057027Y-84659262D01*
X113055599Y-84642950D01*
X113050000Y-84627566D01*
X113050000Y-82170405D01*
X113050808Y-82165819D01*
X113050286Y-82163869D01*
X113051679Y-82160880D01*
X113054523Y-82144753D01*
X113065048Y-82132209D01*
X113071967Y-82117372D01*
X113667372Y-81521967D01*
X113671186Y-81519296D01*
X113672196Y-81517547D01*
X113675294Y-81516419D01*
X113688709Y-81507026D01*
X113705022Y-81505598D01*
X113720405Y-81500000D01*
X118175000Y-81500000D01*
X118179585Y-81500808D01*
X120950000Y-79500000D02*
G75*
G03*
X120450000Y-79500000I-250000J0D01*
G01*
X120450000Y-79500000D02*
G75*
G03*
X120950000Y-79500000I250000J0D01*
G01*
X125853553Y-79400000D02*
G75*
G03*
X125146447Y-79400000I-353553J0D01*
G01*
X125146447Y-79400000D02*
G75*
G03*
X125853553Y-79400000I353553J0D01*
G01*
X113015652Y-96229523D02*
X113054952Y-96262500D01*
X113063861Y-96313024D01*
X113038209Y-96357453D01*
X112990000Y-96375000D01*
X107531066Y-96375000D01*
X100293033Y-103613033D01*
X100271696Y-103627973D01*
X100220589Y-103632445D01*
X100178563Y-103603018D01*
X100165286Y-103553464D01*
X100186967Y-103506967D01*
X107446967Y-96246967D01*
X107450780Y-96244296D01*
X107451791Y-96242547D01*
X107454891Y-96241418D01*
X107468304Y-96232027D01*
X107484614Y-96230600D01*
X107500000Y-96225000D01*
X112990000Y-96225000D01*
X113015652Y-96229523D01*
X123054420Y-98738758D02*
X123071967Y-98786967D01*
X123071967Y-100686967D01*
X123071158Y-100691550D01*
X123071682Y-100693503D01*
X123070287Y-100696494D01*
X123067444Y-100712619D01*
X123056919Y-100725161D01*
X123050000Y-100740000D01*
X117550000Y-106240000D01*
X117528663Y-106254940D01*
X117477556Y-106259412D01*
X117435530Y-106229985D01*
X117422253Y-106180431D01*
X117443934Y-106133934D01*
X122921967Y-100655901D01*
X122921967Y-98786967D01*
X122926490Y-98761315D01*
X122959467Y-98722015D01*
X123009991Y-98713106D01*
X123054420Y-98738758D01*
X130050000Y-79700000D02*
G75*
G03*
X129750000Y-79700000I-150000J0D01*
G01*
X129750000Y-79700000D02*
G75*
G03*
X130050000Y-79700000I150000J0D01*
G01*
X104800000Y-79886967D02*
X108050000Y-83136967D01*
X108052670Y-83140780D01*
X108054420Y-83141791D01*
X108055548Y-83144891D01*
X108064940Y-83158304D01*
X108066366Y-83174614D01*
X108071967Y-83190000D01*
X108071967Y-85000000D01*
X108067444Y-85025652D01*
X108034467Y-85064952D01*
X107983943Y-85073861D01*
X107939514Y-85048209D01*
X107921967Y-85000000D01*
X107921967Y-83221066D01*
X104693934Y-79993033D01*
X104678994Y-79971696D01*
X104674522Y-79920589D01*
X104703949Y-79878563D01*
X104753503Y-79865286D01*
X104800000Y-79886967D01*
X125754951Y-79400000D02*
G75*
G03*
X125245049Y-79400000I-254951J0D01*
G01*
X125245049Y-79400000D02*
G75*
G03*
X125754951Y-79400000I254951J0D01*
G01*
X108009643Y-84926735D02*
X108013024Y-84926139D01*
X108032579Y-84937429D01*
X108053033Y-84946967D01*
X108171195Y-85065129D01*
X114440128Y-85065129D01*
X114444713Y-85065937D01*
X114446664Y-85065415D01*
X114449652Y-85066808D01*
X114465780Y-85069652D01*
X114478323Y-85080177D01*
X114493161Y-85087096D01*
X115153033Y-85746968D01*
X115155703Y-85750782D01*
X115157453Y-85751792D01*
X115158580Y-85754890D01*
X115167974Y-85768305D01*
X115169401Y-85784618D01*
X115175000Y-85800001D01*
X115160000Y-86670000D01*
X115431066Y-86945000D01*
X116725000Y-86945000D01*
X116725000Y-85970000D01*
X116450000Y-85750000D01*
X116450000Y-85450000D01*
X116700000Y-85250000D01*
X116950000Y-85250000D01*
X117150000Y-85450000D01*
X117150000Y-85750000D01*
X116850000Y-85970000D01*
X116870000Y-88600000D01*
X116874191Y-88604586D01*
X116874714Y-88606537D01*
X116873320Y-88609525D01*
X116870477Y-88625652D01*
X116859951Y-88638195D01*
X116843033Y-88633033D01*
X115143033Y-90333033D01*
X115149219Y-90355703D01*
X115148209Y-90357453D01*
X115145108Y-90358581D01*
X115131696Y-90367973D01*
X115115384Y-90369400D01*
X115100000Y-90375000D01*
X110600000Y-90375000D01*
X110595413Y-90374191D01*
X110593463Y-90374714D01*
X110590474Y-90373320D01*
X110574348Y-90370477D01*
X110561804Y-90359951D01*
X110546967Y-90353033D01*
X107946967Y-87753033D01*
X107944296Y-87749219D01*
X107942547Y-87748209D01*
X107941418Y-87745108D01*
X107932027Y-87731696D01*
X107930599Y-87715384D01*
X107925000Y-87700000D01*
X107925000Y-85181066D01*
X108055000Y-85181066D01*
X108055000Y-87688934D01*
X110631066Y-90245000D01*
X115068934Y-90225000D01*
X116725000Y-88568934D01*
X116725000Y-87075000D01*
X115400000Y-87075000D01*
X115395413Y-87074191D01*
X115393463Y-87074714D01*
X115390474Y-87073320D01*
X115374348Y-87070477D01*
X115361804Y-87059951D01*
X115346967Y-87053033D01*
X115046967Y-86753033D01*
X115044296Y-86749219D01*
X115042547Y-86748209D01*
X115041418Y-86745108D01*
X115032027Y-86731696D01*
X115030599Y-86715384D01*
X115025000Y-86700000D01*
X115045000Y-85831067D01*
X114429062Y-85205129D01*
X108140129Y-85205129D01*
X108135542Y-85214320D01*
X108133592Y-85214843D01*
X108130603Y-85213449D01*
X108114477Y-85210606D01*
X108101933Y-85200080D01*
X108087096Y-85193162D01*
X108075000Y-85181066D01*
X108055000Y-85181066D01*
X107925000Y-85181066D01*
X107925000Y-85000000D01*
X107927842Y-84983877D01*
X107927555Y-84980589D01*
X107928714Y-84978932D01*
X107929523Y-84974348D01*
X107944033Y-84957054D01*
X107956982Y-84938563D01*
X107960295Y-84937675D01*
X107962500Y-84935048D01*
X107984733Y-84931127D01*
X108006536Y-84925286D01*
X108009643Y-84926735D01*
X120104585Y-78825808D02*
X120106536Y-78825286D01*
X120109524Y-78826679D01*
X120125652Y-78829523D01*
X120138195Y-78840048D01*
X120153033Y-78846967D01*
X120450000Y-79150000D01*
X120900000Y-79150000D01*
X121050000Y-79450000D01*
X121050000Y-79600000D01*
X120800000Y-79850000D01*
X120500000Y-79850000D01*
X120350000Y-79700000D01*
X120350000Y-79250000D01*
X120068934Y-78965000D01*
X114755000Y-78965000D01*
X114749348Y-78970477D01*
X114710048Y-78937500D01*
X114701139Y-78886976D01*
X114726791Y-78842547D01*
X114775000Y-78825000D01*
X120100000Y-78825000D01*
X120104585Y-78825808D01*
X124201041Y-97500000D02*
G75*
G03*
X121798959Y-97500000I-1201041J0D01*
G01*
X121798959Y-97500000D02*
G75*
G03*
X124201041Y-97500000I1201041J0D01*
G01*
D11*
%TO.C,J4*%
X108000000Y-100000000D03*
%TD*%
D12*
%TO.C,IC1*%
X113000000Y-65500000D03*
D13*
X113826000Y-67214000D03*
X115540000Y-68040000D03*
X117255000Y-67214000D03*
X118080000Y-65500000D03*
X117255000Y-63785000D03*
X115540000Y-62960000D03*
X113826000Y-63785000D03*
%TD*%
D14*
%TO.C,C8*%
X131000000Y-82250000D03*
X131000000Y-84750000D03*
%TD*%
D15*
%TO.C,R11*%
X128000000Y-87560000D03*
D16*
X128000000Y-79940000D03*
%TD*%
D14*
%TO.C,C4*%
X117250000Y-117000000D03*
X119750000Y-117000000D03*
%TD*%
D11*
%TO.C,J3*%
X108000000Y-52500000D03*
%TD*%
D15*
%TO.C,R2*%
X101750000Y-118310000D03*
D16*
X101750000Y-110690000D03*
%TD*%
D11*
%TO.C,J6*%
X123000000Y-107500000D03*
%TD*%
%TO.C,J5*%
X108000000Y-80000000D03*
%TD*%
%TO.C,J1*%
X123000000Y-52500000D03*
%TD*%
D17*
%TO.C,D3*%
X102500000Y-87394670D03*
D18*
X102500000Y-82314670D03*
%TD*%
D19*
%TO.C,IC2*%
X111765248Y-107365522D03*
D20*
X113345541Y-108945815D03*
X115580412Y-108945815D03*
X117160705Y-107365522D03*
X117160704Y-105130651D03*
X115580412Y-103550358D03*
X113345541Y-103550358D03*
X111765248Y-105130651D03*
%TD*%
D11*
%TO.C,J2*%
X108000000Y-115000000D03*
%TD*%
D14*
%TO.C,C7*%
X126000000Y-114750000D03*
X126000000Y-117250000D03*
%TD*%
%TO.C,C6*%
X115750000Y-99000000D03*
X113250000Y-99000000D03*
%TD*%
D21*
%TO.C,JP1*%
X116850000Y-95750000D03*
X118150000Y-95750000D03*
%TD*%
D11*
%TO.C,J10*%
X123000000Y-115000000D03*
%TD*%
D17*
%TO.C,D2*%
X99605330Y-90000000D03*
D18*
X104685330Y-90000000D03*
%TD*%
D14*
%TO.C,C5*%
X129000000Y-107000000D03*
X126500000Y-107000000D03*
%TD*%
D15*
%TO.C,R6*%
X102500000Y-103560000D03*
D16*
X102500000Y-95940000D03*
%TD*%
D15*
%TO.C,R7*%
X104750000Y-95940000D03*
D16*
X104750000Y-103560000D03*
%TD*%
D14*
%TO.C,C3*%
X126500000Y-104000000D03*
X129000000Y-104000000D03*
%TD*%
D11*
%TO.C,J8*%
X108000000Y-107500000D03*
%TD*%
D21*
%TO.C,JP2*%
X116850000Y-93250000D03*
X118150000Y-93250000D03*
%TD*%
D15*
%TO.C,R9*%
X100250000Y-103560000D03*
D16*
X100250000Y-95940000D03*
%TD*%
D19*
%TO.C,U1*%
X114000000Y-86500000D03*
D20*
X115580293Y-88080293D03*
X117815164Y-88080293D03*
X119395457Y-86500000D03*
X119395456Y-84265129D03*
X117815164Y-82684836D03*
X115580293Y-82684836D03*
X114000000Y-84265129D03*
%TD*%
D17*
%TO.C,D1*%
X110685000Y-112750000D03*
D18*
X115765000Y-112750000D03*
%TD*%
D11*
%TO.C,J13*%
X108000000Y-90000000D03*
%TD*%
D14*
%TO.C,C9*%
X130000000Y-99000000D03*
X130000000Y-96500000D03*
%TD*%
D17*
%TO.C,D4*%
X99800000Y-87394670D03*
D18*
X99800000Y-82314670D03*
%TD*%
D11*
%TO.C,J11*%
X123000000Y-80000000D03*
%TD*%
D14*
%TO.C,C2*%
X130000000Y-91250000D03*
X130000000Y-93750000D03*
%TD*%
D11*
%TO.C,J7*%
X123000000Y-97500000D03*
%TD*%
D14*
%TO.C,C1*%
X111750000Y-116500000D03*
X114250000Y-116500000D03*
%TD*%
D11*
%TO.C,J9*%
X108000000Y-85000000D03*
%TD*%
%TO.C,J12*%
X123000000Y-82500000D03*
%TD*%
D15*
%TO.C,R1*%
X104500000Y-118310000D03*
D16*
X104500000Y-110690000D03*
%TD*%
D15*
%TO.C,R4*%
X129000000Y-117310000D03*
D16*
X129000000Y-109690000D03*
%TD*%
D15*
%TO.C,R10*%
X104750000Y-79940000D03*
D16*
X104750000Y-87560000D03*
%TD*%
D15*
%TO.C,R3*%
X126500000Y-91440000D03*
D16*
X126500000Y-99060000D03*
%TD*%
D15*
%TO.C,R8*%
X110250000Y-101310000D03*
D16*
X110250000Y-93690000D03*
%TD*%
D21*
%TO.C,JP3*%
X100900000Y-93000000D03*
X102200000Y-93000000D03*
X103500000Y-93000000D03*
%TD*%
D15*
%TO.C,R5*%
X110250000Y-80190000D03*
D16*
X110250000Y-87810000D03*
%TD*%
D22*
%TO.C,Q1*%
X101980000Y-107500000D03*
D23*
X103250000Y-107500000D03*
X104520000Y-107500000D03*
%TD*%
M02*
