%TF.GenerationSoftware,KiCad,Pcbnew,7.0.10*%
%TF.CreationDate,2025-01-02T12:32:12+01:00*%
%TF.ProjectId,Datron 1281 Referenz,44617472-6f6e-4203-9132-383120526566,1*%
%TF.SameCoordinates,Original*%
%TF.FileFunction,Copper,L2,Bot*%
%TF.FilePolarity,Positive*%
%FSLAX46Y46*%
G04 Gerber Fmt 4.6, Leading zero omitted, Abs format (unit mm)*
G04 Created by KiCad (PCBNEW 7.0.10) date 2025-01-02 12:32:12*
%MOMM*%
%LPD*%
G01*
G04 APERTURE LIST*
G04 Aperture macros list*
%AMHorizOval*
0 Thick line with rounded ends*
0 $1 width*
0 $2 $3 position (X,Y) of the first rounded end (center of the circle)*
0 $4 $5 position (X,Y) of the second rounded end (center of the circle)*
0 Add line between two ends*
20,1,$1,$2,$3,$4,$5,0*
0 Add two circle primitives to create the rounded ends*
1,1,$1,$2,$3*
1,1,$1,$4,$5*%
G04 Aperture macros list end*
%TA.AperFunction,ComponentPad*%
%ADD10C,2.000000*%
%TD*%
%TA.AperFunction,ComponentPad*%
%ADD11R,1.228000X1.228000*%
%TD*%
%TA.AperFunction,ComponentPad*%
%ADD12C,1.228000*%
%TD*%
%TA.AperFunction,ComponentPad*%
%ADD13C,1.600000*%
%TD*%
%TA.AperFunction,ComponentPad*%
%ADD14C,1.400000*%
%TD*%
%TA.AperFunction,ComponentPad*%
%ADD15O,1.400000X1.400000*%
%TD*%
%TA.AperFunction,ComponentPad*%
%ADD16R,1.500000X1.500000*%
%TD*%
%TA.AperFunction,ComponentPad*%
%ADD17O,1.500000X1.500000*%
%TD*%
%TA.AperFunction,ComponentPad*%
%ADD18HorizOval,1.200000X0.184776X0.076537X-0.184776X-0.076537X0*%
%TD*%
%TA.AperFunction,ComponentPad*%
%ADD19HorizOval,1.200000X0.000000X0.000000X0.000000X0.000000X0*%
%TD*%
%TA.AperFunction,ComponentPad*%
%ADD20R,1.050000X1.500000*%
%TD*%
%TA.AperFunction,ComponentPad*%
%ADD21O,1.050000X1.500000*%
%TD*%
%TA.AperFunction,ViaPad*%
%ADD22C,0.800000*%
%TD*%
%TA.AperFunction,Conductor*%
%ADD23C,0.750000*%
%TD*%
%TA.AperFunction,Conductor*%
%ADD24C,0.500000*%
%TD*%
%TA.AperFunction,Conductor*%
%ADD25C,0.400000*%
%TD*%
%TA.AperFunction,Conductor*%
%ADD26C,0.150000*%
%TD*%
%TA.AperFunction,Conductor*%
%ADD27C,0.300000*%
%TD*%
G04 APERTURE END LIST*
D10*
%TO.P,J4,1,Pin_1*%
%TO.N,Net-(J4-Pin_1)*%
X108000000Y-100000000D03*
%TD*%
D11*
%TO.P,IC1,1,HEATER_POSITIVE*%
%TO.N,Net-(IC1-HEATER_POSITIVE)*%
X113000000Y-65500000D03*
D12*
%TO.P,IC1,2,HEATER_NEGATIVE*%
%TO.N,Net-(D1-K)*%
X113826000Y-67214000D03*
%TO.P,IC1,3,ZENER_POSITIVE*%
%TO.N,Net-(IC1-ZENER_POSITIVE)*%
X115540000Y-68040000D03*
%TO.P,IC1,4,SUBSTRATE_AND_ZENER_NEGATIVE*%
%TO.N,Net-(IC1-SUBSTRATE_AND_ZENER_NEGATIVE)*%
X117255000Y-67214000D03*
%TO.P,IC1,5,TEMPERATURE_COMPENSATING_TRANSISTOR_COLLECTOR*%
%TO.N,Net-(IC1-TEMPERATURE_COMPENSATING_TRANSISTOR_COLLECTOR)*%
X118080000Y-65500000D03*
%TO.P,IC1,6,TEMPERATURE_SENSING_TRANSISTOR_BASE*%
%TO.N,Net-(IC1-TEMPERATURE_SENSING_TRANSISTOR_BASE)*%
X117255000Y-63785000D03*
%TO.P,IC1,7,EMITTER_OF_SENSING_AND_COMPENSATING_TRANSISTORS*%
%TO.N,Net-(IC1-EMITTER_OF_SENSING_AND_COMPENSATING_TRANSISTORS)*%
X115540000Y-62960000D03*
%TO.P,IC1,8,COLLECTOR_OF_SENSING_TRANSISTOR*%
%TO.N,Net-(D1-A)*%
X113826000Y-63785000D03*
%TD*%
D13*
%TO.P,C8,1*%
%TO.N,Net-(J11-Pin_1)*%
X131000000Y-82250000D03*
%TO.P,C8,2*%
%TO.N,Net-(IC1-EMITTER_OF_SENSING_AND_COMPENSATING_TRANSISTORS)*%
X131000000Y-84750000D03*
%TD*%
D14*
%TO.P,R11,1*%
%TO.N,Net-(J11-Pin_1)*%
X128000000Y-87560000D03*
D15*
%TO.P,R11,2*%
%TO.N,Net-(D1-A)*%
X128000000Y-79940000D03*
%TD*%
D13*
%TO.P,C4,1*%
%TO.N,-15V*%
X117250000Y-117000000D03*
%TO.P,C4,2*%
%TO.N,GND*%
X119750000Y-117000000D03*
%TD*%
D10*
%TO.P,J3,1,Pin_1*%
%TO.N,Net-(D1-K)*%
X108000000Y-52500000D03*
%TD*%
D14*
%TO.P,R2,1*%
%TO.N,Net-(J2-Pin_1)*%
X101750000Y-118310000D03*
D15*
%TO.P,R2,2*%
%TO.N,Net-(D1-K)*%
X101750000Y-110690000D03*
%TD*%
D10*
%TO.P,J6,1,Pin_1*%
%TO.N,+15V*%
X123000000Y-107500000D03*
%TD*%
%TO.P,J5,1,Pin_1*%
%TO.N,Net-(IC1-TEMPERATURE_SENSING_TRANSISTOR_BASE)*%
X108000000Y-80000000D03*
%TD*%
%TO.P,J1,1,Pin_1*%
%TO.N,Net-(IC1-HEATER_POSITIVE)*%
X123000000Y-52500000D03*
%TD*%
D16*
%TO.P,D3,1,K*%
%TO.N,Net-(D2-A)*%
X102500000Y-87394670D03*
D17*
%TO.P,D3,2,A*%
%TO.N,Net-(D3-A)*%
X102500000Y-82314670D03*
%TD*%
D18*
%TO.P,IC2,1,OUTPUT_A*%
%TO.N,Net-(IC2-OUTPUT_A)*%
X111765248Y-107365522D03*
D19*
%TO.P,IC2,2,-IN_A*%
%TO.N,Net-(IC2--IN_A)*%
X113345541Y-108945815D03*
%TO.P,IC2,3,+IN_A*%
%TO.N,Net-(D1-A)*%
X115580412Y-108945815D03*
%TO.P,IC2,4,V-*%
%TO.N,-15V*%
X117160705Y-107365522D03*
%TO.P,IC2,5,+IN_B*%
%TO.N,Net-(IC2-+IN_B)*%
X117160704Y-105130651D03*
%TO.P,IC2,6,-IN_B*%
%TO.N,Net-(IC2--IN_B)*%
X115580412Y-103550358D03*
%TO.P,IC2,7,OUTPUT_B*%
%TO.N,Net-(IC2-OUTPUT_B)*%
X113345541Y-103550358D03*
%TO.P,IC2,8,V+*%
%TO.N,+15V*%
X111765248Y-105130651D03*
%TD*%
D10*
%TO.P,J2,1,Pin_1*%
%TO.N,Net-(J2-Pin_1)*%
X108000000Y-115000000D03*
%TD*%
D13*
%TO.P,C7,1*%
%TO.N,+15V*%
X126000000Y-114750000D03*
%TO.P,C7,2*%
%TO.N,GND*%
X126000000Y-117250000D03*
%TD*%
%TO.P,C6,1*%
%TO.N,Net-(IC2--IN_B)*%
X115750000Y-99000000D03*
%TO.P,C6,2*%
%TO.N,Net-(IC2-OUTPUT_B)*%
X113250000Y-99000000D03*
%TD*%
D10*
%TO.P,J10,1,Pin_1*%
%TO.N,Net-(J10-Pin_1)*%
X123000000Y-115000000D03*
%TD*%
D16*
%TO.P,D2,1,K*%
%TO.N,Net-(D2-K)*%
X99605330Y-90000000D03*
D17*
%TO.P,D2,2,A*%
%TO.N,Net-(D2-A)*%
X104685330Y-90000000D03*
%TD*%
D13*
%TO.P,C5,1*%
%TO.N,Net-(C5-Pad1)*%
X129000000Y-107000000D03*
%TO.P,C5,2*%
%TO.N,Net-(IC2-+IN_B)*%
X126500000Y-107000000D03*
%TD*%
D14*
%TO.P,R6,1*%
%TO.N,Net-(IC2-OUTPUT_B)*%
X102500000Y-103560000D03*
D15*
%TO.P,R6,2*%
%TO.N,Net-(D2-A)*%
X102500000Y-95940000D03*
%TD*%
D14*
%TO.P,R7,1*%
%TO.N,Net-(D2-K)*%
X104750000Y-95940000D03*
D15*
%TO.P,R7,2*%
%TO.N,+15V*%
X104750000Y-103560000D03*
%TD*%
D13*
%TO.P,C3,1*%
%TO.N,Net-(D1-A)*%
X126500000Y-104000000D03*
%TO.P,C3,2*%
%TO.N,GND*%
X129000000Y-104000000D03*
%TD*%
D10*
%TO.P,J8,1,Pin_1*%
%TO.N,-15V*%
X108000000Y-107500000D03*
%TD*%
D14*
%TO.P,R9,1*%
%TO.N,Net-(J10-Pin_1)*%
X100250000Y-103560000D03*
D15*
%TO.P,R9,2*%
%TO.N,Net-(D2-K)*%
X100250000Y-95940000D03*
%TD*%
D18*
%TO.P,U1,1*%
%TO.N,Net-(IC1-TEMPERATURE_COMPENSATING_TRANSISTOR_COLLECTOR)*%
X114000000Y-86500000D03*
D19*
%TO.P,U1,2*%
%TO.N,Net-(IC1-SUBSTRATE_AND_ZENER_NEGATIVE)*%
X115580293Y-88080293D03*
%TO.P,U1,3*%
%TO.N,Net-(D3-A)*%
X117815164Y-88080293D03*
%TO.P,U1,4*%
%TO.N,Net-(IC1-EMITTER_OF_SENSING_AND_COMPENSATING_TRANSISTORS)*%
X119395457Y-86500000D03*
%TO.P,U1,5*%
%TO.N,Net-(IC1-TEMPERATURE_SENSING_TRANSISTOR_BASE)*%
X119395456Y-84265129D03*
%TO.P,U1,6*%
%TO.N,Net-(J11-Pin_1)*%
X117815164Y-82684836D03*
%TO.P,U1,7*%
%TO.N,Net-(D2-K)*%
X115580293Y-82684836D03*
%TO.P,U1,8*%
%TO.N,Net-(IC1-ZENER_POSITIVE)*%
X114000000Y-84265129D03*
%TD*%
D16*
%TO.P,D1,1,K*%
%TO.N,Net-(D1-K)*%
X110685000Y-112750000D03*
D17*
%TO.P,D1,2,A*%
%TO.N,Net-(D1-A)*%
X115765000Y-112750000D03*
%TD*%
D10*
%TO.P,J13,1,Pin_1*%
%TO.N,Net-(J13-Pin_1)*%
X108000000Y-90000000D03*
%TD*%
D13*
%TO.P,C9,1*%
%TO.N,Net-(J10-Pin_1)*%
X130000000Y-99000000D03*
%TO.P,C9,2*%
%TO.N,GND*%
X130000000Y-96500000D03*
%TD*%
D16*
%TO.P,D4,1,K*%
%TO.N,Net-(D2-K)*%
X99800000Y-87394670D03*
D17*
%TO.P,D4,2,A*%
%TO.N,Net-(D3-A)*%
X99800000Y-82314670D03*
%TD*%
D10*
%TO.P,J11,1,Pin_1*%
%TO.N,Net-(J11-Pin_1)*%
X123000000Y-80000000D03*
%TD*%
D13*
%TO.P,C2,1*%
%TO.N,Net-(IC1-TEMPERATURE_SENSING_TRANSISTOR_BASE)*%
X130000000Y-91250000D03*
%TO.P,C2,2*%
%TO.N,GND*%
X130000000Y-93750000D03*
%TD*%
D10*
%TO.P,J7,1,Pin_1*%
%TO.N,GND*%
X123000000Y-97500000D03*
%TD*%
D13*
%TO.P,C1,1*%
%TO.N,Net-(IC2-OUTPUT_A)*%
X111750000Y-116500000D03*
%TO.P,C1,2*%
%TO.N,Net-(IC2--IN_A)*%
X114250000Y-116500000D03*
%TD*%
D10*
%TO.P,J9,1,Pin_1*%
%TO.N,Net-(J10-Pin_1)*%
X108000000Y-85000000D03*
%TD*%
%TO.P,J12,1,Pin_1*%
%TO.N,Net-(IC1-EMITTER_OF_SENSING_AND_COMPENSATING_TRANSISTORS)*%
X123000000Y-82500000D03*
%TD*%
D14*
%TO.P,R1,1*%
%TO.N,Net-(J4-Pin_1)*%
X104500000Y-118310000D03*
D15*
%TO.P,R1,2*%
%TO.N,Net-(Q1-S)*%
X104500000Y-110690000D03*
%TD*%
D14*
%TO.P,R4,1*%
%TO.N,GND*%
X129000000Y-117310000D03*
D15*
%TO.P,R4,2*%
%TO.N,Net-(C5-Pad1)*%
X129000000Y-109690000D03*
%TD*%
D14*
%TO.P,R10,1*%
%TO.N,Net-(J10-Pin_1)*%
X104750000Y-79940000D03*
D15*
%TO.P,R10,2*%
%TO.N,Net-(D3-A)*%
X104750000Y-87560000D03*
%TD*%
D14*
%TO.P,R3,1*%
%TO.N,Net-(IC1-TEMPERATURE_SENSING_TRANSISTOR_BASE)*%
X126500000Y-91440000D03*
D15*
%TO.P,R3,2*%
%TO.N,Net-(IC2--IN_A)*%
X126500000Y-99060000D03*
%TD*%
D14*
%TO.P,R8,1*%
%TO.N,-15V*%
X110250000Y-101310000D03*
D15*
%TO.P,R8,2*%
%TO.N,Net-(D3-A)*%
X110250000Y-93690000D03*
%TD*%
D14*
%TO.P,R5,1*%
%TO.N,Net-(IC1-SUBSTRATE_AND_ZENER_NEGATIVE)*%
X110250000Y-80190000D03*
D15*
%TO.P,R5,2*%
%TO.N,Net-(JP1-A)*%
X110250000Y-87810000D03*
%TD*%
D20*
%TO.P,Q1,1,D*%
%TO.N,Net-(D1-K)*%
X101980000Y-107500000D03*
D21*
%TO.P,Q1,2,G*%
%TO.N,Net-(IC2-OUTPUT_A)*%
X103250000Y-107500000D03*
%TO.P,Q1,3,S*%
%TO.N,Net-(Q1-S)*%
X104520000Y-107500000D03*
%TD*%
D22*
%TO.N,Net-(D1-A)*%
X122500000Y-102750000D03*
%TO.N,Net-(IC1-TEMPERATURE_SENSING_TRANSISTOR_BASE)*%
X121000000Y-90000000D03*
%TO.N,Net-(IC1-EMITTER_OF_SENSING_AND_COMPENSATING_TRANSISTORS)*%
X124000000Y-86500000D03*
%TO.N,Net-(IC2-+IN_B)*%
X118150000Y-95750000D03*
%TO.N,Net-(D3-A)*%
X103500000Y-93000000D03*
%TO.N,Net-(IC1-ZENER_POSITIVE)*%
X114000000Y-82250000D03*
%TO.N,Net-(IC1-SUBSTRATE_AND_ZENER_NEGATIVE)*%
X112250000Y-82150000D03*
X112800000Y-79650000D03*
%TO.N,Net-(IC1-TEMPERATURE_COMPENSATING_TRANSISTOR_COLLECTOR)*%
X111750000Y-89000000D03*
X115775000Y-86249065D03*
X115475000Y-92725000D03*
X118800000Y-78200000D03*
X118815682Y-79710794D03*
%TO.N,Net-(J10-Pin_1)*%
X125500000Y-79400000D03*
X116800000Y-85600000D03*
X120700000Y-79500000D03*
X129900000Y-79700000D03*
X114500000Y-106200000D03*
%TO.N,Net-(JP1-A)*%
X115900000Y-94800000D03*
%TD*%
D23*
%TO.N,+15V*%
X110194597Y-103560000D02*
X111765248Y-105130651D01*
X104750000Y-103560000D02*
X110194597Y-103560000D01*
%TO.N,-15V*%
X108000000Y-112475000D02*
X108000000Y-107500000D01*
X115350000Y-118900000D02*
X111800000Y-118900000D01*
X109600000Y-116700000D02*
X109600000Y-114075000D01*
X109600000Y-114075000D02*
X108000000Y-112475000D01*
X117250000Y-117000000D02*
X115350000Y-118900000D01*
X111800000Y-118900000D02*
X109600000Y-116700000D01*
D24*
%TO.N,Net-(IC2-OUTPUT_A)*%
X111765248Y-107365522D02*
X111885000Y-107485274D01*
X105666142Y-104750000D02*
X109149726Y-104750000D01*
X111885000Y-107485274D02*
X111885000Y-116365000D01*
X109149726Y-104750000D02*
X111765248Y-107365522D01*
X111885000Y-116365000D02*
X111750000Y-116500000D01*
X103250000Y-107166142D02*
X105666142Y-104750000D01*
X103250000Y-107500000D02*
X103250000Y-107166142D01*
%TO.N,Net-(IC2--IN_A)*%
X115712057Y-114500000D02*
X117000000Y-113212057D01*
X113345541Y-114500000D02*
X113345541Y-115595541D01*
X117000000Y-113212057D02*
X117000000Y-110900000D01*
X113345541Y-114500000D02*
X115712057Y-114500000D01*
X117000000Y-110900000D02*
X126500000Y-101400000D01*
X113345541Y-108945815D02*
X113345541Y-114500000D01*
X113345541Y-115595541D02*
X114250000Y-116500000D01*
X126500000Y-101400000D02*
X126500000Y-99060000D01*
D25*
%TO.N,Net-(D1-A)*%
X113826000Y-63785000D02*
X112500000Y-62459000D01*
D24*
X115580412Y-108945815D02*
X117817462Y-108945815D01*
D25*
X126500000Y-78440000D02*
X128000000Y-79940000D01*
X126500000Y-54500000D02*
X126500000Y-78440000D01*
X123000000Y-58500000D02*
X124000000Y-57500000D01*
D24*
X117817462Y-108945815D02*
X122500000Y-104263277D01*
D25*
X112500000Y-59000000D02*
X113000000Y-58500000D01*
X112500000Y-62459000D02*
X112500000Y-59000000D01*
X124000000Y-57500000D02*
X124000000Y-54500000D01*
X113000000Y-58500000D02*
X123000000Y-58500000D01*
D24*
X122500000Y-104263277D02*
X122500000Y-102750000D01*
D25*
X125000000Y-87900000D02*
X125000000Y-100250000D01*
X128000000Y-84900000D02*
X125000000Y-87900000D01*
X128000000Y-79940000D02*
X128000000Y-84900000D01*
X125000000Y-100250000D02*
X122500000Y-102750000D01*
X124000000Y-54500000D02*
X126500000Y-54500000D01*
D24*
%TO.N,Net-(IC1-TEMPERATURE_SENSING_TRANSISTOR_BASE)*%
X117000000Y-80500000D02*
X118500000Y-80500000D01*
D25*
X116700000Y-80500000D02*
X117000000Y-80500000D01*
X116700000Y-76500000D02*
X116700000Y-80500000D01*
X122500000Y-76500000D02*
X116700000Y-76500000D01*
D24*
X120000000Y-83660585D02*
X119395456Y-84265129D01*
X121000000Y-85869673D02*
X119395456Y-84265129D01*
D25*
X122500000Y-63000000D02*
X122500000Y-76500000D01*
D24*
X111660000Y-81340000D02*
X109340000Y-81340000D01*
X129810000Y-91440000D02*
X130000000Y-91250000D01*
X109340000Y-81340000D02*
X108000000Y-80000000D01*
X126500000Y-91440000D02*
X129810000Y-91440000D01*
D25*
X122000000Y-62500000D02*
X122500000Y-63000000D01*
X117255000Y-63785000D02*
X118540000Y-62500000D01*
D24*
X112500000Y-80500000D02*
X111660000Y-81340000D01*
X117000000Y-80500000D02*
X112500000Y-80500000D01*
D25*
X118540000Y-62500000D02*
X122000000Y-62500000D01*
D24*
X118500000Y-80500000D02*
X120000000Y-82000000D01*
X120000000Y-82000000D02*
X120000000Y-83660585D01*
X121000000Y-90000000D02*
X121000000Y-85869673D01*
%TO.N,Net-(IC2--IN_B)*%
X115580412Y-99169588D02*
X115750000Y-99000000D01*
X115580412Y-103550358D02*
X115580412Y-99169588D01*
%TO.N,Net-(IC2-OUTPUT_B)*%
X112450001Y-98200001D02*
X113250000Y-99000000D01*
X102500000Y-102570051D02*
X106870050Y-98200001D01*
X113345541Y-99095541D02*
X113250000Y-99000000D01*
X102500000Y-103560000D02*
X102500000Y-102570051D01*
X106870050Y-98200001D02*
X112450001Y-98200001D01*
X113345541Y-103550358D02*
X113345541Y-99095541D01*
%TO.N,Net-(IC1-EMITTER_OF_SENSING_AND_COMPENSATING_TRANSISTORS)*%
X123000000Y-85500000D02*
X123000000Y-82500000D01*
X124000000Y-86500000D02*
X123000000Y-85500000D01*
%TO.N,Net-(IC2-+IN_B)*%
X118150000Y-95750000D02*
X117500000Y-96400000D01*
X117500000Y-96400000D02*
X117500000Y-104791355D01*
X117500000Y-104791355D02*
X117160704Y-105130651D01*
D25*
%TO.N,Net-(D1-K)*%
X102900000Y-78800000D02*
X104500000Y-77200000D01*
X110537692Y-107537692D02*
X108750000Y-105750000D01*
X101400000Y-78800000D02*
X102900000Y-78800000D01*
X110685000Y-112750000D02*
X110685000Y-107893325D01*
X101980000Y-107500000D02*
X101980000Y-110460000D01*
X108500000Y-68000000D02*
X108500000Y-58000000D01*
X104500000Y-77200000D02*
X104500000Y-57000000D01*
X108500000Y-58000000D02*
X107500000Y-57000000D01*
X107500000Y-57000000D02*
X104500000Y-57000000D01*
X112540000Y-68500000D02*
X109000000Y-68500000D01*
X113826000Y-67214000D02*
X112540000Y-68500000D01*
X101980000Y-110460000D02*
X101750000Y-110690000D01*
X108000000Y-54500000D02*
X108000000Y-52500000D01*
X110685000Y-107893325D02*
X110537692Y-107537692D01*
X106750000Y-105750000D02*
X106000000Y-106500000D01*
X102000000Y-107520000D02*
X101980000Y-107500000D01*
X108750000Y-105750000D02*
X106750000Y-105750000D01*
X98455330Y-81744670D02*
X101400000Y-78800000D01*
X98455330Y-103975330D02*
X98455330Y-81744670D01*
X106000000Y-110745635D02*
X104955635Y-111790000D01*
X106000000Y-106500000D02*
X106000000Y-110745635D01*
X109000000Y-68500000D02*
X108500000Y-68000000D01*
X102850000Y-111790000D02*
X101750000Y-110690000D01*
X104500000Y-57000000D02*
X104500000Y-54500000D01*
X101980000Y-107500000D02*
X98455330Y-103975330D01*
X104955635Y-111790000D02*
X102850000Y-111790000D01*
X104500000Y-54500000D02*
X108000000Y-54500000D01*
D24*
%TO.N,Net-(D2-K)*%
X100250000Y-95940000D02*
X100250000Y-96000000D01*
X100250000Y-96000000D02*
X101340000Y-97090000D01*
X101340000Y-97090000D02*
X103600000Y-97090000D01*
X103600000Y-97090000D02*
X104750000Y-95940000D01*
%TO.N,Net-(D2-A)*%
X102500000Y-95940000D02*
X102500000Y-92185330D01*
X102500000Y-90000000D02*
X104685330Y-90000000D01*
X102500000Y-92185330D02*
X102500000Y-90000000D01*
X102500000Y-92185330D02*
X102500000Y-87394670D01*
%TO.N,Net-(D3-A)*%
X103500000Y-93000000D02*
X106200000Y-93000000D01*
X106200000Y-93000000D02*
X106200000Y-89010000D01*
X106200000Y-89010000D02*
X104750000Y-87560000D01*
X104750000Y-84564670D02*
X104750000Y-87560000D01*
X106200000Y-93000000D02*
X109560000Y-93000000D01*
X109560000Y-93000000D02*
X110250000Y-93690000D01*
X102500000Y-82314670D02*
X104750000Y-84564670D01*
%TO.N,Net-(IC1-ZENER_POSITIVE)*%
X114000000Y-82250000D02*
X114000000Y-84265129D01*
D26*
%TO.N,Net-(IC1-SUBSTRATE_AND_ZENER_NEGATIVE)*%
X118250000Y-68950000D02*
X118250000Y-72050000D01*
X118250000Y-72050000D02*
X118050000Y-72250000D01*
D27*
X112250000Y-82150000D02*
X112200000Y-82200000D01*
D26*
X108000000Y-72250000D02*
X106000000Y-74250000D01*
D27*
X107250000Y-73750000D02*
X108250000Y-72750000D01*
D26*
X106000000Y-77300000D02*
X106700000Y-78000000D01*
D27*
X112200000Y-82200000D02*
X112200000Y-87200000D01*
X118750000Y-72250000D02*
X118750000Y-68709000D01*
X113080293Y-88080293D02*
X115580293Y-88080293D01*
X112800000Y-76500000D02*
X107250000Y-76500000D01*
D26*
X118050000Y-72250000D02*
X108000000Y-72250000D01*
D27*
X108250000Y-72750000D02*
X118250000Y-72750000D01*
X118750000Y-68709000D02*
X117255000Y-67214000D01*
D26*
X117255000Y-67955000D02*
X118250000Y-68950000D01*
X108060000Y-78000000D02*
X110250000Y-80190000D01*
X106700000Y-78000000D02*
X108060000Y-78000000D01*
D27*
X107250000Y-76500000D02*
X107250000Y-73750000D01*
X112200000Y-87200000D02*
X113080293Y-88080293D01*
D26*
X106000000Y-74250000D02*
X106000000Y-77300000D01*
X117255000Y-67214000D02*
X117255000Y-67955000D01*
D27*
X118250000Y-72750000D02*
X118750000Y-72250000D01*
X112800000Y-79650000D02*
X112800000Y-76500000D01*
D25*
%TO.N,Net-(IC1-TEMPERATURE_COMPENSATING_TRANSISTOR_COLLECTOR)*%
X115775000Y-86249065D02*
X114250935Y-86249065D01*
D24*
X115475000Y-92725000D02*
X111750000Y-89000000D01*
D25*
X114250935Y-86249065D02*
X114000000Y-86500000D01*
X118800000Y-78200000D02*
X118800000Y-79695112D01*
X118800000Y-79695112D02*
X118815682Y-79710794D01*
%TO.N,Net-(Q1-S)*%
X104500000Y-110690000D02*
X104500000Y-107520000D01*
X104500000Y-107520000D02*
X104520000Y-107500000D01*
D24*
%TO.N,Net-(C5-Pad1)*%
X129000000Y-109690000D02*
X129000000Y-107000000D01*
D26*
%TO.N,Net-(J10-Pin_1)*%
X116720815Y-108420815D02*
X114500000Y-106200000D01*
X122496877Y-98800000D02*
X121725000Y-98028123D01*
X121725000Y-98028123D02*
X121725000Y-96971877D01*
X116800000Y-88302566D02*
X116800000Y-86300000D01*
X129400000Y-92600000D02*
X129500000Y-92500000D01*
X116700000Y-115200000D02*
X117500000Y-115200000D01*
X118900000Y-82300000D02*
X118175000Y-81575000D01*
X116800000Y-86100000D02*
X116800000Y-86000000D01*
X116800000Y-85600000D02*
X119732894Y-85600000D01*
X121725000Y-86625000D02*
X121725000Y-80525000D01*
X127800000Y-107500000D02*
X127800000Y-92600000D01*
X117497434Y-89000000D02*
X116800000Y-88302566D01*
X114500000Y-106200000D02*
X117500000Y-106200000D01*
X113997434Y-85500000D02*
X116700000Y-85500000D01*
X113000000Y-92700000D02*
X108000000Y-87700000D01*
X123000000Y-96200000D02*
X123000000Y-87900000D01*
X131500000Y-91900000D02*
X131500000Y-90500000D01*
X113125000Y-84627566D02*
X113997434Y-85500000D01*
X121725000Y-80525000D02*
X120700000Y-79500000D01*
X127225000Y-108075000D02*
X127800000Y-107500000D01*
X122496877Y-96200000D02*
X123000000Y-96200000D01*
X126800000Y-88100000D02*
X126800000Y-87079720D01*
X123503123Y-98800000D02*
X122496877Y-98800000D01*
X123503123Y-96200000D02*
X124275000Y-96971877D01*
X125675000Y-108075000D02*
X127225000Y-108075000D01*
X116800000Y-85400000D02*
X118900000Y-83300000D01*
X113000000Y-96300000D02*
X113000000Y-92700000D01*
X129500000Y-92500000D02*
X130900000Y-92500000D01*
X112900000Y-117400000D02*
X113600000Y-118100000D01*
X121725000Y-96971877D02*
X122496877Y-96200000D01*
X113125000Y-82170405D02*
X113125000Y-84627566D01*
X108000000Y-85000000D02*
X108000000Y-83190000D01*
X115700000Y-117600000D02*
X115700000Y-116200000D01*
X122496877Y-106200000D02*
X123800000Y-106200000D01*
X114500000Y-97800000D02*
X113000000Y-96300000D01*
X115200000Y-118100000D02*
X115700000Y-117600000D01*
X118200000Y-106900000D02*
X118200000Y-107820815D01*
X118900000Y-83300000D02*
X118900000Y-82300000D01*
X127800000Y-92600000D02*
X129400000Y-92600000D01*
X118900000Y-113800000D02*
X118900000Y-109796877D01*
X118500000Y-89000000D02*
X117497434Y-89000000D01*
X112470541Y-108583378D02*
X112470541Y-115463003D01*
X113600000Y-118100000D02*
X115200000Y-118100000D01*
X114500000Y-106200000D02*
X114500000Y-97800000D01*
X118175000Y-81575000D02*
X113720405Y-81575000D01*
X107510000Y-96300000D02*
X113000000Y-96300000D01*
X100250000Y-103560000D02*
X107510000Y-96300000D01*
X125500000Y-86500000D02*
X124100000Y-87900000D01*
X117600000Y-108420815D02*
X116720815Y-108420815D01*
X108000000Y-83190000D02*
X104750000Y-79940000D01*
X116700000Y-85500000D02*
X116800000Y-85600000D01*
X120270457Y-87229543D02*
X118500000Y-89000000D01*
X123000000Y-100700000D02*
X123000000Y-98800000D01*
X108000000Y-87700000D02*
X108000000Y-85000000D01*
X123000000Y-96200000D02*
X123503123Y-96200000D01*
X131500000Y-90500000D02*
X130900000Y-89900000D01*
X120270457Y-86137563D02*
X120270457Y-87229543D01*
X118900000Y-109796877D02*
X122496877Y-106200000D01*
X117500000Y-106200000D02*
X123000000Y-100700000D01*
X126800000Y-87079720D02*
X129900000Y-83979720D01*
X115700000Y-116200000D02*
X116700000Y-115200000D01*
X114500000Y-106200000D02*
X114500000Y-106553919D01*
X130900000Y-89900000D02*
X128600000Y-89900000D01*
X116800000Y-85600000D02*
X116800000Y-85400000D01*
X124275000Y-96971877D02*
X124275000Y-98028123D01*
X123800000Y-106200000D02*
X125675000Y-108075000D01*
X112470541Y-115463003D02*
X112900000Y-115892462D01*
X114500000Y-106553919D02*
X112470541Y-108583378D01*
X117500000Y-106200000D02*
X118200000Y-106900000D01*
X124275000Y-98028123D02*
X123503123Y-98800000D01*
X112900000Y-115892462D02*
X112900000Y-117400000D01*
X116800000Y-86300000D02*
X116800000Y-86100000D01*
X129900000Y-83979720D02*
X129900000Y-79700000D01*
X119732894Y-85600000D02*
X120270457Y-86137563D01*
X130900000Y-92500000D02*
X131500000Y-91900000D01*
X118200000Y-107820815D02*
X117600000Y-108420815D01*
X117500000Y-115200000D02*
X118900000Y-113800000D01*
X113720405Y-81575000D02*
X113125000Y-82170405D01*
X125500000Y-79400000D02*
X125500000Y-86500000D01*
X123000000Y-87900000D02*
X121725000Y-86625000D01*
X128600000Y-89900000D02*
X126800000Y-88100000D01*
X124100000Y-87900000D02*
X123000000Y-87900000D01*
D24*
%TO.N,Net-(JP1-A)*%
X115900000Y-94800000D02*
X110250000Y-89150000D01*
X110250000Y-89150000D02*
X110250000Y-87810000D01*
%TO.N,Net-(J2-Pin_1)*%
X101750000Y-118310000D02*
X105060000Y-115000000D01*
X105060000Y-115000000D02*
X108000000Y-115000000D01*
%TD*%
%TA.AperFunction,Conductor*%
%TO.N,Net-(D1-A)*%
G36*
X122874739Y-54000423D02*
G01*
X122875662Y-54000499D01*
X122875665Y-54000500D01*
X122875668Y-54000500D01*
X123124332Y-54000500D01*
X123124335Y-54000500D01*
X123124337Y-54000499D01*
X123125261Y-54000423D01*
X123135499Y-54000000D01*
X126876000Y-54000000D01*
X126943039Y-54019685D01*
X126988794Y-54072489D01*
X127000000Y-54124000D01*
X127000000Y-76876000D01*
X126980315Y-76943039D01*
X126927511Y-76988794D01*
X126876000Y-77000000D01*
X126124000Y-77000000D01*
X126056961Y-76980315D01*
X126011206Y-76927511D01*
X126000000Y-76876000D01*
X126000000Y-55000000D01*
X116124000Y-55000000D01*
X116056961Y-54980315D01*
X116011206Y-54927511D01*
X116000000Y-54876000D01*
X116000000Y-54124000D01*
X116019685Y-54056961D01*
X116072489Y-54011206D01*
X116124000Y-54000000D01*
X122864501Y-54000000D01*
X122874739Y-54000423D01*
G37*
%TD.AperFunction*%
%TD*%
%TA.AperFunction,Conductor*%
%TO.N,Net-(IC1-SUBSTRATE_AND_ZENER_NEGATIVE)*%
G36*
X115443039Y-76019685D02*
G01*
X115488794Y-76072489D01*
X115500000Y-76124000D01*
X115500000Y-76876000D01*
X115480315Y-76943039D01*
X115427511Y-76988794D01*
X115376000Y-77000000D01*
X107124000Y-77000000D01*
X107056961Y-76980315D01*
X107011206Y-76927511D01*
X107000000Y-76876000D01*
X107000000Y-76124000D01*
X107019685Y-76056961D01*
X107072489Y-76011206D01*
X107124000Y-76000000D01*
X115376000Y-76000000D01*
X115443039Y-76019685D01*
G37*
%TD.AperFunction*%
%TD*%
%TA.AperFunction,Conductor*%
%TO.N,GND*%
G36*
X132443039Y-93019685D02*
G01*
X132488794Y-93072489D01*
X132500000Y-93124000D01*
X132500000Y-119376000D01*
X132480315Y-119443039D01*
X132427511Y-119488794D01*
X132376000Y-119500000D01*
X118624000Y-119500000D01*
X118556961Y-119480315D01*
X118511206Y-119427511D01*
X118500000Y-119376000D01*
X118500000Y-117376008D01*
X118504224Y-117343918D01*
X118535635Y-117226692D01*
X118555468Y-117000000D01*
X118535635Y-116773308D01*
X118504225Y-116656083D01*
X118500000Y-116623990D01*
X118500000Y-116124000D01*
X118519685Y-116056961D01*
X118572489Y-116011206D01*
X118624000Y-116000000D01*
X121826685Y-116000000D01*
X121893724Y-116019685D01*
X121917912Y-116040015D01*
X121980256Y-116107738D01*
X122176491Y-116260474D01*
X122176493Y-116260475D01*
X122336868Y-116347266D01*
X122395190Y-116378828D01*
X122630386Y-116459571D01*
X122875665Y-116500500D01*
X123124335Y-116500500D01*
X123369614Y-116459571D01*
X123604810Y-116378828D01*
X123823509Y-116260474D01*
X124019744Y-116107738D01*
X124082086Y-116040016D01*
X124141972Y-116004027D01*
X124173315Y-116000000D01*
X125623991Y-116000000D01*
X125656083Y-116004224D01*
X125773308Y-116035635D01*
X125935230Y-116049801D01*
X125999998Y-116055468D01*
X126000000Y-116055468D01*
X126000002Y-116055468D01*
X126056673Y-116050509D01*
X126226692Y-116035635D01*
X126343916Y-116004224D01*
X126376009Y-116000000D01*
X128000000Y-116000000D01*
X128000000Y-111124000D01*
X128019685Y-111056961D01*
X128072489Y-111011206D01*
X128124000Y-111000000D01*
X129000000Y-111000000D01*
X129005757Y-110994242D01*
X129019685Y-110946810D01*
X129072489Y-110901055D01*
X129105728Y-110892198D01*
X129105608Y-110891553D01*
X129111241Y-110890500D01*
X129111243Y-110890500D01*
X129329940Y-110849618D01*
X129537401Y-110769247D01*
X129726562Y-110652124D01*
X129890981Y-110502236D01*
X130025058Y-110324689D01*
X130124229Y-110125528D01*
X130185115Y-109911536D01*
X130205643Y-109690000D01*
X130185115Y-109468464D01*
X130124229Y-109254472D01*
X130124224Y-109254461D01*
X130025061Y-109055316D01*
X130025056Y-109055308D01*
X129975549Y-108989750D01*
X129890981Y-108877764D01*
X129890978Y-108877761D01*
X129890974Y-108877757D01*
X129790962Y-108786584D01*
X129754680Y-108726873D01*
X129750500Y-108694947D01*
X129750500Y-108126662D01*
X129770185Y-108059623D01*
X129803379Y-108025086D01*
X129839140Y-108000046D01*
X130000045Y-107839141D01*
X130000047Y-107839139D01*
X130130568Y-107652734D01*
X130226739Y-107446496D01*
X130285635Y-107226692D01*
X130305468Y-107000000D01*
X130285635Y-106773308D01*
X130226739Y-106553504D01*
X130130568Y-106347266D01*
X130000047Y-106160861D01*
X130000045Y-106160858D01*
X129839141Y-105999954D01*
X129652734Y-105869432D01*
X129652732Y-105869431D01*
X129446497Y-105773261D01*
X129446488Y-105773258D01*
X129226697Y-105714366D01*
X129226687Y-105714364D01*
X129113192Y-105704435D01*
X129048124Y-105678982D01*
X129007145Y-105622392D01*
X129000000Y-105580907D01*
X129000000Y-100125612D01*
X129019685Y-100058573D01*
X129072489Y-100012818D01*
X129141647Y-100002874D01*
X129195122Y-100024036D01*
X129347266Y-100130568D01*
X129553504Y-100226739D01*
X129773308Y-100285635D01*
X129935230Y-100299801D01*
X129999998Y-100305468D01*
X130000000Y-100305468D01*
X130000002Y-100305468D01*
X130056673Y-100300509D01*
X130226692Y-100285635D01*
X130446496Y-100226739D01*
X130652734Y-100130568D01*
X130839139Y-100000047D01*
X131000047Y-99839139D01*
X131130568Y-99652734D01*
X131226739Y-99446496D01*
X131285635Y-99226692D01*
X131305468Y-99000000D01*
X131285635Y-98773308D01*
X131226739Y-98553504D01*
X131130568Y-98347266D01*
X131000047Y-98160861D01*
X131000045Y-98160858D01*
X130839141Y-97999954D01*
X130652734Y-97869432D01*
X130652732Y-97869431D01*
X130446497Y-97773261D01*
X130446488Y-97773258D01*
X130226697Y-97714366D01*
X130226693Y-97714365D01*
X130226692Y-97714365D01*
X130226691Y-97714364D01*
X130226686Y-97714364D01*
X130000002Y-97694532D01*
X129999998Y-97694532D01*
X129773313Y-97714364D01*
X129773302Y-97714366D01*
X129553511Y-97773258D01*
X129553502Y-97773261D01*
X129347267Y-97869431D01*
X129347265Y-97869432D01*
X129195123Y-97975962D01*
X129128916Y-97998290D01*
X129061149Y-97981278D01*
X129013337Y-97930330D01*
X129000000Y-97874387D01*
X129000000Y-93299500D01*
X129019685Y-93232461D01*
X129072489Y-93186706D01*
X129124000Y-93175500D01*
X129354160Y-93175500D01*
X129370345Y-93176561D01*
X129399999Y-93180465D01*
X129400000Y-93180465D01*
X129437714Y-93175500D01*
X129437720Y-93175500D01*
X129550236Y-93160687D01*
X129690233Y-93102698D01*
X129692282Y-93101126D01*
X129694320Y-93100337D01*
X129697268Y-93098636D01*
X129697533Y-93099095D01*
X129757450Y-93075930D01*
X129767770Y-93075500D01*
X130854160Y-93075500D01*
X130870345Y-93076561D01*
X130899999Y-93080465D01*
X130900000Y-93080465D01*
X130937714Y-93075500D01*
X130937720Y-93075500D01*
X131050236Y-93060687D01*
X131173959Y-93009439D01*
X131221412Y-93000000D01*
X132376000Y-93000000D01*
X132443039Y-93019685D01*
G37*
%TD.AperFunction*%
%TD*%
%TA.AperFunction,Conductor*%
%TO.N,Net-(D1-K)*%
G36*
X115437539Y-54019685D02*
G01*
X115483294Y-54072489D01*
X115494500Y-54124000D01*
X115494500Y-54876000D01*
X115474815Y-54943039D01*
X115422011Y-54988794D01*
X115370500Y-55000000D01*
X105000000Y-55000000D01*
X105000000Y-76876000D01*
X104980315Y-76943039D01*
X104927511Y-76988794D01*
X104876000Y-77000000D01*
X104124000Y-77000000D01*
X104056961Y-76980315D01*
X104011206Y-76927511D01*
X104000000Y-76876000D01*
X104000000Y-54124000D01*
X104019685Y-54056961D01*
X104072489Y-54011206D01*
X104124000Y-54000000D01*
X115370500Y-54000000D01*
X115437539Y-54019685D01*
G37*
%TD.AperFunction*%
%TD*%
%TA.AperFunction,Conductor*%
%TO.N,Net-(IC1-TEMPERATURE_SENSING_TRANSISTOR_BASE)*%
G36*
X125443039Y-76019685D02*
G01*
X125488794Y-76072489D01*
X125500000Y-76124000D01*
X125500000Y-76876000D01*
X125480315Y-76943039D01*
X125427511Y-76988794D01*
X125376000Y-77000000D01*
X116124000Y-77000000D01*
X116056961Y-76980315D01*
X116011206Y-76927511D01*
X116000000Y-76876000D01*
X116000000Y-76124000D01*
X116019685Y-76056961D01*
X116072489Y-76011206D01*
X116124000Y-76000000D01*
X125376000Y-76000000D01*
X125443039Y-76019685D01*
G37*
%TD.AperFunction*%
%TD*%
%TA.AperFunction,Conductor*%
%TO.N,Net-(IC1-SUBSTRATE_AND_ZENER_NEGATIVE)*%
G36*
X106443039Y-76019685D02*
G01*
X106488794Y-76072489D01*
X106500000Y-76124000D01*
X106500000Y-76876000D01*
X106480315Y-76943039D01*
X106427511Y-76988794D01*
X106376000Y-77000000D01*
X105624000Y-77000000D01*
X105556961Y-76980315D01*
X105511206Y-76927511D01*
X105500000Y-76876000D01*
X105500000Y-76124000D01*
X105519685Y-76056961D01*
X105572489Y-76011206D01*
X105624000Y-76000000D01*
X106376000Y-76000000D01*
X106443039Y-76019685D01*
G37*
%TD.AperFunction*%
%TD*%
M02*
