%TF.GenerationSoftware,KiCad,Pcbnew,7.0.10*%
%TF.CreationDate,2025-01-02T12:32:12+01:00*%
%TF.ProjectId,Datron 1281 Referenz,44617472-6f6e-4203-9132-383120526566,1*%
%TF.SameCoordinates,Original*%
%TF.FileFunction,Profile,NP*%
%FSLAX46Y46*%
G04 Gerber Fmt 4.6, Leading zero omitted, Abs format (unit mm)*
G04 Created by KiCad (PCBNEW 7.0.10) date 2025-01-02 12:32:12*
%MOMM*%
%LPD*%
G01*
G04 APERTURE LIST*
%TA.AperFunction,Profile*%
%ADD10C,0.100000*%
%TD*%
G04 APERTURE END LIST*
D10*
X125500000Y-72500000D02*
X123500000Y-72500000D01*
X123500000Y-61500000D01*
X113500000Y-61500000D01*
X113500000Y-59500000D01*
X123500000Y-59500000D01*
X125500000Y-59500000D01*
X125500000Y-72500000D01*
X122500000Y-57500000D02*
X111500000Y-57500000D01*
X111500000Y-67500000D01*
X109500000Y-67500000D01*
X109500000Y-57500000D01*
X109500000Y-55500000D01*
X122500000Y-55500000D01*
X122500000Y-57500000D01*
X107500000Y-69500000D02*
X117500000Y-69500000D01*
X117500000Y-71500000D01*
X107500000Y-71500000D01*
X105500000Y-71500000D01*
X105500000Y-58500000D01*
X107500000Y-58500000D01*
X107500000Y-69500000D01*
X103000000Y-65500000D02*
G75*
G03*
X100000000Y-65500000I-1500000J0D01*
G01*
X100000000Y-65500000D02*
G75*
G03*
X103000000Y-65500000I1500000J0D01*
G01*
X98000000Y-48000000D02*
X133000000Y-48000000D01*
X133000000Y-120000000D01*
X98000000Y-120000000D01*
X98000000Y-48000000D01*
X121500000Y-73500000D02*
X121500000Y-75500000D01*
X108500000Y-75500000D01*
X108500000Y-73500000D01*
X119500000Y-73500000D01*
X119500000Y-63500000D01*
X121500000Y-63500000D01*
X121500000Y-73500000D01*
X131500000Y-65500000D02*
G75*
G03*
X128500000Y-65500000I-1500000J0D01*
G01*
X128500000Y-65500000D02*
G75*
G03*
X131500000Y-65500000I1500000J0D01*
G01*
M02*
