M48
; DRILL file {KiCad 7.0.10} date Thu Jan  2 12:32:16 2025
; FORMAT={-:-/ absolute / inch / decimal}
; #@! TF.CreationDate,2025-01-02T12:32:16+01:00
; #@! TF.GenerationSoftware,Kicad,Pcbnew,7.0.10
; #@! TF.FileFunction,MixedPlating,1,2
FMAT,2
INCH
; #@! TA.AperFunction,Plated,PTH,ViaDrill
T1C0.0157
; #@! TA.AperFunction,Plated,PTH,ComponentDrill
T2C0.0264
; #@! TA.AperFunction,Plated,PTH,ComponentDrill
T3C0.0276
; #@! TA.AperFunction,Plated,PTH,ComponentDrill
T4C0.0295
; #@! TA.AperFunction,Plated,PTH,ComponentDrill
T5C0.0315
; #@! TA.AperFunction,Plated,PTH,ComponentDrill
T6C0.0394
%
G90
G05
T1
X4.0748Y-3.6614
X4.3996Y-3.5039
X4.4193Y-3.2343
X4.4409Y-3.1358
X4.4882Y-3.2382
X4.5079Y-4.1811
X4.5463Y-3.6506
X4.5581Y-3.3956
X4.563Y-3.7323
X4.5984Y-3.3701
X4.6516Y-3.7697
X4.6772Y-3.0787
X4.6778Y-3.1382
X4.752Y-3.1299
X4.7638Y-3.5433
X4.8228Y-4.0453
X4.8819Y-3.4055
X4.9409Y-3.126
X5.1142Y-3.1378
T2
X4.4488Y-2.5787
X4.4813Y-2.5112
X4.4813Y-2.6462
X4.5488Y-2.4787
X4.5488Y-2.6787
X4.6163Y-2.5112
X4.6163Y-2.6462
X4.6488Y-2.5787
T3
X3.9469Y-3.7772
X3.9469Y-4.0772
X4.0059Y-4.3579
X4.0059Y-4.6579
X4.0354Y-3.7772
X4.0354Y-4.0772
X4.1142Y-4.3579
X4.1142Y-4.6579
X4.124Y-3.1472
X4.124Y-3.4472
X4.124Y-3.7772
X4.124Y-4.0772
X4.3406Y-3.1571
X4.3406Y-3.4571
X4.3406Y-3.6886
X4.3406Y-3.9886
X4.4002Y-4.139
X4.4002Y-4.227
X4.4624Y-4.0768
X4.4624Y-4.2892
X4.4882Y-3.3175
X4.4882Y-3.4055
X4.5504Y-3.2553
X4.5504Y-3.4677
X4.5504Y-4.0768
X4.5504Y-4.2892
X4.6126Y-4.139
X4.6126Y-4.227
X4.6384Y-3.2553
X4.6384Y-3.4677
X4.7006Y-3.3175
X4.7006Y-3.4055
X4.9803Y-3.6
X4.9803Y-3.9
X5.0394Y-3.1472
X5.0394Y-3.4472
X5.0787Y-4.3185
X5.0787Y-4.6185
T4
X3.9215Y-3.5433
X3.9291Y-3.2407
X3.9291Y-3.4407
X4.015Y-4.2323
X4.0354Y-3.2407
X4.0354Y-3.4407
X4.065Y-4.2323
X4.115Y-4.2323
X4.1215Y-3.5433
X4.3577Y-4.439
X4.5577Y-4.439
T5
X4.3996Y-4.5866
X4.4587Y-3.8976
X4.498Y-4.5866
X4.5571Y-3.8976
X4.6161Y-4.6063
X4.7146Y-4.6063
X4.9606Y-4.5177
X4.9606Y-4.6161
X4.9803Y-4.0945
X4.9803Y-4.2126
X5.0787Y-4.0945
X5.0787Y-4.2126
X5.1181Y-3.5925
X5.1181Y-3.6909
X5.1181Y-3.7992
X5.1181Y-3.8976
X5.1575Y-3.2382
X5.1575Y-3.3366
T6
X4.252Y-2.0669
X4.252Y-3.1496
X4.252Y-3.3465
X4.252Y-3.5433
X4.252Y-3.937
X4.252Y-4.2323
X4.252Y-4.5276
X4.8425Y-2.0669
X4.8425Y-3.1496
X4.8425Y-3.248
X4.8425Y-3.8386
X4.8425Y-4.2323
X4.8425Y-4.5276
M30
