%TF.GenerationSoftware,KiCad,Pcbnew,10.0.6*%
%TF.CreationDate,2026-09-13T22:50:03+02:00*%
%TF.ProjectId,Datron 1281 Referenz,44617472-6f6e-4203-9132-383120526566,1*%
%TF.SameCoordinates,Original*%
%TF.FileFunction,Copper,L1,Top*%
%TF.FilePolarity,Positive*%
%FSLAX46Y46*%
G04 Gerber Fmt 4.6, Leading zero omitted, Abs format (unit mm)*
G04 Created by KiCad (PCBNEW 10.0.6) date 2026-09-13 22:50:03*
%MOMM*%
%LPD*%
G01*
G04 APERTURE LIST*
G04 Aperture macros list*
%AMHorizOval*
0 Thick line with rounded ends*
0 $1 width*
0 $2 $3 position (X,Y) of the first rounded end (center of the circle)*
0 $4 $5 position (X,Y) of the second rounded end (center of the circle)*
0 Add line between two ends*
20,1,$1,$2,$3,$4,$5,0*
0 Add two circle primitives to create the rounded ends*
1,1,$1,$2,$3*
1,1,$1,$4,$5*%
G04 Aperture macros list end*
%ADD10C,0.250000*%
%TA.AperFunction,NonConductor*%
%ADD11C,0.250000*%
%TD*%
%TA.AperFunction,EtchedComponent*%
%ADD12C,0.000000*%
%TD*%
%TA.AperFunction,ComponentPad*%
%ADD13O,1.400000X1.400000*%
%TD*%
%TA.AperFunction,ComponentPad*%
%ADD14C,1.400000*%
%TD*%
%TA.AperFunction,ComponentPad*%
%ADD15HorizOval,1.200000X0.184776X0.076537X-0.184776X-0.076537X0*%
%TD*%
%TA.AperFunction,ComponentPad*%
%ADD16C,1.200000*%
%TD*%
%TA.AperFunction,ComponentPad*%
%ADD17R,1.228000X1.228000*%
%TD*%
%TA.AperFunction,ComponentPad*%
%ADD18C,1.228000*%
%TD*%
%TA.AperFunction,ComponentPad*%
%ADD19C,2.000000*%
%TD*%
%TA.AperFunction,ComponentPad*%
%ADD20C,1.600000*%
%TD*%
%TA.AperFunction,ComponentPad*%
%ADD21R,1.500000X1.500000*%
%TD*%
%TA.AperFunction,ComponentPad*%
%ADD22O,1.500000X1.500000*%
%TD*%
%TA.AperFunction,SMDPad,CuDef*%
%ADD23R,1.000000X1.500000*%
%TD*%
%TA.AperFunction,ComponentPad*%
%ADD24R,1.050000X1.500000*%
%TD*%
%TA.AperFunction,ComponentPad*%
%ADD25O,1.050000X1.500000*%
%TD*%
%TA.AperFunction,ComponentPad*%
%ADD26HorizOval,1.200000X0.076537X-0.184776X-0.076537X0.184776X0*%
%TD*%
%TA.AperFunction,ViaPad*%
%ADD27C,0.800000*%
%TD*%
%TA.AperFunction,Conductor*%
%ADD28C,0.500000*%
%TD*%
%TA.AperFunction,Conductor*%
%ADD29C,0.750000*%
%TD*%
%TA.AperFunction,Conductor*%
%ADD30C,2.000000*%
%TD*%
%TA.AperFunction,Conductor*%
%ADD31C,0.400000*%
%TD*%
%TA.AperFunction,Conductor*%
%ADD32C,0.300000*%
%TD*%
%TA.AperFunction,Conductor*%
%ADD33C,0.150000*%
%TD*%
G04 APERTURE END LIST*
D10*
D11*
X119768860Y-49057761D02*
X119768860Y-51057761D01*
X119768860Y-49153000D02*
X120006955Y-49057761D01*
X120006955Y-49057761D02*
X120483146Y-49057761D01*
X120483146Y-49057761D02*
X120721241Y-49153000D01*
X120721241Y-49153000D02*
X120840288Y-49248238D01*
X120840288Y-49248238D02*
X120959336Y-49438714D01*
X120959336Y-49438714D02*
X120959336Y-50010142D01*
X120959336Y-50010142D02*
X120840288Y-50200619D01*
X120840288Y-50200619D02*
X120721241Y-50295857D01*
X120721241Y-50295857D02*
X120483146Y-50391095D01*
X120483146Y-50391095D02*
X120006955Y-50391095D01*
X120006955Y-50391095D02*
X119768860Y-50295857D01*
X117506955Y-49057761D02*
X117506955Y-50105380D01*
X117506955Y-50105380D02*
X117626002Y-50295857D01*
X117626002Y-50295857D02*
X117864098Y-50391095D01*
X117864098Y-50391095D02*
X118340288Y-50391095D01*
X118340288Y-50391095D02*
X118578383Y-50295857D01*
X117506955Y-49153000D02*
X117745050Y-49057761D01*
X117745050Y-49057761D02*
X118340288Y-49057761D01*
X118340288Y-49057761D02*
X118578383Y-49153000D01*
X118578383Y-49153000D02*
X118697431Y-49343476D01*
X118697431Y-49343476D02*
X118697431Y-49533952D01*
X118697431Y-49533952D02*
X118578383Y-49724428D01*
X118578383Y-49724428D02*
X118340288Y-49819666D01*
X118340288Y-49819666D02*
X117745050Y-49819666D01*
X117745050Y-49819666D02*
X117506955Y-49914904D01*
X116673621Y-50391095D02*
X115721240Y-50391095D01*
X116316478Y-51057761D02*
X116316478Y-49343476D01*
X116316478Y-49343476D02*
X116197431Y-49153000D01*
X116197431Y-49153000D02*
X115959336Y-49057761D01*
X115959336Y-49057761D02*
X115721240Y-49057761D01*
X114887907Y-49057761D02*
X114887907Y-50391095D01*
X114887907Y-50010142D02*
X114768860Y-50200619D01*
X114768860Y-50200619D02*
X114649812Y-50295857D01*
X114649812Y-50295857D02*
X114411717Y-50391095D01*
X114411717Y-50391095D02*
X114173622Y-50391095D01*
X112983146Y-49057761D02*
X113221241Y-49153000D01*
X113221241Y-49153000D02*
X113340288Y-49248238D01*
X113340288Y-49248238D02*
X113459336Y-49438714D01*
X113459336Y-49438714D02*
X113459336Y-50010142D01*
X113459336Y-50010142D02*
X113340288Y-50200619D01*
X113340288Y-50200619D02*
X113221241Y-50295857D01*
X113221241Y-50295857D02*
X112983146Y-50391095D01*
X112983146Y-50391095D02*
X112626003Y-50391095D01*
X112626003Y-50391095D02*
X112387907Y-50295857D01*
X112387907Y-50295857D02*
X112268860Y-50200619D01*
X112268860Y-50200619D02*
X112149812Y-50010142D01*
X112149812Y-50010142D02*
X112149812Y-49438714D01*
X112149812Y-49438714D02*
X112268860Y-49248238D01*
X112268860Y-49248238D02*
X112387907Y-49153000D01*
X112387907Y-49153000D02*
X112626003Y-49057761D01*
X112626003Y-49057761D02*
X112983146Y-49057761D01*
X111078383Y-50391095D02*
X111078383Y-49057761D01*
X111078383Y-50200619D02*
X110959336Y-50295857D01*
X110959336Y-50295857D02*
X110721241Y-50391095D01*
X110721241Y-50391095D02*
X110364098Y-50391095D01*
X110364098Y-50391095D02*
X110126002Y-50295857D01*
X110126002Y-50295857D02*
X110006955Y-50105380D01*
X110006955Y-50105380D02*
X110006955Y-49057761D01*
D12*
%TA.AperFunction,EtchedComponent*%
%TO.C,JP1*%
G36*
X117750000Y-95550000D02*
G01*
X117250000Y-95550000D01*
X117250000Y-95150000D01*
X117750000Y-95150000D01*
X117750000Y-95550000D01*
G37*
%TD.AperFunction*%
%TA.AperFunction,EtchedComponent*%
G36*
X117750000Y-96350000D02*
G01*
X117250000Y-96350000D01*
X117250000Y-95950000D01*
X117750000Y-95950000D01*
X117750000Y-96350000D01*
G37*
%TD.AperFunction*%
%TA.AperFunction,EtchedComponent*%
%TO.C,JP2*%
G36*
X117750000Y-93050000D02*
G01*
X117250000Y-93050000D01*
X117250000Y-92650000D01*
X117750000Y-92650000D01*
X117750000Y-93050000D01*
G37*
%TD.AperFunction*%
%TA.AperFunction,EtchedComponent*%
G36*
X117750000Y-93850000D02*
G01*
X117250000Y-93850000D01*
X117250000Y-93450000D01*
X117750000Y-93450000D01*
X117750000Y-93850000D01*
G37*
%TD.AperFunction*%
%TA.AperFunction,EtchedComponent*%
%TO.C,JP3*%
G36*
X101800000Y-92800000D02*
G01*
X101300000Y-92800000D01*
X101300000Y-92400000D01*
X101800000Y-92400000D01*
X101800000Y-92800000D01*
G37*
%TD.AperFunction*%
%TA.AperFunction,EtchedComponent*%
G36*
X101800000Y-93600000D02*
G01*
X101300000Y-93600000D01*
X101300000Y-93200000D01*
X101800000Y-93200000D01*
X101800000Y-93600000D01*
G37*
%TD.AperFunction*%
%TD*%
D13*
%TO.P,R11,2*%
%TO.N,Net-(J11-Pin_1)*%
X128000000Y-87560000D03*
D14*
%TO.P,R11,1*%
%TO.N,Net-(D1-A)*%
X128000000Y-79940000D03*
%TD*%
D15*
%TO.P,RN1,1*%
%TO.N,Net-(JP2-A)*%
X114000000Y-86500000D03*
D16*
%TO.P,RN1,2*%
%TO.N,Net-(R5-Pad1)*%
X115580293Y-88080293D03*
%TO.P,RN1,3*%
%TO.N,Net-(D3-A)*%
X117815164Y-88080293D03*
%TO.P,RN1,4*%
%TO.N,Net-(J12-Pin_1)*%
X119395457Y-86500000D03*
%TO.P,RN1,5*%
%TO.N,Net-(J5-Pin_1)*%
X119395456Y-84265129D03*
%TO.P,RN1,6*%
%TO.N,Net-(J11-Pin_1)*%
X117815164Y-82684836D03*
%TO.P,RN1,7*%
%TO.N,Net-(D2-K)*%
X115580293Y-82684836D03*
%TO.P,RN1,8*%
%TO.N,Net-(RN1-Pad8)*%
X114000000Y-84265129D03*
%TD*%
D17*
%TO.P,U1,1*%
%TO.N,Net-(J1-Pin_1)*%
X113000000Y-65500000D03*
D18*
%TO.P,U1,2*%
%TO.N,Net-(D1-K)*%
X113826000Y-67214000D03*
%TO.P,U1,3*%
%TO.N,Net-(RN1-Pad8)*%
X115540000Y-68040000D03*
%TO.P,U1,4*%
%TO.N,Net-(R5-Pad1)*%
X117255000Y-67214000D03*
%TO.P,U1,5*%
%TO.N,Net-(JP2-A)*%
X118080000Y-65500000D03*
%TO.P,U1,6*%
%TO.N,Net-(J5-Pin_1)*%
X117255000Y-63785000D03*
%TO.P,U1,7*%
%TO.N,Net-(J12-Pin_1)*%
X115540000Y-62960000D03*
%TO.P,U1,8*%
%TO.N,Net-(D1-A)*%
X113826000Y-63785000D03*
%TD*%
D14*
%TO.P,R6,1*%
%TO.N,Net-(D2-A)*%
X102500000Y-95940000D03*
D13*
%TO.P,R6,2*%
%TO.N,Net-(C6-Pad2)*%
X102500000Y-103560000D03*
%TD*%
D19*
%TO.P,J4,1,Pin_1_1*%
%TO.N,Net-(J4-Pin_1)*%
X108000000Y-100000000D03*
%TD*%
D20*
%TO.P,C8,1*%
%TO.N,Net-(J11-Pin_1)*%
X131000000Y-82250000D03*
%TO.P,C8,2*%
%TO.N,Net-(J12-Pin_1)*%
X131000000Y-84750000D03*
%TD*%
%TO.P,C4,1*%
%TO.N,-15V*%
X117250000Y-117000000D03*
%TO.P,C4,2*%
%TO.N,GND*%
X119750000Y-117000000D03*
%TD*%
D19*
%TO.P,J3,1,Pin_1_1*%
%TO.N,Net-(D1-K)*%
X108000000Y-52500000D03*
%TD*%
D14*
%TO.P,R2,1*%
%TO.N,Net-(J2-Pin_1)*%
X101750000Y-118310000D03*
D13*
%TO.P,R2,2*%
%TO.N,Net-(D1-K)*%
X101750000Y-110690000D03*
%TD*%
D19*
%TO.P,J6,1,Pin_1_1*%
%TO.N,+15V*%
X123000000Y-107500000D03*
%TD*%
%TO.P,J5,1,Pin_1_1*%
%TO.N,Net-(J5-Pin_1)*%
X108000000Y-80000000D03*
%TD*%
%TO.P,J1,1,Pin_1_1*%
%TO.N,Net-(J1-Pin_1)*%
X123000000Y-52500000D03*
%TD*%
D21*
%TO.P,D3,1,K_1*%
%TO.N,Net-(D2-A)*%
X102500000Y-87394670D03*
D22*
%TO.P,D3,2,A_2*%
%TO.N,Net-(D3-A)*%
X102500000Y-82314670D03*
%TD*%
D19*
%TO.P,J2,1,Pin_1_1*%
%TO.N,Net-(J2-Pin_1)*%
X108000000Y-115000000D03*
%TD*%
D20*
%TO.P,C7,1*%
%TO.N,+15V*%
X126000000Y-114750000D03*
%TO.P,C7,2*%
%TO.N,GND*%
X126000000Y-117250000D03*
%TD*%
%TO.P,C6,1*%
%TO.N,Net-(JP2-B)*%
X115750000Y-99000000D03*
%TO.P,C6,2*%
%TO.N,Net-(C6-Pad2)*%
X113250000Y-99000000D03*
%TD*%
D23*
%TO.P,JP1,1,A_1*%
%TO.N,Net-(JP1-A)*%
X116850000Y-95750000D03*
%TO.P,JP1,2,B_2*%
%TO.N,Net-(JP1-B)*%
X118150000Y-95750000D03*
%TD*%
D19*
%TO.P,J10,1,Pin_1_1*%
%TO.N,Net-(J10-Pin_1)*%
X123000000Y-115000000D03*
%TD*%
D21*
%TO.P,D2,1,K_1*%
%TO.N,Net-(D2-K)*%
X99605330Y-90000000D03*
D22*
%TO.P,D2,2,A_2*%
%TO.N,Net-(D2-A)*%
X104685330Y-90000000D03*
%TD*%
D20*
%TO.P,C5,1*%
%TO.N,Net-(JP1-B)*%
X126532000Y-107000000D03*
%TO.P,C5,2*%
%TO.N,Net-(C5-Pad2)*%
X129032000Y-107000000D03*
%TD*%
D14*
%TO.P,R7,1*%
%TO.N,Net-(D2-K)*%
X104750000Y-95940000D03*
D13*
%TO.P,R7,2*%
%TO.N,+15V*%
X104750000Y-103560000D03*
%TD*%
D20*
%TO.P,C3,1*%
%TO.N,Net-(D1-A)*%
X126500000Y-104000000D03*
%TO.P,C3,2*%
%TO.N,GND*%
X129000000Y-104000000D03*
%TD*%
D19*
%TO.P,J8,1,Pin_1_1*%
%TO.N,-15V*%
X108000000Y-107500000D03*
%TD*%
D23*
%TO.P,JP2,1,A_1*%
%TO.N,Net-(JP2-A)*%
X116850000Y-93250000D03*
%TO.P,JP2,2,B_2*%
%TO.N,Net-(JP2-B)*%
X118150000Y-93250000D03*
%TD*%
D14*
%TO.P,R9,1*%
%TO.N,Net-(J10-Pin_1)*%
X100250000Y-103560000D03*
D13*
%TO.P,R9,2*%
%TO.N,Net-(D2-K)*%
X100250000Y-95940000D03*
%TD*%
D21*
%TO.P,D1,1,K_1*%
%TO.N,Net-(D1-K)*%
X110685000Y-112750000D03*
D22*
%TO.P,D1,2,A_2*%
%TO.N,Net-(D1-A)*%
X115765000Y-112750000D03*
%TD*%
D19*
%TO.P,J13,1,Pin_1_1*%
%TO.N,Net-(J13-Pin_1)*%
X108000000Y-90000000D03*
%TD*%
D20*
%TO.P,C9,1*%
%TO.N,Net-(J10-Pin_1)*%
X130000000Y-99000000D03*
%TO.P,C9,2*%
%TO.N,GND*%
X130000000Y-96500000D03*
%TD*%
D21*
%TO.P,D4,1,K_1*%
%TO.N,Net-(D2-K)*%
X99800000Y-87394670D03*
D22*
%TO.P,D4,2,A_2*%
%TO.N,Net-(D3-A)*%
X99800000Y-82314670D03*
%TD*%
D19*
%TO.P,J11,1,Pin_1_1*%
%TO.N,Net-(J11-Pin_1)*%
X123000000Y-80000000D03*
%TD*%
D20*
%TO.P,C2,1*%
%TO.N,Net-(J5-Pin_1)*%
X130000000Y-91250000D03*
%TO.P,C2,2*%
%TO.N,GND*%
X130000000Y-93750000D03*
%TD*%
D19*
%TO.P,J7,1,Pin_1_1*%
%TO.N,GND*%
X123000000Y-97500000D03*
%TD*%
D20*
%TO.P,C1,1*%
%TO.N,Net-(Q1-G)*%
X111750000Y-116500000D03*
%TO.P,C1,2*%
%TO.N,Net-(U2B--)*%
X114250000Y-116500000D03*
%TD*%
D19*
%TO.P,J9,1,Pin_1_1*%
%TO.N,Net-(J10-Pin_1)*%
X108000000Y-85000000D03*
%TD*%
%TO.P,J12,1,Pin_1_1*%
%TO.N,Net-(J12-Pin_1)*%
X123000000Y-82500000D03*
%TD*%
D14*
%TO.P,R1,1*%
%TO.N,Net-(J4-Pin_1)*%
X104500000Y-118310000D03*
D13*
%TO.P,R1,2*%
%TO.N,Net-(Q1-S)*%
X104500000Y-110690000D03*
%TD*%
D14*
%TO.P,R4,1*%
%TO.N,GND*%
X129000000Y-117310000D03*
D13*
%TO.P,R4,2*%
%TO.N,Net-(C5-Pad2)*%
X129000000Y-109690000D03*
%TD*%
D14*
%TO.P,R10,1*%
%TO.N,Net-(J10-Pin_1)*%
X104750000Y-79940000D03*
D13*
%TO.P,R10,2*%
%TO.N,Net-(D3-A)*%
X104750000Y-87560000D03*
%TD*%
D14*
%TO.P,R3,1*%
%TO.N,Net-(J5-Pin_1)*%
X126500000Y-91440000D03*
D13*
%TO.P,R3,2*%
%TO.N,Net-(U2B--)*%
X126500000Y-99060000D03*
%TD*%
D14*
%TO.P,R8,1*%
%TO.N,-15V*%
X110250000Y-101310000D03*
D13*
%TO.P,R8,2*%
%TO.N,Net-(D3-A)*%
X110250000Y-93690000D03*
%TD*%
D23*
%TO.P,JP3,1,A_1*%
%TO.N,Net-(D2-K)*%
X100900000Y-93000000D03*
%TO.P,JP3,2,C_2*%
%TO.N,Net-(J13-Pin_1)*%
X102200000Y-93000000D03*
%TO.P,JP3,3,B_3*%
%TO.N,Net-(D3-A)*%
X103500000Y-93000000D03*
%TD*%
D14*
%TO.P,R5,1*%
%TO.N,Net-(R5-Pad1)*%
X110250000Y-80190000D03*
D13*
%TO.P,R5,2*%
%TO.N,Net-(JP1-A)*%
X110250000Y-87810000D03*
%TD*%
D24*
%TO.P,Q1,1,D_1*%
%TO.N,Net-(D1-K)*%
X101980000Y-107500000D03*
D25*
%TO.P,Q1,2,G_2*%
%TO.N,Net-(Q1-G)*%
X103250000Y-107500000D03*
%TO.P,Q1,3,S_3*%
%TO.N,Net-(Q1-S)*%
X104520000Y-107500000D03*
%TD*%
D26*
%TO.P,U2,1*%
%TO.N,Net-(C6-Pad2)*%
X113411000Y-103632000D03*
D16*
%TO.P,U2,2,-_2*%
%TO.N,Net-(JP2-B)*%
X115645871Y-103632000D03*
%TO.P,U2,3,+_3*%
%TO.N,Net-(JP1-B)*%
X117226163Y-105212292D03*
%TO.P,U2,4,V-_4*%
%TO.N,-15V*%
X117226164Y-107447164D03*
%TO.P,U2,5,+_5*%
%TO.N,Net-(D1-A)*%
X115645871Y-109027456D03*
%TO.P,U2,6,-_6*%
%TO.N,Net-(U2B--)*%
X113411000Y-109027457D03*
%TO.P,U2,7*%
%TO.N,Net-(Q1-G)*%
X111830708Y-107447163D03*
%TO.P,U2,8,V+_8*%
%TO.N,+15V*%
X111830708Y-105212292D03*
%TD*%
D27*
%TO.N,Net-(D1-A)*%
X122500000Y-102750000D03*
%TO.N,Net-(J5-Pin_1)*%
X121000000Y-90000000D03*
%TO.N,Net-(J12-Pin_1)*%
X124000000Y-86500000D03*
%TO.N,Net-(JP1-B)*%
X118150000Y-95750000D03*
%TO.N,Net-(D3-A)*%
X103500000Y-93000000D03*
%TO.N,Net-(RN1-Pad8)*%
X114000000Y-82250000D03*
%TO.N,Net-(R5-Pad1)*%
X112250000Y-82150000D03*
X112800000Y-79650000D03*
%TO.N,Net-(JP2-A)*%
X111750000Y-89000000D03*
X115775000Y-86249065D03*
X115475000Y-92725000D03*
X118800000Y-78200000D03*
X118815682Y-79710794D03*
%TO.N,Net-(J10-Pin_1)*%
X125500000Y-79400000D03*
X116800000Y-85600000D03*
X120700000Y-79500000D03*
X129900000Y-79700000D03*
X114500000Y-106200000D03*
%TO.N,Net-(JP1-A)*%
X115900000Y-94800000D03*
%TD*%
%TO.N,Net-(JP2-B)*%
D28*
X119900000Y-93800000D02*
X119350000Y-93250000D01*
X115750000Y-99000000D02*
X118400000Y-99000000D01*
X119350000Y-93250000D02*
X118150000Y-93250000D01*
X118400000Y-99000000D02*
X119900000Y-97500000D01*
X119900000Y-97500000D02*
X119900000Y-93800000D01*
%TO.N,+15V*%
D29*
X108750000Y-112000000D02*
X108750000Y-113522613D01*
X123000000Y-107500000D02*
X126000000Y-110500000D01*
X126000000Y-115305456D02*
X126000000Y-114750000D01*
X109750000Y-118000000D02*
X111000000Y-119250000D01*
X109750000Y-114522613D02*
X109750000Y-118000000D01*
X111765248Y-105130651D02*
X111269349Y-105130651D01*
X111269349Y-105130651D02*
X109575000Y-106825000D01*
X126000000Y-110500000D02*
X126000000Y-114750000D01*
X122055456Y-119250000D02*
X126000000Y-115305456D01*
X111000000Y-119250000D02*
X122055456Y-119250000D01*
X109575000Y-111175000D02*
X108750000Y-112000000D01*
X108750000Y-113522613D02*
X109750000Y-114522613D01*
X109575000Y-106825000D02*
X109575000Y-111175000D01*
%TO.N,GND*%
D30*
X125250000Y-95250000D02*
X130000000Y-95250000D01*
X130000000Y-93750000D02*
X130000000Y-96500000D01*
X130000000Y-95250000D02*
X130000000Y-96500000D01*
X123000000Y-97500000D02*
X125250000Y-95250000D01*
%TO.N,-15V*%
D29*
X120000000Y-114250000D02*
X117250000Y-117000000D01*
X120000000Y-108750000D02*
X120000000Y-114250000D01*
X108000000Y-105750000D02*
X110250000Y-103500000D01*
X117160705Y-107365522D02*
X118615522Y-107365522D01*
X110250000Y-103500000D02*
X110250000Y-101310000D01*
X118615522Y-107365522D02*
X120000000Y-108750000D01*
X108000000Y-107500000D02*
X108000000Y-105750000D01*
%TO.N,Net-(D1-A)*%
D28*
X115580412Y-108945815D02*
X115580412Y-112565412D01*
X115580412Y-112565412D02*
X115765000Y-112750000D01*
X122500000Y-102750000D02*
X125250000Y-102750000D01*
X125250000Y-102750000D02*
X126500000Y-104000000D01*
%TO.N,Net-(J5-Pin_1)*%
X122440000Y-91440000D02*
X126500000Y-91440000D01*
X121000000Y-90000000D02*
X122440000Y-91440000D01*
%TO.N,Net-(J12-Pin_1)*%
X120500000Y-86500000D02*
X119395457Y-86500000D01*
D31*
X126500000Y-76500000D02*
X128750000Y-78750000D01*
D28*
X128476346Y-88710000D02*
X121605457Y-88710000D01*
D31*
X113000000Y-58500000D02*
X123000000Y-58500000D01*
X131500000Y-78750000D02*
X132200000Y-79450000D01*
X115080000Y-62500000D02*
X113000000Y-62500000D01*
X112500000Y-62000000D02*
X112500000Y-59000000D01*
X132200000Y-79450000D02*
X132200000Y-83550000D01*
X115540000Y-62960000D02*
X115080000Y-62500000D01*
X113000000Y-62500000D02*
X112500000Y-62000000D01*
D28*
X124000000Y-86500000D02*
X120500000Y-86500000D01*
D31*
X132200000Y-83550000D02*
X131000000Y-84750000D01*
X126500000Y-54500000D02*
X126500000Y-76500000D01*
X124000000Y-54500000D02*
X126500000Y-54500000D01*
X124000000Y-57500000D02*
X124000000Y-54500000D01*
X123000000Y-58500000D02*
X124000000Y-57500000D01*
X128750000Y-78750000D02*
X131500000Y-78750000D01*
X112500000Y-59000000D02*
X113000000Y-58500000D01*
D28*
X131000000Y-84750000D02*
X131000000Y-86186346D01*
X131000000Y-86186346D02*
X128476346Y-88710000D01*
X121605457Y-88710000D02*
X119395457Y-86500000D01*
%TO.N,Net-(J13-Pin_1)*%
X102850000Y-91500000D02*
X106500000Y-91500000D01*
X102200000Y-93000000D02*
X102200000Y-92150000D01*
X106500000Y-91500000D02*
X108000000Y-90000000D01*
X102200000Y-92150000D02*
X102850000Y-91500000D01*
%TO.N,Net-(JP1-B)*%
X126500000Y-107000000D02*
X124630651Y-105130651D01*
X124630651Y-105130651D02*
X117160704Y-105130651D01*
%TO.N,Net-(D2-K)*%
X99605330Y-90000000D02*
X99500000Y-90105330D01*
X100250000Y-95940000D02*
X99500000Y-95190000D01*
X99605330Y-87589340D02*
X99800000Y-87394670D01*
X99500000Y-95190000D02*
X99500000Y-93000000D01*
X104094670Y-83100000D02*
X99800000Y-87394670D01*
X99500000Y-93000000D02*
X100900000Y-93000000D01*
X115580293Y-82684836D02*
X115165129Y-83100000D01*
X99500000Y-90105330D02*
X99500000Y-93000000D01*
X99605330Y-90000000D02*
X99605330Y-87589340D01*
X115165129Y-83100000D02*
X104094670Y-83100000D01*
%TO.N,Net-(D3-A)*%
X99800000Y-82314670D02*
X102500000Y-82314670D01*
X116750000Y-91000000D02*
X117815164Y-89934836D01*
X117815164Y-89934836D02*
X117815164Y-88080293D01*
X112940000Y-91000000D02*
X116750000Y-91000000D01*
X110250000Y-93690000D02*
X112940000Y-91000000D01*
%TO.N,Net-(J1-Pin_1)*%
D31*
X112500000Y-68000000D02*
X112500000Y-66000000D01*
X123000000Y-52500000D02*
X115500000Y-52500000D01*
X104500000Y-57000000D02*
X107500000Y-57000000D01*
X104500000Y-54500000D02*
X104500000Y-57000000D01*
X112500000Y-66000000D02*
X113000000Y-65500000D01*
X112000000Y-68500000D02*
X112500000Y-68000000D01*
X107500000Y-57000000D02*
X108500000Y-58000000D01*
X109000000Y-68500000D02*
X112000000Y-68500000D01*
X108500000Y-68000000D02*
X109000000Y-68500000D01*
X108500000Y-58000000D02*
X108500000Y-68000000D01*
X113500000Y-54500000D02*
X104500000Y-54500000D01*
X115500000Y-52500000D02*
X113500000Y-54500000D01*
%TO.N,Net-(RN1-Pad8)*%
D28*
X114250000Y-76500000D02*
X114250000Y-82000000D01*
X114250000Y-82000000D02*
X114000000Y-82250000D01*
X107000000Y-76500000D02*
X114250000Y-76500000D01*
D31*
X118000000Y-68500000D02*
X116000000Y-68500000D01*
X118500000Y-69000000D02*
X118000000Y-68500000D01*
X118500000Y-72000000D02*
X118500000Y-69000000D01*
X118000000Y-72500000D02*
X118500000Y-72000000D01*
X107000000Y-76500000D02*
X107000000Y-73600000D01*
X107000000Y-73600000D02*
X108100000Y-72500000D01*
X108100000Y-72500000D02*
X118000000Y-72500000D01*
X116000000Y-68500000D02*
X115540000Y-68040000D01*
%TO.N,Net-(R5-Pad1)*%
D32*
X112800000Y-79650000D02*
X112800000Y-81600000D01*
X112800000Y-81600000D02*
X112250000Y-82150000D01*
%TO.N,Net-(JP2-A)*%
D31*
X116000000Y-86024065D02*
X115775000Y-86249065D01*
X115775000Y-86249065D02*
X115938262Y-86249065D01*
X116815164Y-81711312D02*
X116815164Y-84453465D01*
X116000000Y-85268629D02*
X116000000Y-86024065D01*
X116815164Y-84453465D02*
X116000000Y-85268629D01*
D28*
X111750000Y-89000000D02*
X111750000Y-88750000D01*
D31*
X122000000Y-62500000D02*
X119000000Y-62500000D01*
X118500000Y-65000000D02*
X118080000Y-65420000D01*
X115938262Y-86249065D02*
X115987327Y-86200000D01*
X119000000Y-62500000D02*
X118500000Y-63000000D01*
X118800000Y-76500000D02*
X122500000Y-76500000D01*
X118080000Y-65420000D02*
X118080000Y-65500000D01*
X122500000Y-63000000D02*
X122000000Y-62500000D01*
X118800000Y-76500000D02*
X118800000Y-78200000D01*
D28*
X116850000Y-93250000D02*
X116000000Y-93250000D01*
X116000000Y-93250000D02*
X115475000Y-92725000D01*
D31*
X118500000Y-63000000D02*
X118500000Y-65000000D01*
D28*
X111750000Y-88750000D02*
X114000000Y-86500000D01*
D31*
X118815682Y-79710794D02*
X116815164Y-81711312D01*
X122500000Y-76500000D02*
X122500000Y-63000000D01*
%TO.N,Net-(J4-Pin_1)*%
X108000000Y-102500000D02*
X108000000Y-100000000D01*
X106000000Y-115020101D02*
X106000000Y-104500000D01*
X106000000Y-104500000D02*
X108000000Y-102500000D01*
X104500000Y-116520101D02*
X106000000Y-115020101D01*
X104500000Y-118310000D02*
X104500000Y-116520101D01*
%TO.N,Net-(J11-Pin_1)*%
D28*
X121500000Y-81500000D02*
X123000000Y-80000000D01*
X125250000Y-82250000D02*
X123000000Y-80000000D01*
X122750000Y-84750000D02*
X120684836Y-82684836D01*
X117815164Y-82684836D02*
X119000000Y-81500000D01*
X119000000Y-81500000D02*
X121500000Y-81500000D01*
X120684836Y-82684836D02*
X117815164Y-82684836D01*
X128000000Y-87560000D02*
X125190000Y-84750000D01*
X131000000Y-82250000D02*
X125250000Y-82250000D01*
X125190000Y-84750000D02*
X122750000Y-84750000D01*
%TO.N,Net-(J10-Pin_1)*%
D33*
X119700000Y-89000000D02*
X119900000Y-88800000D01*
X115100000Y-90300000D02*
X116800000Y-88600000D01*
X115100000Y-86700000D02*
X115400000Y-87000000D01*
X123800000Y-106200000D02*
X121000000Y-106200000D01*
X120100000Y-78900000D02*
X114775000Y-78900000D01*
X115700000Y-117600000D02*
X115200000Y-118100000D01*
X119950000Y-88750000D02*
X116800000Y-85600000D01*
X131500000Y-90500000D02*
X131500000Y-91900000D01*
X110600000Y-90300000D02*
X115100000Y-90300000D01*
X114500000Y-97800000D02*
X113000000Y-96300000D01*
X122200000Y-99300000D02*
X123800000Y-99300000D01*
X119700000Y-89000000D02*
X119950000Y-88750000D01*
X116700000Y-115200000D02*
X115700000Y-116200000D01*
X111522027Y-106200000D02*
X114500000Y-106200000D01*
X127800000Y-100200000D02*
X127800000Y-107500000D01*
X121300000Y-98400000D02*
X122200000Y-99300000D01*
X104750000Y-79940000D02*
X106510000Y-81700000D01*
X130000000Y-99000000D02*
X128100000Y-99000000D01*
X125500000Y-79400000D02*
X125800000Y-79400000D01*
X120900000Y-88800000D02*
X122000000Y-89900000D01*
X116900000Y-91800000D02*
X119700000Y-89000000D01*
X130900000Y-92500000D02*
X130553122Y-92500000D01*
X128100000Y-98400000D02*
X128100000Y-99000000D01*
X117500000Y-115200000D02*
X116700000Y-115200000D01*
X115400000Y-87000000D02*
X116800000Y-87000000D01*
X112900000Y-117450000D02*
X112900000Y-111000000D01*
X115700000Y-116200000D02*
X115700000Y-117600000D01*
X130528122Y-92475000D02*
X129471878Y-92475000D01*
X121000000Y-106200000D02*
X121100000Y-106200000D01*
X113000000Y-96300000D02*
X113000000Y-92700000D01*
X108140129Y-85140129D02*
X114440128Y-85140129D01*
X118900000Y-113800000D02*
X117500000Y-115200000D01*
X114440128Y-85140129D02*
X115100000Y-85800001D01*
X114500000Y-106200000D02*
X118900000Y-110600000D01*
X120700000Y-79500000D02*
X120100000Y-78900000D01*
X115200000Y-118100000D02*
X113550000Y-118100000D01*
X114500000Y-106200000D02*
X121000000Y-106200000D01*
X130900000Y-89900000D02*
X131500000Y-90500000D01*
X114500000Y-106200000D02*
X114500000Y-97800000D01*
X111800000Y-79695405D02*
X112595405Y-78900000D01*
X113000000Y-92700000D02*
X113900000Y-91800000D01*
X123000000Y-110800000D02*
X123000000Y-115000000D01*
X125400000Y-97700000D02*
X127400000Y-97700000D01*
X116800000Y-88600000D02*
X116800000Y-85600000D01*
X110700000Y-81700000D02*
X111800000Y-80600000D01*
X127225000Y-108075000D02*
X125675000Y-108075000D01*
X127400000Y-97700000D02*
X128100000Y-98400000D01*
X130553122Y-92500000D02*
X130528122Y-92475000D01*
X131500000Y-91900000D02*
X130900000Y-92500000D01*
X128100000Y-99900000D02*
X127800000Y-100200000D01*
X122000000Y-89900000D02*
X130900000Y-89900000D01*
X118900000Y-110600000D02*
X118900000Y-113800000D01*
X113900000Y-91800000D02*
X116900000Y-91800000D01*
X108000000Y-85000000D02*
X108140129Y-85140129D01*
X123800000Y-99300000D02*
X125400000Y-97700000D01*
X129346878Y-92600000D02*
X125600000Y-92600000D01*
X127800000Y-107500000D02*
X127225000Y-108075000D01*
X115100000Y-85800001D02*
X115100000Y-86700000D01*
X127315000Y-80915000D02*
X128685000Y-80915000D01*
X121100000Y-108900000D02*
X123000000Y-110800000D01*
X110633379Y-108733379D02*
X110633379Y-107088648D01*
X129471878Y-92475000D02*
X129346878Y-92600000D01*
X128685000Y-80915000D02*
X129900000Y-79700000D01*
X125675000Y-108075000D02*
X123800000Y-106200000D01*
X119900000Y-88800000D02*
X120900000Y-88800000D01*
X112595405Y-78900000D02*
X113725000Y-78900000D01*
X125800000Y-79400000D02*
X127315000Y-80915000D01*
X106510000Y-81700000D02*
X110700000Y-81700000D01*
X128100000Y-99000000D02*
X128100000Y-99900000D01*
X116800000Y-87000000D02*
X116800000Y-85600000D01*
X108000000Y-87700000D02*
X110600000Y-90300000D01*
X112900000Y-111000000D02*
X110633379Y-108733379D01*
X121300000Y-96900000D02*
X121300000Y-98400000D01*
X113550000Y-118100000D02*
X112900000Y-117450000D01*
X108000000Y-85000000D02*
X108000000Y-87700000D01*
X110633379Y-107088648D02*
X111522027Y-106200000D01*
X111800000Y-80600000D02*
X111800000Y-79695405D01*
X121100000Y-106200000D02*
X121100000Y-108900000D01*
X125600000Y-92600000D02*
X121300000Y-96900000D01*
%TO.N,Net-(JP1-A)*%
D28*
X116850000Y-95750000D02*
X115900000Y-94800000D01*
%TD*%
%TA.AperFunction,Conductor*%
%TO.N,Net-(J1-Pin_1)*%
G36*
X107873120Y-54000096D02*
G01*
X107877958Y-54000286D01*
X107880959Y-54000462D01*
X107881889Y-54000499D01*
X107881902Y-54000500D01*
X107881908Y-54000500D01*
X108118086Y-54000500D01*
X108118098Y-54000500D01*
X108118110Y-54000499D01*
X108119037Y-54000462D01*
X108121992Y-54000287D01*
X108126924Y-54000094D01*
X108131746Y-54000000D01*
X115358170Y-54000000D01*
X115393100Y-54005022D01*
X115406115Y-54008843D01*
X115464895Y-54046615D01*
X115493922Y-54110169D01*
X115494869Y-54136664D01*
X115494500Y-54141820D01*
X115494500Y-54862665D01*
X115494739Y-54867134D01*
X115478663Y-54935130D01*
X115452127Y-54967462D01*
X115451437Y-54968060D01*
X115396597Y-54995518D01*
X115389039Y-54997163D01*
X115362668Y-55000000D01*
X105000000Y-55000000D01*
X105000000Y-76060500D01*
X104999684Y-76069346D01*
X104994500Y-76141826D01*
X104994500Y-76862665D01*
X104994739Y-76867134D01*
X104978663Y-76935130D01*
X104952127Y-76967462D01*
X104951437Y-76968060D01*
X104896597Y-76995518D01*
X104889039Y-76997163D01*
X104862668Y-77000000D01*
X104141830Y-77000000D01*
X104106889Y-76994975D01*
X104091890Y-76990570D01*
X104033144Y-76952827D01*
X104031957Y-76951458D01*
X104004477Y-76896583D01*
X104002832Y-76889021D01*
X104000000Y-76862668D01*
X104000000Y-54141829D01*
X104005023Y-54106893D01*
X104009427Y-54091895D01*
X104047172Y-54033144D01*
X104048541Y-54031957D01*
X104103420Y-54004477D01*
X104110979Y-54002833D01*
X104137332Y-54000000D01*
X107868254Y-54000000D01*
X107873120Y-54000096D01*
G37*
%TD.AperFunction*%
%TD*%
%TA.AperFunction,Conductor*%
%TO.N,Net-(RN1-Pad8)*%
G36*
X115393101Y-76005022D02*
G01*
X115405431Y-76008642D01*
X115464210Y-76046414D01*
X115493237Y-76109969D01*
X115494500Y-76127620D01*
X115494500Y-76874118D01*
X115474815Y-76941157D01*
X115451620Y-76967902D01*
X115451346Y-76968139D01*
X115396597Y-76995518D01*
X115389039Y-76997163D01*
X115362668Y-77000000D01*
X105641830Y-77000000D01*
X105606889Y-76994975D01*
X105591890Y-76990570D01*
X105533144Y-76952827D01*
X105531957Y-76951458D01*
X105504477Y-76896583D01*
X105502832Y-76889021D01*
X105500000Y-76862668D01*
X105500000Y-76141829D01*
X105505023Y-76106893D01*
X105509427Y-76091895D01*
X105547172Y-76033144D01*
X105548541Y-76031957D01*
X105603420Y-76004477D01*
X105610979Y-76002833D01*
X105637332Y-76000000D01*
X115358170Y-76000000D01*
X115393101Y-76005022D01*
G37*
%TD.AperFunction*%
%TD*%
%TA.AperFunction,Conductor*%
%TO.N,Net-(J12-Pin_1)*%
G36*
X122873120Y-54000096D02*
G01*
X122877958Y-54000286D01*
X122880959Y-54000462D01*
X122881889Y-54000499D01*
X122881902Y-54000500D01*
X122881908Y-54000500D01*
X123118086Y-54000500D01*
X123118098Y-54000500D01*
X123118110Y-54000499D01*
X123119037Y-54000462D01*
X123121992Y-54000287D01*
X123126924Y-54000094D01*
X123131746Y-54000000D01*
X126858170Y-54000000D01*
X126893106Y-54005023D01*
X126908104Y-54009427D01*
X126966855Y-54047172D01*
X126968042Y-54048541D01*
X126995518Y-54103402D01*
X126997163Y-54110960D01*
X127000000Y-54137331D01*
X127000000Y-76858170D01*
X126994975Y-76893114D01*
X126990570Y-76908112D01*
X126952827Y-76966855D01*
X126951458Y-76968042D01*
X126896597Y-76995518D01*
X126889039Y-76997163D01*
X126862668Y-77000000D01*
X126141830Y-77000000D01*
X126106890Y-76994976D01*
X126094560Y-76991355D01*
X126035784Y-76953578D01*
X126006761Y-76890021D01*
X126005500Y-76872379D01*
X126005500Y-76124010D01*
X126005500Y-76124000D01*
X126000710Y-76079446D01*
X126000000Y-76066193D01*
X126000000Y-55000000D01*
X116141830Y-55000000D01*
X116106889Y-54994975D01*
X116091890Y-54990570D01*
X116033144Y-54952827D01*
X116031957Y-54951458D01*
X116004477Y-54896583D01*
X116002832Y-54889021D01*
X116000000Y-54862668D01*
X116000000Y-54141829D01*
X116005023Y-54106893D01*
X116009427Y-54091895D01*
X116047172Y-54033144D01*
X116048541Y-54031957D01*
X116103420Y-54004477D01*
X116110979Y-54002833D01*
X116137332Y-54000000D01*
X122868254Y-54000000D01*
X122873120Y-54000096D01*
G37*
%TD.AperFunction*%
%TD*%
%TA.AperFunction,Conductor*%
%TO.N,Net-(JP2-A)*%
G36*
X125443039Y-76019685D02*
G01*
X125488794Y-76072489D01*
X125500000Y-76124000D01*
X125500000Y-76876000D01*
X125480315Y-76943039D01*
X125427511Y-76988794D01*
X125376000Y-77000000D01*
X116124000Y-77000000D01*
X116056961Y-76980315D01*
X116011206Y-76927511D01*
X116000000Y-76876000D01*
X116000000Y-76124000D01*
X116019685Y-76056961D01*
X116072489Y-76011206D01*
X116124000Y-76000000D01*
X125376000Y-76000000D01*
X125443039Y-76019685D01*
G37*
%TD.AperFunction*%
%TD*%
M02*
