%TF.GenerationSoftware,KiCad,Pcbnew,7.0.10*%
%TF.CreationDate,2025-01-02T12:32:12+01:00*%
%TF.ProjectId,Datron 1281 Referenz,44617472-6f6e-4203-9132-383120526566,1*%
%TF.SameCoordinates,Original*%
%TF.FileFunction,Copper,L1,Top*%
%TF.FilePolarity,Positive*%
%FSLAX46Y46*%
G04 Gerber Fmt 4.6, Leading zero omitted, Abs format (unit mm)*
G04 Created by KiCad (PCBNEW 7.0.10) date 2025-01-02 12:32:12*
%MOMM*%
%LPD*%
G01*
G04 APERTURE LIST*
G04 Aperture macros list*
%AMHorizOval*
0 Thick line with rounded ends*
0 $1 width*
0 $2 $3 position (X,Y) of the first rounded end (center of the circle)*
0 $4 $5 position (X,Y) of the second rounded end (center of the circle)*
0 Add line between two ends*
20,1,$1,$2,$3,$4,$5,0*
0 Add two circle primitives to create the rounded ends*
1,1,$1,$2,$3*
1,1,$1,$4,$5*%
G04 Aperture macros list end*
%ADD10C,0.250000*%
%TA.AperFunction,NonConductor*%
%ADD11C,0.250000*%
%TD*%
%TA.AperFunction,ComponentPad*%
%ADD12C,2.000000*%
%TD*%
%TA.AperFunction,ComponentPad*%
%ADD13R,1.228000X1.228000*%
%TD*%
%TA.AperFunction,ComponentPad*%
%ADD14C,1.228000*%
%TD*%
%TA.AperFunction,ComponentPad*%
%ADD15C,1.600000*%
%TD*%
%TA.AperFunction,ComponentPad*%
%ADD16C,1.400000*%
%TD*%
%TA.AperFunction,ComponentPad*%
%ADD17O,1.400000X1.400000*%
%TD*%
%TA.AperFunction,ComponentPad*%
%ADD18R,1.500000X1.500000*%
%TD*%
%TA.AperFunction,ComponentPad*%
%ADD19O,1.500000X1.500000*%
%TD*%
%TA.AperFunction,ComponentPad*%
%ADD20HorizOval,1.200000X0.184776X0.076537X-0.184776X-0.076537X0*%
%TD*%
%TA.AperFunction,ComponentPad*%
%ADD21HorizOval,1.200000X0.000000X0.000000X0.000000X0.000000X0*%
%TD*%
%TA.AperFunction,SMDPad,CuDef*%
%ADD22R,1.000000X1.500000*%
%TD*%
%TA.AperFunction,ComponentPad*%
%ADD23R,1.050000X1.500000*%
%TD*%
%TA.AperFunction,ComponentPad*%
%ADD24O,1.050000X1.500000*%
%TD*%
%TA.AperFunction,ViaPad*%
%ADD25C,0.800000*%
%TD*%
%TA.AperFunction,Conductor*%
%ADD26C,0.750000*%
%TD*%
%TA.AperFunction,Conductor*%
%ADD27C,2.000000*%
%TD*%
%TA.AperFunction,Conductor*%
%ADD28C,0.500000*%
%TD*%
%TA.AperFunction,Conductor*%
%ADD29C,0.400000*%
%TD*%
%TA.AperFunction,Conductor*%
%ADD30C,0.300000*%
%TD*%
%TA.AperFunction,Conductor*%
%ADD31C,0.150000*%
%TD*%
G04 APERTURE END LIST*
D10*
D11*
X119768860Y-49057761D02*
X119768860Y-51057761D01*
X119768860Y-49153000D02*
X120006955Y-49057761D01*
X120006955Y-49057761D02*
X120483146Y-49057761D01*
X120483146Y-49057761D02*
X120721241Y-49153000D01*
X120721241Y-49153000D02*
X120840288Y-49248238D01*
X120840288Y-49248238D02*
X120959336Y-49438714D01*
X120959336Y-49438714D02*
X120959336Y-50010142D01*
X120959336Y-50010142D02*
X120840288Y-50200619D01*
X120840288Y-50200619D02*
X120721241Y-50295857D01*
X120721241Y-50295857D02*
X120483146Y-50391095D01*
X120483146Y-50391095D02*
X120006955Y-50391095D01*
X120006955Y-50391095D02*
X119768860Y-50295857D01*
X117506955Y-49057761D02*
X117506955Y-50105380D01*
X117506955Y-50105380D02*
X117626002Y-50295857D01*
X117626002Y-50295857D02*
X117864098Y-50391095D01*
X117864098Y-50391095D02*
X118340288Y-50391095D01*
X118340288Y-50391095D02*
X118578383Y-50295857D01*
X117506955Y-49153000D02*
X117745050Y-49057761D01*
X117745050Y-49057761D02*
X118340288Y-49057761D01*
X118340288Y-49057761D02*
X118578383Y-49153000D01*
X118578383Y-49153000D02*
X118697431Y-49343476D01*
X118697431Y-49343476D02*
X118697431Y-49533952D01*
X118697431Y-49533952D02*
X118578383Y-49724428D01*
X118578383Y-49724428D02*
X118340288Y-49819666D01*
X118340288Y-49819666D02*
X117745050Y-49819666D01*
X117745050Y-49819666D02*
X117506955Y-49914904D01*
X116673621Y-50391095D02*
X115721240Y-50391095D01*
X116316478Y-51057761D02*
X116316478Y-49343476D01*
X116316478Y-49343476D02*
X116197431Y-49153000D01*
X116197431Y-49153000D02*
X115959336Y-49057761D01*
X115959336Y-49057761D02*
X115721240Y-49057761D01*
X114887907Y-49057761D02*
X114887907Y-50391095D01*
X114887907Y-50010142D02*
X114768860Y-50200619D01*
X114768860Y-50200619D02*
X114649812Y-50295857D01*
X114649812Y-50295857D02*
X114411717Y-50391095D01*
X114411717Y-50391095D02*
X114173622Y-50391095D01*
X112983146Y-49057761D02*
X113221241Y-49153000D01*
X113221241Y-49153000D02*
X113340288Y-49248238D01*
X113340288Y-49248238D02*
X113459336Y-49438714D01*
X113459336Y-49438714D02*
X113459336Y-50010142D01*
X113459336Y-50010142D02*
X113340288Y-50200619D01*
X113340288Y-50200619D02*
X113221241Y-50295857D01*
X113221241Y-50295857D02*
X112983146Y-50391095D01*
X112983146Y-50391095D02*
X112626003Y-50391095D01*
X112626003Y-50391095D02*
X112387907Y-50295857D01*
X112387907Y-50295857D02*
X112268860Y-50200619D01*
X112268860Y-50200619D02*
X112149812Y-50010142D01*
X112149812Y-50010142D02*
X112149812Y-49438714D01*
X112149812Y-49438714D02*
X112268860Y-49248238D01*
X112268860Y-49248238D02*
X112387907Y-49153000D01*
X112387907Y-49153000D02*
X112626003Y-49057761D01*
X112626003Y-49057761D02*
X112983146Y-49057761D01*
X111078383Y-50391095D02*
X111078383Y-49057761D01*
X111078383Y-50200619D02*
X110959336Y-50295857D01*
X110959336Y-50295857D02*
X110721241Y-50391095D01*
X110721241Y-50391095D02*
X110364098Y-50391095D01*
X110364098Y-50391095D02*
X110126002Y-50295857D01*
X110126002Y-50295857D02*
X110006955Y-50105380D01*
X110006955Y-50105380D02*
X110006955Y-49057761D01*
%TA.AperFunction,EtchedComponent*%
%TO.C,JP1*%
G36*
X117750000Y-95550000D02*
G01*
X117250000Y-95550000D01*
X117250000Y-95150000D01*
X117750000Y-95150000D01*
X117750000Y-95550000D01*
G37*
%TD.AperFunction*%
%TA.AperFunction,EtchedComponent*%
G36*
X117750000Y-96350000D02*
G01*
X117250000Y-96350000D01*
X117250000Y-95950000D01*
X117750000Y-95950000D01*
X117750000Y-96350000D01*
G37*
%TD.AperFunction*%
%TA.AperFunction,EtchedComponent*%
%TO.C,JP2*%
G36*
X117750000Y-93050000D02*
G01*
X117250000Y-93050000D01*
X117250000Y-92650000D01*
X117750000Y-92650000D01*
X117750000Y-93050000D01*
G37*
%TD.AperFunction*%
%TA.AperFunction,EtchedComponent*%
G36*
X117750000Y-93850000D02*
G01*
X117250000Y-93850000D01*
X117250000Y-93450000D01*
X117750000Y-93450000D01*
X117750000Y-93850000D01*
G37*
%TD.AperFunction*%
%TA.AperFunction,EtchedComponent*%
%TO.C,JP3*%
G36*
X101800000Y-92800000D02*
G01*
X101300000Y-92800000D01*
X101300000Y-92400000D01*
X101800000Y-92400000D01*
X101800000Y-92800000D01*
G37*
%TD.AperFunction*%
%TA.AperFunction,EtchedComponent*%
G36*
X101800000Y-93600000D02*
G01*
X101300000Y-93600000D01*
X101300000Y-93200000D01*
X101800000Y-93200000D01*
X101800000Y-93600000D01*
G37*
%TD.AperFunction*%
%TD*%
D12*
%TO.P,J4,1,Pin_1*%
%TO.N,Net-(J4-Pin_1)*%
X108000000Y-100000000D03*
%TD*%
D13*
%TO.P,IC1,1,HEATER_POSITIVE*%
%TO.N,Net-(IC1-HEATER_POSITIVE)*%
X113000000Y-65500000D03*
D14*
%TO.P,IC1,2,HEATER_NEGATIVE*%
%TO.N,Net-(D1-K)*%
X113826000Y-67214000D03*
%TO.P,IC1,3,ZENER_POSITIVE*%
%TO.N,Net-(IC1-ZENER_POSITIVE)*%
X115540000Y-68040000D03*
%TO.P,IC1,4,SUBSTRATE_AND_ZENER_NEGATIVE*%
%TO.N,Net-(IC1-SUBSTRATE_AND_ZENER_NEGATIVE)*%
X117255000Y-67214000D03*
%TO.P,IC1,5,TEMPERATURE_COMPENSATING_TRANSISTOR_COLLECTOR*%
%TO.N,Net-(IC1-TEMPERATURE_COMPENSATING_TRANSISTOR_COLLECTOR)*%
X118080000Y-65500000D03*
%TO.P,IC1,6,TEMPERATURE_SENSING_TRANSISTOR_BASE*%
%TO.N,Net-(IC1-TEMPERATURE_SENSING_TRANSISTOR_BASE)*%
X117255000Y-63785000D03*
%TO.P,IC1,7,EMITTER_OF_SENSING_AND_COMPENSATING_TRANSISTORS*%
%TO.N,Net-(IC1-EMITTER_OF_SENSING_AND_COMPENSATING_TRANSISTORS)*%
X115540000Y-62960000D03*
%TO.P,IC1,8,COLLECTOR_OF_SENSING_TRANSISTOR*%
%TO.N,Net-(D1-A)*%
X113826000Y-63785000D03*
%TD*%
D15*
%TO.P,C8,1*%
%TO.N,Net-(J11-Pin_1)*%
X131000000Y-82250000D03*
%TO.P,C8,2*%
%TO.N,Net-(IC1-EMITTER_OF_SENSING_AND_COMPENSATING_TRANSISTORS)*%
X131000000Y-84750000D03*
%TD*%
D16*
%TO.P,R11,1*%
%TO.N,Net-(J11-Pin_1)*%
X128000000Y-87560000D03*
D17*
%TO.P,R11,2*%
%TO.N,Net-(D1-A)*%
X128000000Y-79940000D03*
%TD*%
D15*
%TO.P,C4,1*%
%TO.N,-15V*%
X117250000Y-117000000D03*
%TO.P,C4,2*%
%TO.N,GND*%
X119750000Y-117000000D03*
%TD*%
D12*
%TO.P,J3,1,Pin_1*%
%TO.N,Net-(D1-K)*%
X108000000Y-52500000D03*
%TD*%
D16*
%TO.P,R2,1*%
%TO.N,Net-(J2-Pin_1)*%
X101750000Y-118310000D03*
D17*
%TO.P,R2,2*%
%TO.N,Net-(D1-K)*%
X101750000Y-110690000D03*
%TD*%
D12*
%TO.P,J6,1,Pin_1*%
%TO.N,+15V*%
X123000000Y-107500000D03*
%TD*%
%TO.P,J5,1,Pin_1*%
%TO.N,Net-(IC1-TEMPERATURE_SENSING_TRANSISTOR_BASE)*%
X108000000Y-80000000D03*
%TD*%
%TO.P,J1,1,Pin_1*%
%TO.N,Net-(IC1-HEATER_POSITIVE)*%
X123000000Y-52500000D03*
%TD*%
D18*
%TO.P,D3,1,K*%
%TO.N,Net-(D2-A)*%
X102500000Y-87394670D03*
D19*
%TO.P,D3,2,A*%
%TO.N,Net-(D3-A)*%
X102500000Y-82314670D03*
%TD*%
D20*
%TO.P,IC2,1,OUTPUT_A*%
%TO.N,Net-(IC2-OUTPUT_A)*%
X111765248Y-107365522D03*
D21*
%TO.P,IC2,2,-IN_A*%
%TO.N,Net-(IC2--IN_A)*%
X113345541Y-108945815D03*
%TO.P,IC2,3,+IN_A*%
%TO.N,Net-(D1-A)*%
X115580412Y-108945815D03*
%TO.P,IC2,4,V-*%
%TO.N,-15V*%
X117160705Y-107365522D03*
%TO.P,IC2,5,+IN_B*%
%TO.N,Net-(IC2-+IN_B)*%
X117160704Y-105130651D03*
%TO.P,IC2,6,-IN_B*%
%TO.N,Net-(IC2--IN_B)*%
X115580412Y-103550358D03*
%TO.P,IC2,7,OUTPUT_B*%
%TO.N,Net-(IC2-OUTPUT_B)*%
X113345541Y-103550358D03*
%TO.P,IC2,8,V+*%
%TO.N,+15V*%
X111765248Y-105130651D03*
%TD*%
D12*
%TO.P,J2,1,Pin_1*%
%TO.N,Net-(J2-Pin_1)*%
X108000000Y-115000000D03*
%TD*%
D15*
%TO.P,C7,1*%
%TO.N,+15V*%
X126000000Y-114750000D03*
%TO.P,C7,2*%
%TO.N,GND*%
X126000000Y-117250000D03*
%TD*%
%TO.P,C6,1*%
%TO.N,Net-(IC2--IN_B)*%
X115750000Y-99000000D03*
%TO.P,C6,2*%
%TO.N,Net-(IC2-OUTPUT_B)*%
X113250000Y-99000000D03*
%TD*%
D22*
%TO.P,JP1,1,A*%
%TO.N,Net-(JP1-A)*%
X116850000Y-95750000D03*
%TO.P,JP1,2,B*%
%TO.N,Net-(IC2-+IN_B)*%
X118150000Y-95750000D03*
%TD*%
D12*
%TO.P,J10,1,Pin_1*%
%TO.N,Net-(J10-Pin_1)*%
X123000000Y-115000000D03*
%TD*%
D18*
%TO.P,D2,1,K*%
%TO.N,Net-(D2-K)*%
X99605330Y-90000000D03*
D19*
%TO.P,D2,2,A*%
%TO.N,Net-(D2-A)*%
X104685330Y-90000000D03*
%TD*%
D15*
%TO.P,C5,1*%
%TO.N,Net-(C5-Pad1)*%
X129000000Y-107000000D03*
%TO.P,C5,2*%
%TO.N,Net-(IC2-+IN_B)*%
X126500000Y-107000000D03*
%TD*%
D16*
%TO.P,R6,1*%
%TO.N,Net-(IC2-OUTPUT_B)*%
X102500000Y-103560000D03*
D17*
%TO.P,R6,2*%
%TO.N,Net-(D2-A)*%
X102500000Y-95940000D03*
%TD*%
D16*
%TO.P,R7,1*%
%TO.N,Net-(D2-K)*%
X104750000Y-95940000D03*
D17*
%TO.P,R7,2*%
%TO.N,+15V*%
X104750000Y-103560000D03*
%TD*%
D15*
%TO.P,C3,1*%
%TO.N,Net-(D1-A)*%
X126500000Y-104000000D03*
%TO.P,C3,2*%
%TO.N,GND*%
X129000000Y-104000000D03*
%TD*%
D12*
%TO.P,J8,1,Pin_1*%
%TO.N,-15V*%
X108000000Y-107500000D03*
%TD*%
D22*
%TO.P,JP2,1,A*%
%TO.N,Net-(IC1-TEMPERATURE_COMPENSATING_TRANSISTOR_COLLECTOR)*%
X116850000Y-93250000D03*
%TO.P,JP2,2,B*%
%TO.N,Net-(IC2--IN_B)*%
X118150000Y-93250000D03*
%TD*%
D16*
%TO.P,R9,1*%
%TO.N,Net-(J10-Pin_1)*%
X100250000Y-103560000D03*
D17*
%TO.P,R9,2*%
%TO.N,Net-(D2-K)*%
X100250000Y-95940000D03*
%TD*%
D20*
%TO.P,U1,1*%
%TO.N,Net-(IC1-TEMPERATURE_COMPENSATING_TRANSISTOR_COLLECTOR)*%
X114000000Y-86500000D03*
D21*
%TO.P,U1,2*%
%TO.N,Net-(IC1-SUBSTRATE_AND_ZENER_NEGATIVE)*%
X115580293Y-88080293D03*
%TO.P,U1,3*%
%TO.N,Net-(D3-A)*%
X117815164Y-88080293D03*
%TO.P,U1,4*%
%TO.N,Net-(IC1-EMITTER_OF_SENSING_AND_COMPENSATING_TRANSISTORS)*%
X119395457Y-86500000D03*
%TO.P,U1,5*%
%TO.N,Net-(IC1-TEMPERATURE_SENSING_TRANSISTOR_BASE)*%
X119395456Y-84265129D03*
%TO.P,U1,6*%
%TO.N,Net-(J11-Pin_1)*%
X117815164Y-82684836D03*
%TO.P,U1,7*%
%TO.N,Net-(D2-K)*%
X115580293Y-82684836D03*
%TO.P,U1,8*%
%TO.N,Net-(IC1-ZENER_POSITIVE)*%
X114000000Y-84265129D03*
%TD*%
D18*
%TO.P,D1,1,K*%
%TO.N,Net-(D1-K)*%
X110685000Y-112750000D03*
D19*
%TO.P,D1,2,A*%
%TO.N,Net-(D1-A)*%
X115765000Y-112750000D03*
%TD*%
D12*
%TO.P,J13,1,Pin_1*%
%TO.N,Net-(J13-Pin_1)*%
X108000000Y-90000000D03*
%TD*%
D15*
%TO.P,C9,1*%
%TO.N,Net-(J10-Pin_1)*%
X130000000Y-99000000D03*
%TO.P,C9,2*%
%TO.N,GND*%
X130000000Y-96500000D03*
%TD*%
D18*
%TO.P,D4,1,K*%
%TO.N,Net-(D2-K)*%
X99800000Y-87394670D03*
D19*
%TO.P,D4,2,A*%
%TO.N,Net-(D3-A)*%
X99800000Y-82314670D03*
%TD*%
D12*
%TO.P,J11,1,Pin_1*%
%TO.N,Net-(J11-Pin_1)*%
X123000000Y-80000000D03*
%TD*%
D15*
%TO.P,C2,1*%
%TO.N,Net-(IC1-TEMPERATURE_SENSING_TRANSISTOR_BASE)*%
X130000000Y-91250000D03*
%TO.P,C2,2*%
%TO.N,GND*%
X130000000Y-93750000D03*
%TD*%
D12*
%TO.P,J7,1,Pin_1*%
%TO.N,GND*%
X123000000Y-97500000D03*
%TD*%
D15*
%TO.P,C1,1*%
%TO.N,Net-(IC2-OUTPUT_A)*%
X111750000Y-116500000D03*
%TO.P,C1,2*%
%TO.N,Net-(IC2--IN_A)*%
X114250000Y-116500000D03*
%TD*%
D12*
%TO.P,J9,1,Pin_1*%
%TO.N,Net-(J10-Pin_1)*%
X108000000Y-85000000D03*
%TD*%
%TO.P,J12,1,Pin_1*%
%TO.N,Net-(IC1-EMITTER_OF_SENSING_AND_COMPENSATING_TRANSISTORS)*%
X123000000Y-82500000D03*
%TD*%
D16*
%TO.P,R1,1*%
%TO.N,Net-(J4-Pin_1)*%
X104500000Y-118310000D03*
D17*
%TO.P,R1,2*%
%TO.N,Net-(Q1-S)*%
X104500000Y-110690000D03*
%TD*%
D16*
%TO.P,R4,1*%
%TO.N,GND*%
X129000000Y-117310000D03*
D17*
%TO.P,R4,2*%
%TO.N,Net-(C5-Pad1)*%
X129000000Y-109690000D03*
%TD*%
D16*
%TO.P,R10,1*%
%TO.N,Net-(J10-Pin_1)*%
X104750000Y-79940000D03*
D17*
%TO.P,R10,2*%
%TO.N,Net-(D3-A)*%
X104750000Y-87560000D03*
%TD*%
D16*
%TO.P,R3,1*%
%TO.N,Net-(IC1-TEMPERATURE_SENSING_TRANSISTOR_BASE)*%
X126500000Y-91440000D03*
D17*
%TO.P,R3,2*%
%TO.N,Net-(IC2--IN_A)*%
X126500000Y-99060000D03*
%TD*%
D16*
%TO.P,R8,1*%
%TO.N,-15V*%
X110250000Y-101310000D03*
D17*
%TO.P,R8,2*%
%TO.N,Net-(D3-A)*%
X110250000Y-93690000D03*
%TD*%
D22*
%TO.P,JP3,1,A*%
%TO.N,Net-(D2-K)*%
X100900000Y-93000000D03*
%TO.P,JP3,2,C*%
%TO.N,Net-(J13-Pin_1)*%
X102200000Y-93000000D03*
%TO.P,JP3,3,B*%
%TO.N,Net-(D3-A)*%
X103500000Y-93000000D03*
%TD*%
D16*
%TO.P,R5,1*%
%TO.N,Net-(IC1-SUBSTRATE_AND_ZENER_NEGATIVE)*%
X110250000Y-80190000D03*
D17*
%TO.P,R5,2*%
%TO.N,Net-(JP1-A)*%
X110250000Y-87810000D03*
%TD*%
D23*
%TO.P,Q1,1,D*%
%TO.N,Net-(D1-K)*%
X101980000Y-107500000D03*
D24*
%TO.P,Q1,2,G*%
%TO.N,Net-(IC2-OUTPUT_A)*%
X103250000Y-107500000D03*
%TO.P,Q1,3,S*%
%TO.N,Net-(Q1-S)*%
X104520000Y-107500000D03*
%TD*%
D25*
%TO.N,Net-(D1-A)*%
X122500000Y-102750000D03*
%TO.N,Net-(IC1-TEMPERATURE_SENSING_TRANSISTOR_BASE)*%
X121000000Y-90000000D03*
%TO.N,Net-(IC1-EMITTER_OF_SENSING_AND_COMPENSATING_TRANSISTORS)*%
X124000000Y-86500000D03*
%TO.N,Net-(IC2-+IN_B)*%
X118150000Y-95750000D03*
%TO.N,Net-(D3-A)*%
X103500000Y-93000000D03*
%TO.N,Net-(IC1-ZENER_POSITIVE)*%
X114000000Y-82250000D03*
%TO.N,Net-(IC1-SUBSTRATE_AND_ZENER_NEGATIVE)*%
X112250000Y-82150000D03*
X112800000Y-79650000D03*
%TO.N,Net-(IC1-TEMPERATURE_COMPENSATING_TRANSISTOR_COLLECTOR)*%
X111750000Y-89000000D03*
X115775000Y-86249065D03*
X115475000Y-92725000D03*
X118800000Y-78200000D03*
X118815682Y-79710794D03*
%TO.N,Net-(J10-Pin_1)*%
X125500000Y-79400000D03*
X116800000Y-85600000D03*
X120700000Y-79500000D03*
X129900000Y-79700000D03*
X114500000Y-106200000D03*
%TO.N,Net-(JP1-A)*%
X115900000Y-94800000D03*
%TD*%
D26*
%TO.N,+15V*%
X108750000Y-112000000D02*
X108750000Y-113522613D01*
X123000000Y-107500000D02*
X126000000Y-110500000D01*
X126000000Y-115305456D02*
X126000000Y-114750000D01*
X109750000Y-118000000D02*
X111000000Y-119250000D01*
X109750000Y-114522613D02*
X109750000Y-118000000D01*
X111765248Y-105130651D02*
X111269349Y-105130651D01*
X111269349Y-105130651D02*
X109575000Y-106825000D01*
X126000000Y-110500000D02*
X126000000Y-114750000D01*
X122055456Y-119250000D02*
X126000000Y-115305456D01*
X111000000Y-119250000D02*
X122055456Y-119250000D01*
X109575000Y-111175000D02*
X108750000Y-112000000D01*
X108750000Y-113522613D02*
X109750000Y-114522613D01*
X109575000Y-106825000D02*
X109575000Y-111175000D01*
D27*
%TO.N,GND*%
X125250000Y-95250000D02*
X130000000Y-95250000D01*
X130000000Y-93750000D02*
X130000000Y-96500000D01*
X130000000Y-95250000D02*
X130000000Y-96500000D01*
X123000000Y-97500000D02*
X125250000Y-95250000D01*
D26*
%TO.N,-15V*%
X120000000Y-114250000D02*
X117250000Y-117000000D01*
X120000000Y-108750000D02*
X120000000Y-114250000D01*
X108000000Y-105750000D02*
X110250000Y-103500000D01*
X117160705Y-107365522D02*
X118615522Y-107365522D01*
X110250000Y-103500000D02*
X110250000Y-101310000D01*
X118615522Y-107365522D02*
X120000000Y-108750000D01*
X108000000Y-107500000D02*
X108000000Y-105750000D01*
D28*
%TO.N,Net-(D1-A)*%
X115580412Y-108945815D02*
X115580412Y-112565412D01*
X115580412Y-112565412D02*
X115765000Y-112750000D01*
X122500000Y-102750000D02*
X125250000Y-102750000D01*
X125250000Y-102750000D02*
X126500000Y-104000000D01*
%TO.N,Net-(IC1-TEMPERATURE_SENSING_TRANSISTOR_BASE)*%
X122440000Y-91440000D02*
X126500000Y-91440000D01*
X121000000Y-90000000D02*
X122440000Y-91440000D01*
%TO.N,Net-(IC2--IN_B)*%
X119350000Y-93250000D02*
X118150000Y-93250000D01*
X115750000Y-99000000D02*
X118400000Y-99000000D01*
X119900000Y-93800000D02*
X119350000Y-93250000D01*
X119900000Y-97500000D02*
X119900000Y-93800000D01*
X118400000Y-99000000D02*
X119900000Y-97500000D01*
%TO.N,Net-(IC1-EMITTER_OF_SENSING_AND_COMPENSATING_TRANSISTORS)*%
X120500000Y-86500000D02*
X119395457Y-86500000D01*
D29*
X126500000Y-76500000D02*
X128750000Y-78750000D01*
D28*
X128476346Y-88710000D02*
X121605457Y-88710000D01*
D29*
X113000000Y-58500000D02*
X123000000Y-58500000D01*
X131500000Y-78750000D02*
X132200000Y-79450000D01*
X115080000Y-62500000D02*
X113000000Y-62500000D01*
X112500000Y-62000000D02*
X112500000Y-59000000D01*
X132200000Y-79450000D02*
X132200000Y-83550000D01*
X115540000Y-62960000D02*
X115080000Y-62500000D01*
X113000000Y-62500000D02*
X112500000Y-62000000D01*
D28*
X124000000Y-86500000D02*
X120500000Y-86500000D01*
D29*
X132200000Y-83550000D02*
X131000000Y-84750000D01*
X126500000Y-54500000D02*
X126500000Y-76500000D01*
X124000000Y-54500000D02*
X126500000Y-54500000D01*
X124000000Y-57500000D02*
X124000000Y-54500000D01*
X123000000Y-58500000D02*
X124000000Y-57500000D01*
X128750000Y-78750000D02*
X131500000Y-78750000D01*
X112500000Y-59000000D02*
X113000000Y-58500000D01*
D28*
X131000000Y-84750000D02*
X131000000Y-86186346D01*
X131000000Y-86186346D02*
X128476346Y-88710000D01*
X121605457Y-88710000D02*
X119395457Y-86500000D01*
%TO.N,Net-(J13-Pin_1)*%
X102850000Y-91500000D02*
X106500000Y-91500000D01*
X102200000Y-93000000D02*
X102200000Y-92150000D01*
X106500000Y-91500000D02*
X108000000Y-90000000D01*
X102200000Y-92150000D02*
X102850000Y-91500000D01*
%TO.N,Net-(IC2-+IN_B)*%
X126500000Y-107000000D02*
X124630651Y-105130651D01*
X124630651Y-105130651D02*
X117160704Y-105130651D01*
%TO.N,Net-(D2-K)*%
X99605330Y-90000000D02*
X99500000Y-90105330D01*
X100250000Y-95940000D02*
X99500000Y-95190000D01*
X99605330Y-87589340D02*
X99800000Y-87394670D01*
X99500000Y-95190000D02*
X99500000Y-93000000D01*
X104094670Y-83100000D02*
X99800000Y-87394670D01*
X99500000Y-93000000D02*
X100900000Y-93000000D01*
X115580293Y-82684836D02*
X115165129Y-83100000D01*
X99500000Y-90105330D02*
X99500000Y-93000000D01*
X99605330Y-90000000D02*
X99605330Y-87589340D01*
X115165129Y-83100000D02*
X104094670Y-83100000D01*
%TO.N,Net-(D3-A)*%
X99800000Y-82314670D02*
X102500000Y-82314670D01*
X116750000Y-91000000D02*
X117815164Y-89934836D01*
X117815164Y-89934836D02*
X117815164Y-88080293D01*
X112940000Y-91000000D02*
X116750000Y-91000000D01*
X110250000Y-93690000D02*
X112940000Y-91000000D01*
D29*
%TO.N,Net-(IC1-HEATER_POSITIVE)*%
X112500000Y-68000000D02*
X112500000Y-66000000D01*
X123000000Y-52500000D02*
X115500000Y-52500000D01*
X104500000Y-57000000D02*
X107500000Y-57000000D01*
X104500000Y-54500000D02*
X104500000Y-57000000D01*
X112500000Y-66000000D02*
X113000000Y-65500000D01*
X112000000Y-68500000D02*
X112500000Y-68000000D01*
X107500000Y-57000000D02*
X108500000Y-58000000D01*
X109000000Y-68500000D02*
X112000000Y-68500000D01*
X108500000Y-68000000D02*
X109000000Y-68500000D01*
X108500000Y-58000000D02*
X108500000Y-68000000D01*
X113500000Y-54500000D02*
X104500000Y-54500000D01*
X115500000Y-52500000D02*
X113500000Y-54500000D01*
D28*
%TO.N,Net-(IC1-ZENER_POSITIVE)*%
X114250000Y-76500000D02*
X114250000Y-82000000D01*
X114250000Y-82000000D02*
X114000000Y-82250000D01*
X107000000Y-76500000D02*
X114250000Y-76500000D01*
D29*
X118000000Y-68500000D02*
X116000000Y-68500000D01*
X118500000Y-69000000D02*
X118000000Y-68500000D01*
X118500000Y-72000000D02*
X118500000Y-69000000D01*
X118000000Y-72500000D02*
X118500000Y-72000000D01*
X107000000Y-76500000D02*
X107000000Y-73600000D01*
X107000000Y-73600000D02*
X108100000Y-72500000D01*
X108100000Y-72500000D02*
X118000000Y-72500000D01*
X116000000Y-68500000D02*
X115540000Y-68040000D01*
D30*
%TO.N,Net-(IC1-SUBSTRATE_AND_ZENER_NEGATIVE)*%
X112800000Y-79650000D02*
X112800000Y-81600000D01*
X112800000Y-81600000D02*
X112250000Y-82150000D01*
D29*
%TO.N,Net-(IC1-TEMPERATURE_COMPENSATING_TRANSISTOR_COLLECTOR)*%
X116000000Y-86024065D02*
X115775000Y-86249065D01*
X115775000Y-86249065D02*
X115938262Y-86249065D01*
X116815164Y-81711312D02*
X116815164Y-84453465D01*
X116000000Y-85268629D02*
X116000000Y-86024065D01*
X116815164Y-84453465D02*
X116000000Y-85268629D01*
D28*
X111750000Y-89000000D02*
X111750000Y-88750000D01*
D29*
X122000000Y-62500000D02*
X119000000Y-62500000D01*
X118500000Y-65000000D02*
X118080000Y-65420000D01*
X115938262Y-86249065D02*
X115987327Y-86200000D01*
X119000000Y-62500000D02*
X118500000Y-63000000D01*
X118800000Y-76500000D02*
X122500000Y-76500000D01*
X118080000Y-65420000D02*
X118080000Y-65500000D01*
X122500000Y-63000000D02*
X122000000Y-62500000D01*
X118800000Y-76500000D02*
X118800000Y-78200000D01*
D28*
X116850000Y-93250000D02*
X116000000Y-93250000D01*
X116000000Y-93250000D02*
X115475000Y-92725000D01*
D29*
X118500000Y-63000000D02*
X118500000Y-65000000D01*
D28*
X111750000Y-88750000D02*
X114000000Y-86500000D01*
D29*
X118815682Y-79710794D02*
X116815164Y-81711312D01*
X122500000Y-76500000D02*
X122500000Y-63000000D01*
%TO.N,Net-(J4-Pin_1)*%
X108000000Y-102500000D02*
X108000000Y-100000000D01*
X106000000Y-115020101D02*
X106000000Y-104500000D01*
X106000000Y-104500000D02*
X108000000Y-102500000D01*
X104500000Y-116520101D02*
X106000000Y-115020101D01*
X104500000Y-118310000D02*
X104500000Y-116520101D01*
D28*
%TO.N,Net-(J11-Pin_1)*%
X121500000Y-81500000D02*
X123000000Y-80000000D01*
X125250000Y-82250000D02*
X123000000Y-80000000D01*
X122750000Y-84750000D02*
X120684836Y-82684836D01*
X117815164Y-82684836D02*
X119000000Y-81500000D01*
X119000000Y-81500000D02*
X121500000Y-81500000D01*
X120684836Y-82684836D02*
X117815164Y-82684836D01*
X128000000Y-87560000D02*
X125190000Y-84750000D01*
X131000000Y-82250000D02*
X125250000Y-82250000D01*
X125190000Y-84750000D02*
X122750000Y-84750000D01*
D31*
%TO.N,Net-(J10-Pin_1)*%
X119700000Y-89000000D02*
X119900000Y-88800000D01*
X115100000Y-90300000D02*
X116800000Y-88600000D01*
X115100000Y-86700000D02*
X115400000Y-87000000D01*
X123800000Y-106200000D02*
X121000000Y-106200000D01*
X120100000Y-78900000D02*
X114775000Y-78900000D01*
X115700000Y-117600000D02*
X115200000Y-118100000D01*
X119950000Y-88750000D02*
X116800000Y-85600000D01*
X131500000Y-90500000D02*
X131500000Y-91900000D01*
X110600000Y-90300000D02*
X115100000Y-90300000D01*
X114500000Y-97800000D02*
X113000000Y-96300000D01*
X122200000Y-99300000D02*
X123800000Y-99300000D01*
X119700000Y-89000000D02*
X119950000Y-88750000D01*
X116700000Y-115200000D02*
X115700000Y-116200000D01*
X111522027Y-106200000D02*
X114500000Y-106200000D01*
X127800000Y-100200000D02*
X127800000Y-107500000D01*
X121300000Y-98400000D02*
X122200000Y-99300000D01*
X104750000Y-79940000D02*
X106510000Y-81700000D01*
X130000000Y-99000000D02*
X128100000Y-99000000D01*
X125500000Y-79400000D02*
X125800000Y-79400000D01*
X120900000Y-88800000D02*
X122000000Y-89900000D01*
X116900000Y-91800000D02*
X119700000Y-89000000D01*
X130900000Y-92500000D02*
X130553122Y-92500000D01*
X128100000Y-98400000D02*
X128100000Y-99000000D01*
X117500000Y-115200000D02*
X116700000Y-115200000D01*
X115400000Y-87000000D02*
X116800000Y-87000000D01*
X112900000Y-117450000D02*
X112900000Y-111000000D01*
X115700000Y-116200000D02*
X115700000Y-117600000D01*
X130528122Y-92475000D02*
X129471878Y-92475000D01*
X121000000Y-106200000D02*
X121100000Y-106200000D01*
X113000000Y-96300000D02*
X113000000Y-92700000D01*
X108140129Y-85140129D02*
X114440128Y-85140129D01*
X118900000Y-113800000D02*
X117500000Y-115200000D01*
X114440128Y-85140129D02*
X115100000Y-85800001D01*
X114500000Y-106200000D02*
X118900000Y-110600000D01*
X120700000Y-79500000D02*
X120100000Y-78900000D01*
X115200000Y-118100000D02*
X113550000Y-118100000D01*
X114500000Y-106200000D02*
X121000000Y-106200000D01*
X130900000Y-89900000D02*
X131500000Y-90500000D01*
X114500000Y-106200000D02*
X114500000Y-97800000D01*
X111800000Y-79695405D02*
X112595405Y-78900000D01*
X113000000Y-92700000D02*
X113900000Y-91800000D01*
X123000000Y-110800000D02*
X123000000Y-115000000D01*
X125400000Y-97700000D02*
X127400000Y-97700000D01*
X116800000Y-88600000D02*
X116800000Y-85600000D01*
X110700000Y-81700000D02*
X111800000Y-80600000D01*
X127225000Y-108075000D02*
X125675000Y-108075000D01*
X127400000Y-97700000D02*
X128100000Y-98400000D01*
X130553122Y-92500000D02*
X130528122Y-92475000D01*
X131500000Y-91900000D02*
X130900000Y-92500000D01*
X128100000Y-99900000D02*
X127800000Y-100200000D01*
X122000000Y-89900000D02*
X130900000Y-89900000D01*
X118900000Y-110600000D02*
X118900000Y-113800000D01*
X113900000Y-91800000D02*
X116900000Y-91800000D01*
X108000000Y-85000000D02*
X108140129Y-85140129D01*
X123800000Y-99300000D02*
X125400000Y-97700000D01*
X129346878Y-92600000D02*
X125600000Y-92600000D01*
X127800000Y-107500000D02*
X127225000Y-108075000D01*
X115100000Y-85800001D02*
X115100000Y-86700000D01*
X127315000Y-80915000D02*
X128685000Y-80915000D01*
X121100000Y-108900000D02*
X123000000Y-110800000D01*
X110633379Y-108733379D02*
X110633379Y-107088648D01*
X129471878Y-92475000D02*
X129346878Y-92600000D01*
X128685000Y-80915000D02*
X129900000Y-79700000D01*
X125675000Y-108075000D02*
X123800000Y-106200000D01*
X119900000Y-88800000D02*
X120900000Y-88800000D01*
X112595405Y-78900000D02*
X113725000Y-78900000D01*
X125800000Y-79400000D02*
X127315000Y-80915000D01*
X106510000Y-81700000D02*
X110700000Y-81700000D01*
X128100000Y-99000000D02*
X128100000Y-99900000D01*
X116800000Y-87000000D02*
X116800000Y-85600000D01*
X108000000Y-87700000D02*
X110600000Y-90300000D01*
X112900000Y-111000000D02*
X110633379Y-108733379D01*
X121300000Y-96900000D02*
X121300000Y-98400000D01*
X113550000Y-118100000D02*
X112900000Y-117450000D01*
X108000000Y-85000000D02*
X108000000Y-87700000D01*
X110633379Y-107088648D02*
X111522027Y-106200000D01*
X111800000Y-80600000D02*
X111800000Y-79695405D01*
X121100000Y-106200000D02*
X121100000Y-108900000D01*
X125600000Y-92600000D02*
X121300000Y-96900000D01*
D28*
%TO.N,Net-(JP1-A)*%
X116850000Y-95750000D02*
X115900000Y-94800000D01*
%TD*%
%TA.AperFunction,Conductor*%
%TO.N,Net-(IC1-TEMPERATURE_COMPENSATING_TRANSISTOR_COLLECTOR)*%
G36*
X125443039Y-76019685D02*
G01*
X125488794Y-76072489D01*
X125500000Y-76124000D01*
X125500000Y-76876000D01*
X125480315Y-76943039D01*
X125427511Y-76988794D01*
X125376000Y-77000000D01*
X116124000Y-77000000D01*
X116056961Y-76980315D01*
X116011206Y-76927511D01*
X116000000Y-76876000D01*
X116000000Y-76124000D01*
X116019685Y-76056961D01*
X116072489Y-76011206D01*
X116124000Y-76000000D01*
X125376000Y-76000000D01*
X125443039Y-76019685D01*
G37*
%TD.AperFunction*%
%TD*%
%TA.AperFunction,Conductor*%
%TO.N,Net-(IC1-EMITTER_OF_SENSING_AND_COMPENSATING_TRANSISTORS)*%
G36*
X122874739Y-54000423D02*
G01*
X122875662Y-54000499D01*
X122875665Y-54000500D01*
X122875668Y-54000500D01*
X123124332Y-54000500D01*
X123124335Y-54000500D01*
X123124337Y-54000499D01*
X123125261Y-54000423D01*
X123135499Y-54000000D01*
X126876000Y-54000000D01*
X126943039Y-54019685D01*
X126988794Y-54072489D01*
X127000000Y-54124000D01*
X127000000Y-76876000D01*
X126980315Y-76943039D01*
X126927511Y-76988794D01*
X126876000Y-77000000D01*
X126129500Y-77000000D01*
X126062461Y-76980315D01*
X126016706Y-76927511D01*
X126005500Y-76876000D01*
X126005500Y-76124010D01*
X126005500Y-76124000D01*
X126000710Y-76079446D01*
X126000000Y-76066193D01*
X126000000Y-55000000D01*
X116124000Y-55000000D01*
X116056961Y-54980315D01*
X116011206Y-54927511D01*
X116000000Y-54876000D01*
X116000000Y-54124000D01*
X116019685Y-54056961D01*
X116072489Y-54011206D01*
X116124000Y-54000000D01*
X122864501Y-54000000D01*
X122874739Y-54000423D01*
G37*
%TD.AperFunction*%
%TD*%
%TA.AperFunction,Conductor*%
%TO.N,Net-(IC1-ZENER_POSITIVE)*%
G36*
X115437539Y-76019685D02*
G01*
X115483294Y-76072489D01*
X115494500Y-76124000D01*
X115494500Y-76876000D01*
X115474815Y-76943039D01*
X115422011Y-76988794D01*
X115370500Y-77000000D01*
X105624000Y-77000000D01*
X105556961Y-76980315D01*
X105511206Y-76927511D01*
X105500000Y-76876000D01*
X105500000Y-76124000D01*
X105519685Y-76056961D01*
X105572489Y-76011206D01*
X105624000Y-76000000D01*
X115370500Y-76000000D01*
X115437539Y-76019685D01*
G37*
%TD.AperFunction*%
%TD*%
%TA.AperFunction,Conductor*%
%TO.N,Net-(IC1-HEATER_POSITIVE)*%
G36*
X107874739Y-54000423D02*
G01*
X107875662Y-54000499D01*
X107875665Y-54000500D01*
X107875668Y-54000500D01*
X108124332Y-54000500D01*
X108124335Y-54000500D01*
X108124337Y-54000499D01*
X108125261Y-54000423D01*
X108135499Y-54000000D01*
X115376000Y-54000000D01*
X115443039Y-54019685D01*
X115488794Y-54072489D01*
X115500000Y-54124000D01*
X115500000Y-54876000D01*
X115480315Y-54943039D01*
X115427511Y-54988794D01*
X115376000Y-55000000D01*
X105000000Y-55000000D01*
X105000000Y-76076877D01*
X104998738Y-76094523D01*
X104994500Y-76123998D01*
X104994500Y-76876000D01*
X104974815Y-76943039D01*
X104922011Y-76988794D01*
X104870500Y-77000000D01*
X104124000Y-77000000D01*
X104056961Y-76980315D01*
X104011206Y-76927511D01*
X104000000Y-76876000D01*
X104000000Y-54124000D01*
X104019685Y-54056961D01*
X104072489Y-54011206D01*
X104124000Y-54000000D01*
X107864501Y-54000000D01*
X107874739Y-54000423D01*
G37*
%TD.AperFunction*%
%TD*%
M02*
